<?xml version="1.0" encoding="UTF-8"?>
<svg xmlns="http://www.w3.org/2000/svg" xmlns:xlink="http://www.w3.org/1999/xlink" version="1.2" >
<font id="Fibra One Light">
<font-face  font-family="Fibra One" units-per-em="1000" ascent="1040" descent="-300" font-style="normal" font-weight="300" font-stretch="normal" cap-height="730" x-height="520" underline-position="-75" underline-thickness="50" />
<missing-glyph  horiz-adv-x="600" d="" />
<glyph glyph-name="NULL" d="" />
<glyph glyph-name="CR" unicode="&#xd;" horiz-adv-x="250" d="" />
<glyph glyph-name="space" unicode="&#x20;" horiz-adv-x="270" d="" />
<glyph glyph-name="exclam" unicode="&#x21;" horiz-adv-x="267" d="M151 780 L116 780 C103 780 97 774 97 760 L106 194 C106 180 114 173 126 173 L140 173 C153 173 161 180 161 194 L170 760 C170 774 164 780 151 780 L151 780 Z M133 -10 C163 -10 188 15 188 46 C188 74 163 99 133 99 C103 99 79 74 79 46 C79 15 103 -10 133 -10 L133 -10 Z " />
<glyph glyph-name="quotedbl" unicode="&#x22;" horiz-adv-x="345" d="M110 780 L87 780 C76 780 71 774 71 763 L71 565 C71 555 76 549 87 549 L110 549 C121 549 127 555 127 565 L127 763 C127 774 121 780 110 780 L110 780 Z M258 780 L235 780 C224 780 219 774 219 763 L219 565 C219 555 224 549 235 549 L258 549 C269 549 275 555 275 565 L275 763 C275 774 269 780 258 780 L258 780 Z " />
<glyph glyph-name="numbersign" unicode="&#x23;" horiz-adv-x="789" d="M37 202 C37 189 44 182 57 182 L162 182 C181 182 191 171 188 152 L165 22 C162 8 169 0 182 0 L208 0 C220 0 227 7 229 18 L254 157 C257 174 268 182 284 182 L439 182 C457 182 467 171 464 152 L441 22 C438 8 445 0 459 0 L484 0 C496 0 503 7 505 18 L530 157 C533 174 544 182 561 182 L680 182 C693 182 700 189 700 202 L700 221 C700 234 693 241 680 241 L576 241 C558 241 548 252 551 272 L576 409 C578 426 589 434 606 434 L731 434 C744 434 751 442 751 454 L751 474 C751 486 744 494 731 494 L621 494 C602 494 592 504 596 524 L623 675 C626 688 619 696 606 696 L579 696 C567 696 560 691 558 678 L529 519 C527 502 516 494 499 494 L345 494 C326 494 316 504 319 524 L347 675 C350 688 343 696 330 696 L303 696 C291 696 284 691 282 678 L253 519 C250 502 239 494 223 494 L109 494 C96 494 89 486 89 474 L89 454 C89 442 96 434 109 434 L207 434 C226 434 236 423 233 404 L208 266 C205 250 195 241 178 241 L57 241 C44 241 37 234 37 221 L37 202 Z M275 272 L299 409 C302 426 313 434 330 434 L484 434 C502 434 512 423 509 404 L484 266 C481 250 471 241 454 241 L300 241 C282 241 271 252 275 272 L275 272 Z " />
<glyph glyph-name="dollar" unicode="&#x24;" horiz-adv-x="612" d="M41 182 C73 68 172 4 277 -8 C285 -8 289 -13 289 -21 L289 -69 C289 -81 296 -88 309 -88 L320 -88 C333 -88 340 -80 340 -68 L340 -21 C340 -13 344 -9 353 -8 C475 4 560 68 560 162 C560 289 454 321 351 338 C343 339 340 345 340 352 L340 565 C340 574 345 579 354 577 C416 563 463 521 480 461 C484 450 491 444 503 444 L535 444 C549 444 556 452 553 466 C533 564 457 630 352 645 C344 647 340 651 340 659 L340 694 C340 707 333 714 320 714 L309 714 C296 714 289 707 289 694 L289 661 C289 653 284 648 276 647 C156 637 76 568 76 474 C76 352 175 295 277 281 C285 280 289 274 289 267 L289 72 C289 63 284 58 275 60 C205 69 139 111 112 187 C107 198 100 204 88 204 L58 204 C45 204 37 196 41 182 L41 182 Z M150 472 C150 527 193 570 269 580 C281 582 289 577 289 569 L289 360 C289 351 284 348 274 349 C205 357 150 406 150 472 L150 472 Z M355 272 C430 262 485 236 485 163 C485 109 435 69 354 59 C345 58 340 63 340 71 L340 260 C340 269 345 273 355 272 L355 272 Z " />
<glyph glyph-name="percent" unicode="&#x25;" horiz-adv-x="917" d="M36 549 C36 435 105 359 203 359 C301 359 370 435 370 549 C370 664 301 740 203 740 C105 740 36 664 36 549 L36 549 Z M276 51 C270 39 273 29 286 24 L310 14 C321 9 330 11 336 23 L651 692 C656 703 653 712 640 718 L619 727 C607 732 598 728 592 717 L276 51 Z M97 549 C97 633 140 682 203 682 C266 682 308 633 308 549 C308 466 266 417 203 417 C140 417 97 466 97 549 L97 549 Z M546 181 C546 67 616 -10 713 -10 C811 -10 881 67 881 181 C881 294 811 371 713 371 C616 371 546 294 546 181 L546 181 Z M609 181 C609 264 650 313 713 313 C777 313 818 264 818 181 C818 98 777 48 713 48 C650 48 609 98 609 181 L609 181 Z " />
<glyph glyph-name="ampersand" unicode="&#x26;" horiz-adv-x="738" d="M49 197 C49 82 152 -9 320 -9 C513 -9 620 137 628 309 C629 322 637 330 650 330 L701 330 C714 330 721 337 721 350 L721 371 C721 384 714 391 701 391 L495 391 C482 391 475 384 475 371 L475 350 C475 337 482 330 495 330 L534 330 C547 330 556 322 555 308 C547 175 468 60 320 60 C199 60 126 124 126 200 C126 275 182 330 280 330 L355 330 C368 330 375 337 375 350 L375 371 C375 384 368 391 355 391 L288 391 C231 391 178 451 178 523 C178 602 239 652 319 652 C384 652 436 609 458 547 C463 536 470 531 481 531 L518 531 C531 531 538 539 535 553 C508 650 429 722 319 722 C194 722 100 640 100 527 C100 470 125 419 160 389 C172 378 171 370 157 363 C94 335 49 277 49 197 L49 197 Z " />
<glyph glyph-name="quotesingle" unicode="&#x27;" horiz-adv-x="197" d="M110 780 L87 780 C76 780 71 774 71 763 L71 565 C71 555 76 549 87 549 L110 549 C121 549 127 555 127 565 L127 763 C127 774 121 780 110 780 L110 780 Z " />
<glyph glyph-name="parenleft" unicode="&#x28;" horiz-adv-x="307" d="M264 746 L255 757 C243 770 230 769 217 758 C112 666 54 531 54 337 C54 144 113 10 218 -83 C231 -95 246 -96 256 -82 L265 -72 C275 -58 277 -46 265 -34 C197 35 132 158 132 337 C132 517 177 627 263 708 C276 720 276 732 264 746 L264 746 Z " />
<glyph glyph-name="parenright" unicode="&#x29;" horiz-adv-x="307" d="M175 337 C175 153 119 38 36 -40 C27 -48 31 -57 42 -72 L50 -82 C61 -96 75 -95 88 -83 C193 10 252 144 252 337 C252 531 195 666 89 758 C77 769 63 770 51 757 L43 746 C31 733 30 720 43 708 C133 623 175 517 175 337 L175 337 Z " />
<glyph glyph-name="asterisk" unicode="&#x2a;" horiz-adv-x="344" d="M245 693 L209 677 C202 674 196 678 196 686 L198 733 C198 747 191 754 177 754 L166 754 C153 754 145 747 145 733 L147 686 C147 678 141 674 135 677 L98 693 C86 698 75 693 71 679 L68 672 C65 659 70 650 84 646 L124 635 C132 633 133 627 129 621 L98 583 C90 573 90 564 101 554 L106 551 C116 542 127 544 135 555 L164 597 C169 603 174 603 179 597 L208 555 C217 544 228 543 238 551 L242 554 C253 564 253 573 245 583 L215 621 C210 627 212 633 219 635 L260 646 C274 650 280 659 276 672 L272 680 C269 693 257 698 245 693 L245 693 Z " />
<glyph glyph-name="plus" unicode="&#x2b;" horiz-adv-x="495" d="M47 280 C47 267 55 260 67 260 L198 260 C210 260 217 254 217 241 L217 111 C217 98 225 91 237 91 L260 91 C273 91 280 99 280 111 L280 241 C280 253 287 260 299 260 L428 260 C441 260 448 267 448 280 L448 303 C448 316 441 323 428 323 L299 323 C287 323 280 330 280 342 L280 471 C280 484 273 491 260 491 L236 491 C223 491 216 485 216 471 L216 342 C216 330 209 323 198 323 L67 323 C55 323 47 316 47 303 L47 280 Z " />
<glyph glyph-name="comma" unicode="&#x2c;" horiz-adv-x="212" d="M73 78 L57 -69 C56 -82 63 -90 76 -90 L95 -90 C107 -90 114 -85 117 -73 L144 75 C147 89 140 96 126 96 L95 96 C83 96 75 90 73 78 L73 78 Z " />
<glyph glyph-name="hyphen" unicode="&#x2d;" horiz-adv-x="537" d="M436 297 L100 297 C83 297 73 286 73 269 L73 263 C73 246 83 236 100 236 L436 236 C453 236 464 246 464 263 L464 269 C464 286 453 297 436 297 L436 297 Z " />
<glyph glyph-name="period" unicode="&#x2e;" horiz-adv-x="248" d="M124 -10 C156 -10 183 17 183 50 C183 81 156 107 124 107 C92 107 65 81 65 50 C65 17 92 -10 124 -10 L124 -10 Z " />
<glyph glyph-name="slash" unicode="&#x2f;" horiz-adv-x="460" d="M60 -10 L92 -10 C103 -10 111 -5 115 6 L416 709 C422 723 415 733 400 733 L371 733 C360 733 352 728 348 717 L44 14 C38 0 44 -10 60 -10 L60 -10 Z " />
<glyph glyph-name="zero" unicode="0" horiz-adv-x="757" d="M59 367 C59 147 184 -10 379 -10 C573 -10 699 147 699 367 C699 585 573 740 379 740 C184 740 59 585 59 367 L59 367 Z M139 365 C139 543 232 670 379 670 C525 670 619 543 619 365 C619 187 525 60 379 60 C232 60 139 187 139 365 L139 365 Z " />
<glyph glyph-name="one" unicode="1" horiz-adv-x="504" d="M73 537 C128 543 183 565 224 595 C237 604 246 598 246 582 L246 94 C246 80 238 72 224 72 L87 72 C74 72 67 65 67 52 L67 20 C67 7 74 0 87 0 L465 0 C478 0 485 7 485 20 L485 52 C485 65 478 72 465 72 L345 72 C331 72 323 80 323 94 L323 710 C323 723 316 730 303 730 L295 730 C285 730 278 726 271 718 C228 662 147 619 71 608 C58 605 52 599 52 586 L52 555 C52 542 60 534 73 537 L73 537 Z " />
<glyph glyph-name="two" unicode="2" horiz-adv-x="638" d="M74 514 L109 514 C121 514 128 521 130 533 C141 614 214 673 309 673 C416 673 485 614 485 532 C485 448 428 398 330 305 L64 51 C57 44 54 36 54 26 L54 20 C54 7 61 0 74 0 L570 0 C583 0 590 7 590 20 L590 52 C590 65 583 72 570 72 L219 72 C202 72 196 84 210 97 L381 254 C487 351 563 424 563 536 C563 655 469 740 309 740 C170 740 67 656 54 535 C53 521 61 514 74 514 L74 514 Z " />
<glyph glyph-name="three" unicode="3" horiz-adv-x="659" d="M50 178 C89 62 185 -10 337 -10 C481 -10 602 65 601 199 C600 277 555 341 476 364 C458 370 458 378 474 387 C533 419 572 477 573 543 C574 663 483 740 335 740 C192 740 99 665 75 557 C72 543 80 535 94 535 L128 535 C141 535 147 541 150 553 C169 624 233 673 335 673 C434 672 495 619 494 538 C493 465 432 404 328 404 L271 404 C258 404 251 396 251 384 L251 355 C251 342 258 335 271 335 L328 335 C451 335 522 285 522 205 C523 117 445 58 337 58 C230 58 160 103 127 185 C123 195 116 200 105 200 L67 200 C52 200 45 192 50 178 L50 178 Z " />
<glyph glyph-name="four" unicode="4" horiz-adv-x="652" d="M48 154 L398 154 C412 154 420 146 420 131 L420 17 C420 4 428 -4 440 -4 L475 -4 C487 -4 495 4 495 17 L495 131 C495 146 503 154 517 154 L615 154 C628 154 635 161 635 174 L635 197 C635 209 628 217 615 217 L517 217 C503 217 495 225 495 239 L495 426 C495 439 487 446 475 446 L440 446 C428 446 420 439 420 426 L420 239 C420 225 412 217 398 217 L151 217 C133 217 127 230 138 245 C250 398 330 577 349 716 C350 729 342 736 329 736 L290 736 C277 736 271 730 270 717 C253 558 153 373 36 210 C30 202 28 195 28 185 L28 174 C28 161 35 154 48 154 L48 154 Z " />
<glyph glyph-name="five" unicode="5" horiz-adv-x="615" d="M44 178 C82 69 172 -10 305 -10 C458 -10 570 86 569 221 C568 356 477 450 290 450 L175 450 C161 450 153 458 153 473 L153 635 C153 649 161 657 175 657 L494 657 C507 657 514 664 514 677 L514 710 C514 722 507 730 494 730 L105 730 C90 730 82 721 82 707 L82 422 C82 395 97 380 124 380 L288 380 C427 380 490 317 491 221 C492 124 405 57 305 57 C217 57 150 106 121 184 C117 195 109 200 98 200 L61 200 C47 200 39 191 44 178 L44 178 Z " />
<glyph glyph-name="six" unicode="6" horiz-adv-x="660" d="M61 360 C61 136 165 -10 348 -10 C496 -10 604 85 605 212 C605 336 513 436 366 437 C285 438 209 412 158 360 C146 348 135 353 135 367 C134 373 134 379 134 385 C138 574 224 673 350 672 C424 672 484 627 509 559 C514 549 521 543 532 543 L568 542 C582 542 590 551 586 565 C557 669 466 740 350 740 C181 741 61 614 61 360 L61 360 Z M152 254 C183 326 265 371 354 371 C460 371 528 301 528 212 C528 125 450 59 348 58 C242 58 177 123 150 222 C147 234 147 243 152 254 L152 254 Z " />
<glyph glyph-name="seven" unicode="7" horiz-adv-x="554" d="M42 657 L398 657 C415 657 423 646 412 632 C265 455 182 255 167 21 C166 7 173 0 186 0 L230 0 C243 0 251 7 251 20 C259 280 352 476 522 672 C530 682 532 691 530 704 L529 709 C526 722 517 730 502 730 L42 730 C29 730 22 723 22 710 L22 677 C22 665 29 657 42 657 L42 657 Z " />
<glyph glyph-name="eight" unicode="8" horiz-adv-x="669" d="M55 205 C55 77 167 -10 334 -10 C502 -10 614 77 614 205 C614 283 571 344 501 379 C485 388 484 397 498 409 C547 442 574 492 574 549 C574 664 480 740 334 740 C188 740 95 664 95 549 C95 492 122 442 169 410 C184 398 183 388 168 379 C98 344 55 283 55 205 L55 205 Z M172 549 C172 624 236 678 334 678 C432 678 497 624 497 549 C497 476 439 420 334 420 C229 420 172 476 172 549 L172 549 Z M132 206 C132 298 208 357 334 357 C461 357 536 298 536 206 C536 116 455 54 334 54 C214 54 132 116 132 206 L132 206 Z " />
<glyph glyph-name="nine" unicode="9" horiz-adv-x="659" d="M597 381 C598 629 478 740 312 740 C168 740 57 657 57 505 C57 384 147 274 302 274 C378 274 452 300 503 357 C513 368 524 364 523 348 C522 341 522 334 522 326 C510 160 449 57 321 57 C237 57 173 101 149 183 C145 195 138 200 126 200 L91 200 C77 200 69 192 73 178 C104 63 192 -10 318 -10 C509 -10 597 138 597 381 L597 381 Z M135 506 C135 615 211 672 311 672 C404 672 481 616 510 500 C514 487 514 477 509 465 C475 380 395 342 313 342 C195 342 135 421 135 506 L135 506 Z " />
<glyph glyph-name="colon" unicode="&#x3a;" horiz-adv-x="261" d="M130 345 C162 345 188 372 188 405 C188 436 162 462 130 462 C98 462 71 436 71 405 C71 372 98 345 130 345 L130 345 Z M130 -10 C162 -10 188 17 188 50 C188 81 162 107 130 107 C98 107 71 81 71 50 C71 17 98 -10 130 -10 L130 -10 Z " />
<glyph glyph-name="semicolon" unicode="&#x3b;" horiz-adv-x="253" d="M128 346 C160 346 186 373 186 407 C186 438 160 464 128 464 C95 464 69 438 69 407 C69 373 95 346 128 346 L128 346 Z M91 78 L75 -67 C74 -80 81 -88 94 -88 L110 -88 C122 -88 130 -82 133 -70 L160 75 C163 89 156 96 142 96 L113 96 C101 96 93 90 91 78 L91 78 Z " />
<glyph glyph-name="less" unicode="&#x3c;" horiz-adv-x="480" d="M65 233 L392 80 C405 74 415 80 415 95 L415 129 C415 140 411 148 400 153 L152 259 C135 267 136 279 152 286 L400 398 C410 402 415 410 415 421 L415 455 C415 470 405 477 391 470 L64 310 C54 306 50 298 50 287 L50 258 C50 246 55 238 65 233 L65 233 Z " />
<glyph glyph-name="equal" unicode="&#x3d;" horiz-adv-x="529" d="M432 375 L97 375 C84 375 77 368 77 355 L77 333 C77 320 84 313 97 313 L432 313 C445 313 452 320 452 333 L452 355 C452 368 445 375 432 375 L432 375 Z M432 198 L97 198 C84 198 77 191 77 178 L77 155 C77 143 84 135 97 135 L432 135 C445 135 452 143 452 155 L452 178 C452 191 445 198 432 198 L432 198 Z " />
<glyph glyph-name="greater" unicode="&#x3e;" horiz-adv-x="480" d="M88 80 L415 233 C425 238 430 246 430 258 L430 287 C430 298 425 306 416 310 L89 470 C75 477 65 470 65 455 L65 421 C65 410 70 402 80 398 L328 286 C349 277 350 269 328 259 L80 153 C69 148 65 140 65 129 L65 95 C65 80 75 74 88 80 L88 80 Z " />
<glyph glyph-name="question" unicode="&#x3f;" horiz-adv-x="559" d="M56 535 L88 535 C99 535 107 541 111 552 C139 626 200 670 281 670 C373 670 437 612 437 520 C437 427 370 361 257 340 C235 336 224 324 225 301 L231 186 C231 174 239 167 251 167 L267 167 C279 167 287 174 288 186 L291 259 C292 274 300 283 315 288 C429 317 515 400 515 520 C515 657 418 740 281 740 C155 740 70 667 38 558 C34 544 42 535 56 535 L56 535 Z M205 46 C205 15 229 -10 260 -10 C289 -10 314 15 314 46 C314 74 289 99 260 99 C229 99 205 74 205 46 L205 46 Z " />
<glyph glyph-name="at" unicode="&#x40;" horiz-adv-x="941" d="M54 296 C54 88 209 -57 417 -57 C482 -57 553 -46 610 -22 C624 -17 630 -9 634 6 L637 20 C641 38 628 44 607 36 C553 13 489 2 427 2 C243 2 116 119 116 301 C116 518 283 683 523 683 C710 683 837 564 837 398 C837 274 790 181 711 181 C671 181 642 203 652 256 L698 514 C701 527 693 535 680 535 L674 535 C663 535 655 530 651 519 L639 479 C635 468 628 468 621 476 C588 518 541 543 476 543 C344 543 253 444 253 310 C253 194 331 124 425 124 C493 124 546 144 585 181 C593 188 600 187 607 177 C625 146 660 126 700 126 C819 126 900 243 900 400 C900 604 741 743 528 743 C252 743 54 553 54 296 L54 296 Z M316 312 C316 420 385 486 477 486 C545 486 585 459 609 404 C614 392 614 383 612 371 L596 284 C594 273 591 264 584 254 C551 203 501 181 434 181 C365 181 316 233 316 312 L316 312 Z " />
<glyph glyph-name="A" unicode="A" horiz-adv-x="711" d="M35 0 L74 0 C85 0 93 5 97 16 L159 169 C162 176 167 179 175 179 L532 179 C540 179 545 176 548 169 L606 16 C611 5 619 0 630 0 L671 0 C685 0 691 9 686 23 L410 714 C406 724 398 730 387 730 L327 730 C316 730 308 724 304 714 L20 23 C14 10 22 0 35 0 L35 0 Z M198 268 L348 638 C352 649 362 649 366 638 L509 268 C513 259 508 252 499 252 L209 252 C199 252 194 259 198 268 L198 268 Z " />
<glyph glyph-name="B" unicode="B" horiz-adv-x="669" d="M129 0 L367 0 C526 0 611 85 611 193 C611 287 557 340 491 367 C476 374 476 382 490 390 C551 421 589 475 589 541 C589 660 497 730 347 730 L129 730 C114 730 106 722 106 707 L106 23 C106 8 114 0 129 0 L129 0 Z M183 423 L183 648 C183 658 188 663 198 663 L345 663 C447 663 513 625 513 537 C513 464 440 408 343 408 L198 408 C188 408 183 414 183 423 L183 423 Z M183 82 L183 326 C183 336 188 341 198 341 L345 341 C417 341 534 318 534 200 C534 128 478 67 363 67 L198 67 C188 67 183 72 183 82 L183 82 Z " />
<glyph glyph-name="C" unicode="C" horiz-adv-x="827" d="M53 366 C53 142 229 -10 431 -10 C602 -10 736 92 775 231 C779 245 772 253 758 253 L719 253 C708 253 700 248 696 237 C660 128 558 62 431 62 C272 62 132 183 132 366 C132 548 272 668 431 668 C575 668 672 581 695 462 C698 450 705 444 717 444 L756 444 C770 444 777 452 775 465 C751 612 621 740 431 740 C228 740 53 589 53 366 L53 366 Z " />
<glyph glyph-name="D" unicode="D" horiz-adv-x="801" d="M129 0 L374 0 C582 0 747 147 747 365 C747 581 583 730 374 730 L129 730 C114 730 106 722 106 707 L106 23 C106 8 114 0 129 0 L129 0 Z M184 82 L184 648 C184 658 190 663 199 663 L374 663 C529 663 667 555 667 365 C667 176 529 67 374 67 L199 67 C190 67 184 73 184 82 L184 82 Z " />
<glyph glyph-name="E" unicode="E" horiz-adv-x="567" d="M129 0 L490 0 C503 0 510 7 510 20 L510 48 C510 61 503 68 490 68 L198 68 C189 68 183 74 183 83 L183 314 C183 323 189 329 198 329 L467 329 C479 329 487 336 487 349 L487 377 C487 389 479 397 467 397 L198 397 C189 397 183 403 183 412 L183 648 C183 657 189 663 198 663 L488 663 C500 663 508 670 508 683 L508 710 C508 723 500 730 488 730 L129 730 C114 730 106 722 106 707 L106 23 C106 8 114 0 129 0 L129 0 Z " />
<glyph glyph-name="F" unicode="F" horiz-adv-x="551" d="M126 0 L164 0 C177 0 184 7 184 20 L184 306 C184 315 190 321 199 321 L482 321 C495 321 503 329 503 341 L503 369 C503 382 495 389 482 389 L199 389 C190 389 184 395 184 404 L184 647 C184 656 190 662 199 662 L488 662 C501 662 508 669 508 682 L508 710 C508 723 501 730 488 730 L129 730 C114 730 106 722 106 707 L106 20 C106 7 113 0 126 0 L126 0 Z " />
<glyph glyph-name="G" unicode="G" horiz-adv-x="824" d="M53 367 C53 142 230 -10 434 -10 C635 -10 769 119 769 303 L769 307 C769 320 761 329 744 329 L469 329 C457 329 449 322 449 309 L449 282 C449 269 457 262 469 262 L681 262 C691 262 697 256 694 246 C672 131 576 59 434 59 C273 59 132 180 132 365 C132 550 273 671 434 671 C572 671 666 590 689 475 C692 462 699 456 711 456 L744 456 C757 456 765 464 763 478 C738 626 609 740 434 740 C230 740 53 589 53 367 L53 367 Z " />
<glyph glyph-name="H" unicode="H" horiz-adv-x="838" d="M126 0 L164 0 C177 0 184 7 184 20 L184 306 C184 320 192 328 206 328 L632 328 C646 328 654 320 654 306 L654 20 C654 7 661 0 674 0 L712 0 C725 0 732 7 732 20 L732 710 C732 723 725 730 712 730 L674 730 C661 730 654 723 654 710 L654 424 C654 410 646 402 632 402 L206 402 C192 402 184 410 184 424 L184 710 C184 723 177 730 164 730 L126 730 C113 730 106 723 106 710 L106 20 C106 7 113 0 126 0 L126 0 Z " />
<glyph glyph-name="I" unicode="I" horiz-adv-x="291" d="M164 730 L126 730 C113 730 106 723 106 710 L106 20 C106 7 113 0 126 0 L164 0 C177 0 184 7 184 20 L184 710 C184 723 177 730 164 730 L164 730 Z " />
<glyph glyph-name="J" unicode="J" horiz-adv-x="675" d="M24 222 C46 86 148 -10 309 -10 C476 -10 578 115 578 267 L579 702 C579 719 568 730 550 730 L223 730 C210 730 203 723 203 710 L203 679 C203 666 210 659 223 659 L479 659 C494 659 502 652 502 637 L501 267 C501 155 429 62 309 62 C193 62 120 125 99 226 C96 238 89 244 77 244 L43 244 C29 244 22 236 24 222 L24 222 Z " />
<glyph glyph-name="K" unicode="K" horiz-adv-x="638" d="M164 730 L126 730 C113 730 106 723 106 710 L106 20 C106 7 113 0 126 0 L164 0 C177 0 184 7 184 20 L184 710 C184 723 177 730 164 730 L164 730 Z M249 330 L529 11 C536 3 544 0 554 0 L605 0 C622 0 628 12 616 25 L320 358 C314 364 314 373 320 380 L596 705 C607 718 602 730 585 730 L539 730 C528 730 520 727 514 719 L249 403 C241 394 239 386 239 375 L239 358 C239 347 242 338 249 330 L249 330 Z " />
<glyph glyph-name="L" unicode="L" horiz-adv-x="574" d="M134 0 L540 0 C553 0 560 7 560 20 L560 52 C560 65 553 72 540 72 L199 72 C190 72 184 78 184 87 L184 710 C184 723 177 730 164 730 L126 730 C113 730 106 723 106 710 L106 28 C106 11 117 0 134 0 L134 0 Z " />
<glyph glyph-name="M" unicode="M" horiz-adv-x="895" d="M126 0 L158 0 C171 0 178 7 178 20 L178 569 C178 583 188 587 196 575 L416 245 C424 233 434 227 448 227 L450 227 C463 227 474 232 482 245 L698 578 C706 589 717 587 717 572 L717 20 C717 7 724 0 737 0 L769 0 C782 0 789 7 789 20 L789 702 C789 719 778 730 761 730 L743 730 C728 730 717 724 709 711 L460 329 C454 319 445 319 439 328 L188 711 C180 724 170 730 154 730 L134 730 C116 730 106 719 106 702 L106 20 C106 7 113 0 126 0 L126 0 Z " />
<glyph glyph-name="N" unicode="N" horiz-adv-x="828" d="M126 0 L157 0 C170 0 177 7 177 20 L177 568 C177 582 187 585 195 574 L644 16 C653 5 663 0 677 0 L694 0 C711 0 721 10 721 27 L721 710 C721 723 714 730 701 730 L671 730 C658 730 651 723 651 710 L651 144 C651 130 640 126 632 137 L174 714 C165 725 156 730 142 730 L133 730 C116 730 106 720 106 703 L106 20 C106 7 113 0 126 0 L126 0 Z " />
<glyph glyph-name="O" unicode="O" horiz-adv-x="872" d="M53 366 C53 142 228 -10 435 -10 C644 -10 819 142 819 366 C819 589 644 740 435 740 C228 740 53 589 53 366 L53 366 Z M132 366 C132 550 271 671 435 671 C601 671 739 550 739 366 C739 181 601 59 435 59 C271 59 132 181 132 366 L132 366 Z " />
<glyph glyph-name="P" unicode="P" horiz-adv-x="613" d="M126 0 L164 0 C177 0 184 7 184 20 L184 206 C184 215 190 221 199 221 L277 221 C452 221 580 329 580 477 C580 629 450 730 277 730 L129 730 C114 730 106 722 106 707 L106 20 C106 7 113 0 126 0 L126 0 Z M184 304 L184 647 C184 656 190 662 199 662 L279 662 C405 662 500 590 500 477 C500 369 407 289 279 289 L199 289 C190 289 184 295 184 304 L184 304 Z " />
<glyph glyph-name="Q" unicode="Q" horiz-adv-x="872" d="M714 103 C779 168 819 259 819 366 C819 589 644 740 435 740 C228 740 53 589 53 366 C53 142 228 -10 435 -10 C520 -10 599 15 663 60 L725 -11 C736 -23 748 -24 759 -14 L774 -1 C785 8 786 21 776 32 L714 103 Z M435 59 C271 59 132 181 132 366 C132 550 271 671 435 671 C601 671 739 550 739 366 C739 283 711 212 665 160 L548 294 C538 305 526 306 514 297 L498 283 C487 272 486 260 496 249 L615 114 C564 79 502 59 435 59 L435 59 Z " />
<glyph glyph-name="R" unicode="R" horiz-adv-x="613" d="M106 20 C106 7 113 0 126 0 L164 0 C177 0 184 7 184 20 L184 234 C184 248 193 253 203 242 L450 10 C458 3 466 0 475 0 L530 -1 C548 -1 553 12 540 24 L298 244 C288 253 291 264 301 265 L312 266 C439 270 561 362 561 492 C561 634 436 730 264 730 L129 730 C114 730 106 722 106 707 L106 20 Z M184 342 L184 647 C184 656 190 662 199 662 L263 662 C395 662 482 594 482 492 C482 392 395 327 264 327 L199 327 C190 327 184 333 184 342 L184 342 Z " />
<glyph glyph-name="S" unicode="S" horiz-adv-x="622" d="M43 182 C83 61 185 -10 320 -10 C456 -10 567 70 567 188 C567 443 155 352 155 554 C155 623 219 670 312 670 C393 670 453 626 482 552 C486 541 493 535 504 535 L540 535 C554 535 562 544 558 558 C526 667 437 740 312 740 C174 740 77 663 77 554 C77 282 488 379 488 186 C488 114 417 60 320 60 C230 60 155 102 120 188 C116 198 108 204 97 204 L60 204 C45 204 38 195 43 182 L43 182 Z " />
<glyph glyph-name="T" unicode="T" horiz-adv-x="592" d="M34 658 L234 658 C247 658 254 650 254 638 L254 20 C254 7 261 0 274 0 L315 0 C328 0 335 7 335 20 L335 638 C335 650 342 658 355 658 L558 658 C571 658 578 665 578 678 L578 710 C578 723 571 730 558 730 L34 730 C21 730 14 723 14 710 L14 678 C14 665 21 658 34 658 L34 658 Z " />
<glyph glyph-name="U" unicode="U" horiz-adv-x="793" d="M94 306 C94 116 219 -10 396 -10 C581 -10 698 124 698 306 L698 710 C698 723 691 730 678 730 L639 730 C626 730 619 723 619 710 L619 302 C619 156 526 62 396 62 C260 62 174 163 174 302 L174 710 C174 723 167 730 154 730 L114 730 C102 730 94 723 94 710 L94 306 Z " />
<glyph glyph-name="V" unicode="V" horiz-adv-x="699" d="M18 707 L301 22 C306 7 317 0 333 0 L371 0 C387 0 399 7 405 22 L674 707 C680 721 673 730 658 730 L619 730 C608 730 601 725 597 714 L367 108 C362 93 349 92 344 108 L104 714 C100 725 92 730 81 730 L33 730 C19 730 13 721 18 707 L18 707 Z " />
<glyph glyph-name="W" unicode="W" horiz-adv-x="990" d="M28 708 L224 19 C228 6 236 0 249 0 L284 0 C298 0 306 5 310 19 L490 585 C495 602 508 602 513 585 L683 19 C686 7 695 0 709 0 L746 0 C759 0 768 7 771 19 L957 708 C961 722 955 730 940 730 L905 730 C893 730 886 723 883 712 L738 149 C734 130 720 130 715 148 L543 711 C540 723 531 730 518 730 L484 730 C471 730 462 725 458 711 L280 152 C275 135 261 135 257 153 L109 713 C106 725 98 730 86 730 L45 730 C31 730 25 722 28 708 L28 708 Z " />
<glyph glyph-name="X" unicode="X" horiz-adv-x="661" d="M36 0 L80 0 C90 0 98 4 104 12 L314 295 C322 306 333 306 341 294 L544 13 C550 4 558 0 568 0 L614 0 C629 0 635 10 626 24 L386 358 C380 367 380 376 386 385 L627 706 C636 720 631 730 615 730 L574 730 C564 730 556 727 550 718 L349 446 C341 435 330 435 322 447 L127 717 C121 726 113 730 103 730 L58 730 C42 730 36 720 46 706 L276 385 C282 377 283 368 276 358 L24 24 C14 11 19 0 36 0 L36 0 Z " />
<glyph glyph-name="Y" unicode="Y" horiz-adv-x="637" d="M24 706 L275 290 C279 282 281 274 281 266 L281 23 C281 9 290 0 304 0 L336 0 C350 0 359 9 359 23 L359 266 C359 274 361 282 365 290 L606 706 C614 720 608 730 592 730 L557 730 C547 730 539 726 533 716 L334 370 C327 357 316 357 308 370 L107 716 C102 726 94 730 84 730 L37 730 C21 730 16 720 24 706 L24 706 Z " />
<glyph glyph-name="Z" unicode="Z" horiz-adv-x="659" d="M43 0 L616 0 C629 0 636 7 636 20 L636 48 C636 61 629 68 616 68 L167 68 C149 68 142 80 153 95 L606 680 C613 688 615 695 615 706 L615 711 C615 723 607 730 594 730 L63 730 C50 730 43 723 43 710 L43 681 C43 669 50 661 63 661 L471 661 C489 661 496 649 484 634 L31 49 C24 41 22 34 22 24 L22 19 C22 7 30 0 43 0 L43 0 Z " />
<glyph glyph-name="bracketleft" unicode="&#x5b;" horiz-adv-x="324" d="M129 -106 L267 -106 C285 -106 295 -96 295 -79 L295 -66 C295 -48 285 -38 267 -38 L188 -38 C177 -38 171 -32 171 -21 L171 695 C171 706 177 712 188 712 L267 712 C285 712 295 722 295 740 L295 753 C295 770 285 780 267 780 L129 780 C111 780 100 769 100 752 L100 -78 C100 -95 111 -106 129 -106 L129 -106 Z " />
<glyph glyph-name="backslash" unicode="&#x5c;" horiz-adv-x="455" d="M411 13 L107 718 C103 728 95 733 83 733 L59 733 C43 733 38 724 43 710 L347 5 C351 -5 360 -10 371 -10 L396 -10 C411 -10 417 -1 411 13 L411 13 Z " />
<glyph glyph-name="bracketright" unicode="&#x5d;" horiz-adv-x="324" d="M58 -106 L196 -106 C213 -106 224 -95 224 -78 L224 752 C224 769 213 780 196 780 L58 780 C41 780 31 770 31 753 L31 740 C31 722 41 712 58 712 L136 712 C147 712 154 706 154 695 L154 -21 C154 -32 147 -38 136 -38 L58 -38 C41 -38 31 -48 31 -66 L31 -79 C31 -96 41 -106 58 -106 L58 -106 Z " />
<glyph glyph-name="asciicircum" unicode="&#x5e;" horiz-adv-x="482" d="M75 625 L77 621 C83 611 93 607 104 613 L217 668 C233 675 246 675 261 668 L377 613 C389 607 398 611 404 621 L406 625 C413 636 410 646 398 652 L263 732 C246 742 232 742 215 732 L83 652 C72 646 69 636 75 625 L75 625 Z " />
<glyph glyph-name="underscore" unicode="&#x5f;" horiz-adv-x="565" d="M490 0 L74 0 C57 0 47 -10 47 -27 L47 -34 C47 -51 57 -61 74 -61 L490 -61 C507 -61 517 -51 517 -34 L517 -27 C517 -10 507 0 490 0 L490 0 Z " />
<glyph glyph-name="grave" unicode="&#x60;" horiz-adv-x="600" d="M224 732 L210 704 C204 692 207 683 219 677 L395 597 C406 592 416 595 421 606 L425 613 C430 624 427 634 417 640 L251 740 C240 747 229 744 224 732 L224 732 Z " />
<glyph glyph-name="a" unicode="a" horiz-adv-x="579" d="M44 142 C44 52 119 -10 215 -10 C290 -10 351 17 401 50 C423 64 437 59 442 35 L445 17 C447 5 455 0 467 0 L478 0 C491 0 498 7 498 20 L498 309 C498 450 420 530 282 530 C168 530 84 469 67 377 C65 364 73 356 86 356 L117 356 C129 356 136 362 139 373 C151 425 205 465 279 465 C371 465 425 417 425 323 C425 299 413 290 393 290 L263 291 C126 291 44 229 44 142 L44 142 Z M118 143 C118 201 169 229 264 229 L393 229 C413 229 425 217 425 196 L425 159 C425 142 420 130 405 120 C355 86 295 56 230 56 C169 56 118 87 118 143 L118 143 Z " />
<glyph glyph-name="b" unicode="b" horiz-adv-x="659" d="M87 20 C87 7 94 0 107 0 L120 0 C132 0 138 7 141 18 L142 39 C147 65 161 68 181 50 C225 10 282 -10 353 -10 C495 -10 611 110 611 262 C611 412 494 530 354 530 C290 530 238 514 195 479 C172 460 158 464 158 494 L158 760 C158 773 151 780 138 780 L107 780 C94 780 87 773 87 760 L87 20 Z M161 193 L161 328 C161 343 163 355 172 368 C207 428 265 465 348 465 C447 465 535 377 535 262 C535 146 448 55 348 55 C265 55 209 92 172 153 C163 166 161 178 161 193 L161 193 Z " />
<glyph glyph-name="c" unicode="c" horiz-adv-x="598" d="M501 336 L533 336 C547 336 555 344 552 357 C533 446 443 530 315 530 C161 530 49 414 49 262 C49 109 161 -10 317 -10 C432 -10 528 58 550 154 C553 168 545 176 531 176 L498 176 C486 176 480 171 476 159 C457 94 394 55 315 55 C211 55 125 138 125 260 C125 379 208 465 317 465 C402 465 464 409 479 354 C483 341 489 336 501 336 L501 336 Z " />
<glyph glyph-name="d" unicode="d" horiz-adv-x="658" d="M49 262 C49 106 165 -10 313 -10 C380 -10 434 10 478 49 C498 67 511 63 516 38 L518 17 C521 5 528 0 540 0 L550 0 C563 0 570 7 570 20 L570 760 C570 773 563 780 550 780 L518 780 C505 780 498 773 498 760 L498 500 C498 473 485 466 462 483 C420 514 371 530 312 530 C166 530 49 414 49 262 L49 262 Z M125 262 C125 377 213 465 315 465 C392 465 449 429 485 374 C494 361 496 348 496 333 L496 188 C496 173 494 160 485 146 C448 90 392 55 315 55 C213 55 125 145 125 262 L125 262 Z " />
<glyph glyph-name="e" unicode="e" horiz-adv-x="594" d="M49 262 C49 107 158 -10 308 -10 C419 -10 503 54 530 138 C534 152 525 160 512 160 L482 160 C471 160 463 155 459 144 C438 88 382 55 308 55 C216 55 147 116 127 206 C123 228 136 242 158 242 L514 241 C533 241 546 254 546 271 C547 412 445 530 306 530 C161 530 49 415 49 262 L49 262 Z M137 341 C164 417 229 466 305 466 C387 466 445 411 464 340 C471 317 458 303 435 303 L165 304 C141 304 128 319 137 341 L137 341 Z " />
<glyph glyph-name="f" unicode="f" horiz-adv-x="389" d="M40 456 L124 456 C129 456 133 453 133 447 L133 14 C133 1 140 -6 153 -6 L188 -6 C200 -6 208 1 208 14 L208 447 C208 453 211 456 217 456 L356 456 C369 456 376 463 376 476 L376 500 C376 513 369 520 356 520 L217 520 C211 520 208 524 208 529 L208 627 C208 693 236 717 292 717 C317 717 337 713 357 708 C370 704 379 708 380 722 L384 747 C385 759 381 767 370 770 C342 779 312 784 281 784 C185 784 133 734 133 627 L133 529 C133 524 129 520 124 520 L40 520 C28 520 20 513 20 500 L20 476 C20 463 28 456 40 456 L40 456 Z " />
<glyph glyph-name="g" unicode="g" horiz-adv-x="658" d="M48 263 C48 110 164 -5 313 -5 C375 -5 425 12 466 47 C487 63 502 61 502 34 L502 21 C502 -79 421 -147 319 -147 C246 -147 184 -119 164 -73 C159 -62 152 -57 141 -57 L110 -57 C96 -57 88 -65 93 -79 C123 -159 209 -211 319 -211 C463 -211 571 -117 571 21 L571 500 C571 513 564 520 551 520 L538 520 C526 520 518 513 516 502 L515 481 C511 454 497 453 475 472 C433 510 378 530 311 530 C165 530 48 414 48 263 L48 263 Z M124 263 C124 377 212 465 316 465 C394 465 451 428 486 371 C495 358 497 346 497 331 L497 195 C497 180 495 167 486 153 C450 95 394 59 316 59 C212 59 124 149 124 263 L124 263 Z " />
<glyph glyph-name="h" unicode="h" horiz-adv-x="646" d="M107 0 L141 0 C154 0 161 7 161 20 L161 356 C161 374 168 386 183 396 C247 437 313 464 370 464 C446 464 491 420 491 336 L491 20 C491 7 498 0 511 0 L545 0 C558 0 565 7 565 20 L565 339 C565 464 498 530 385 530 C322 530 260 510 203 477 C170 457 158 467 158 494 L158 760 C158 773 150 780 138 780 L107 780 C94 780 87 773 87 760 L87 20 C87 7 94 0 107 0 L107 0 Z " />
<glyph glyph-name="i" unicode="i" horiz-adv-x="253" d="M129 636 C160 636 186 662 186 695 C186 725 160 750 129 750 C97 750 72 725 72 695 C72 662 97 636 129 636 L129 636 Z M144 520 L109 520 C96 520 89 513 89 500 L89 20 C89 7 96 0 109 0 L144 0 C156 0 164 7 164 20 L164 500 C164 513 156 520 144 520 L144 520 Z " />
<glyph glyph-name="j" unicode="j" horiz-adv-x="259" d="M133 636 C164 636 190 662 190 695 C190 725 164 750 133 750 C101 750 76 725 76 695 C76 662 101 636 133 636 L133 636 Z M46 -207 C120 -207 169 -154 169 -70 L169 500 C169 513 162 520 149 520 L115 520 C102 520 95 513 95 500 L95 -65 C95 -117 67 -141 28 -141 C15 -141 4 -139 -6 -137 C-19 -135 -26 -139 -28 -153 L-31 -177 C-32 -190 -28 -198 -16 -201 C3 -205 24 -207 46 -207 L46 -207 Z " />
<glyph glyph-name="k" unicode="k" horiz-adv-x="561" d="M107 0 L141 0 C154 0 161 7 161 20 L161 106 C161 122 165 135 177 147 L251 220 C266 236 283 235 297 217 L462 12 C468 4 475 0 486 0 L529 0 C546 0 551 12 541 25 L344 274 C332 291 333 306 347 320 L515 495 C527 508 521 520 504 520 L463 520 C452 520 445 518 438 510 L201 262 C176 235 161 239 161 277 L161 760 C161 773 154 780 141 780 L107 780 C94 780 87 773 87 760 L87 20 C87 7 94 0 107 0 L107 0 Z " />
<glyph glyph-name="l" unicode="l" horiz-adv-x="253" d="M144 780 L109 780 C96 780 89 773 89 760 L89 20 C89 7 96 0 109 0 L144 0 C156 0 164 7 164 20 L164 760 C164 773 156 780 144 780 L144 780 Z " />
<glyph glyph-name="m" unicode="m" horiz-adv-x="1049" d="M107 0 L141 0 C154 0 161 7 161 20 L161 358 C161 375 168 388 183 397 C246 437 312 464 370 464 C446 464 491 420 491 336 L491 20 C491 7 498 0 511 0 L545 0 C558 0 565 7 565 20 L565 339 C565 347 565 354 564 362 C564 376 569 387 586 398 C648 438 713 464 772 464 C849 464 893 419 893 336 L893 20 C893 7 900 0 913 0 L947 0 C960 0 967 7 967 20 L967 339 C967 464 901 530 791 530 C716 530 646 507 576 460 C556 447 543 449 528 469 C499 509 451 530 389 530 C319 530 253 509 187 468 C165 455 148 461 144 485 L143 502 C141 513 133 520 121 520 L107 520 C94 520 87 513 87 500 L87 20 C87 7 94 0 107 0 L107 0 Z " />
<glyph glyph-name="n" unicode="n" horiz-adv-x="652" d="M107 0 L141 0 C154 0 161 7 161 20 L161 356 C161 374 168 386 183 396 C247 437 314 464 373 464 C452 464 497 420 497 336 L497 20 C497 7 504 0 517 0 L552 0 C564 0 572 7 572 20 L572 339 C572 464 504 530 392 530 C321 530 255 510 188 468 C164 452 150 458 146 484 L144 502 C142 514 134 520 122 520 L107 520 C94 520 87 513 87 500 L87 20 C87 7 94 0 107 0 L107 0 Z " />
<glyph glyph-name="o" unicode="o" horiz-adv-x="641" d="M49 262 C49 111 162 -10 321 -10 C479 -10 592 111 592 262 C592 411 479 530 321 530 C162 530 49 411 49 262 L49 262 Z M123 260 C123 374 205 465 321 465 C436 465 517 374 517 260 C517 147 436 55 321 55 C205 55 123 147 123 260 L123 260 Z " />
<glyph glyph-name="p" unicode="p" horiz-adv-x="658" d="M107 -220 L136 -220 C149 -220 156 -213 156 -200 L156 27 C156 57 170 61 193 42 C234 8 286 -10 350 -10 C494 -10 610 110 610 262 C610 412 493 530 351 530 C284 530 228 510 184 472 C162 452 148 455 144 483 L144 501 C142 513 135 520 123 520 L107 520 C94 520 87 513 87 500 L87 -200 C87 -213 94 -220 107 -220 L107 -220 Z M161 190 L161 331 C161 346 163 358 172 371 C207 429 266 465 344 465 C445 465 534 377 534 262 C534 146 447 55 344 55 C265 55 209 91 172 150 C163 163 161 175 161 190 L161 190 Z " />
<glyph glyph-name="q" unicode="q" horiz-adv-x="658" d="M49 262 C49 106 165 -10 320 -10 C378 -10 426 8 467 43 C488 60 502 56 502 27 L502 -187 C502 -201 510 -207 522 -207 L551 -207 C564 -207 571 -200 571 -187 L571 500 C571 513 564 520 551 520 L539 520 C527 520 519 513 517 502 L517 481 C512 456 497 452 477 470 C434 509 381 530 318 530 C166 530 49 414 49 262 L49 262 Z M125 262 C125 377 213 465 323 465 C394 465 451 428 486 373 C495 360 497 347 497 332 L497 189 C497 174 495 162 486 148 C449 90 394 55 323 55 C213 55 125 145 125 262 L125 262 Z " />
<glyph glyph-name="r" unicode="r" horiz-adv-x="406" d="M107 0 L141 0 C154 0 161 7 161 20 L161 350 C161 367 167 380 181 391 C237 436 283 458 323 458 C337 458 351 457 362 454 C376 451 384 457 386 470 L390 502 C392 515 387 523 375 526 C363 528 351 530 337 530 C292 530 241 510 185 470 C164 455 148 460 144 484 L143 502 C141 513 134 520 122 520 L107 520 C94 520 87 513 87 500 L87 20 C87 7 94 0 107 0 L107 0 Z " />
<glyph glyph-name="s" unicode="s" horiz-adv-x="542" d="M66 390 C66 180 420 284 421 139 C422 80 364 51 280 51 C200 51 135 83 114 148 C110 160 102 165 91 165 L60 165 C47 165 39 157 42 143 C67 40 168 -10 278 -10 C401 -10 494 43 494 139 C494 347 139 245 139 390 C139 433 182 469 273 469 C363 469 400 428 412 376 C415 364 421 358 434 358 L463 358 C476 358 484 366 482 379 C467 462 403 530 275 530 C137 530 66 469 66 390 L66 390 Z " />
<glyph glyph-name="t" unicode="t" horiz-adv-x="410" d="M45 456 L96 456 C102 456 106 453 106 447 L106 143 C106 31 168 -10 248 -10 C294 -10 338 -1 376 13 C387 17 392 26 390 37 L387 61 C385 74 377 80 363 75 C332 64 297 56 259 56 C210 56 180 82 180 144 L180 447 C180 453 184 456 190 456 L369 456 C382 456 389 463 389 476 L389 500 C389 513 382 520 369 520 L190 520 C184 520 180 524 180 529 L180 645 C180 658 172 666 158 662 L125 653 C114 650 108 643 108 631 L108 529 C108 524 104 520 99 520 L45 520 C33 520 25 513 25 500 L25 476 C25 463 33 456 45 456 L45 456 Z " />
<glyph glyph-name="u" unicode="u" horiz-adv-x="632" d="M81 181 C81 56 148 -10 258 -10 C323 -10 383 10 447 47 C470 61 484 57 489 29 L489 18 C492 7 499 0 511 0 L526 0 C538 0 546 7 546 20 L546 500 C546 513 538 520 526 520 L491 520 C478 520 471 513 471 500 L471 155 C471 137 465 125 449 116 C388 79 328 56 277 56 C199 56 156 100 156 184 L156 500 C156 513 149 520 136 520 L101 520 C88 520 81 513 81 500 L81 181 Z " />
<glyph glyph-name="v" unicode="v" horiz-adv-x="563" d="M27 497 L233 20 C238 7 248 0 263 0 L300 0 C315 0 325 7 330 20 L536 497 C541 511 535 520 520 520 L482 520 C471 520 463 515 459 504 L295 91 C290 78 278 78 272 91 L110 504 C106 515 98 520 87 520 L43 520 C27 520 21 510 27 497 L27 497 Z " />
<glyph glyph-name="w" unicode="w" horiz-adv-x="808" d="M30 498 L176 21 C180 7 190 0 204 0 L237 0 C251 0 261 7 265 21 L395 398 C400 413 412 413 417 398 L540 21 C544 7 555 0 569 0 L604 0 C618 0 628 7 632 21 L779 498 C783 512 777 520 763 520 L730 520 C718 520 711 515 708 503 L598 115 C593 99 581 99 576 114 L448 501 C443 514 433 521 420 521 L391 521 C378 521 368 515 363 501 L234 118 C229 102 216 102 211 118 L102 503 C99 515 91 520 80 520 L47 520 C32 520 25 512 30 498 L30 498 Z " />
<glyph glyph-name="x" unicode="x" horiz-adv-x="536" d="M46 0 L85 0 C95 0 103 4 109 12 L255 204 C262 213 272 213 278 204 L427 12 C433 4 441 0 451 0 L494 0 C511 0 517 12 506 25 L323 252 C317 259 317 268 322 276 L490 496 C499 509 494 520 477 520 L441 520 C431 520 423 516 417 507 L282 325 C276 316 266 316 259 325 L119 508 C113 517 106 520 95 520 L54 520 C37 520 31 508 42 495 L214 280 C220 273 220 264 214 257 L34 24 C24 11 30 0 46 0 L46 0 Z " />
<glyph glyph-name="y" unicode="y" horiz-adv-x="553" d="M28 497 L229 14 C232 5 239 0 248 0 L256 0 L237 -44 C209 -111 180 -151 116 -151 C95 -151 73 -148 54 -143 C41 -140 33 -145 30 -158 L27 -177 C24 -189 30 -198 42 -201 C65 -208 91 -211 112 -211 C213 -211 258 -153 298 -58 L526 497 C532 511 525 520 511 520 L474 520 C462 520 455 515 451 504 L294 95 C288 78 275 79 269 95 L109 504 C104 515 97 520 86 520 L43 520 C29 520 22 511 28 497 L28 497 Z " />
<glyph glyph-name="z" unicode="z" horiz-adv-x="524" d="M30 23 L30 19 C31 7 39 0 51 0 L472 0 C485 0 492 7 492 20 L492 42 C492 55 485 62 472 62 L165 62 C150 62 146 72 155 83 L469 458 C475 465 478 472 478 482 L478 501 C478 513 471 520 459 520 L61 520 C48 520 41 513 41 500 L41 478 C41 465 48 458 61 458 L361 458 C375 458 379 448 370 437 L39 48 C33 40 30 34 30 23 L30 23 Z " />
<glyph glyph-name="braceleft" unicode="&#x7b;" horiz-adv-x="301" d="M176 430 L177 620 C177 677 190 707 239 712 C256 715 265 723 265 740 L265 751 C265 769 255 780 238 779 C148 773 103 726 103 636 L102 437 C102 391 86 378 67 373 C51 368 42 361 42 345 L42 329 C42 312 51 305 67 300 C86 296 102 284 102 242 L103 47 C104 -67 169 -98 238 -105 C255 -107 265 -96 265 -78 L265 -66 C265 -49 257 -41 240 -37 C206 -31 177 -6 177 63 L176 249 C176 308 150 330 127 336 C150 342 176 369 176 430 L176 430 Z " />
<glyph glyph-name="bar" unicode="&#x7c;" horiz-adv-x="263" d="M120 0 L143 -1 C156 -1 163 7 163 19 L163 709 C163 722 156 729 143 729 L120 730 C107 730 100 723 100 710 L100 20 C100 7 108 0 120 0 L120 0 Z " />
<glyph glyph-name="braceright" unicode="&#x7d;" horiz-adv-x="301" d="M123 620 L124 432 C124 372 152 342 177 336 C152 330 124 305 124 246 L123 63 C123 -6 95 -31 61 -37 C44 -41 36 -49 36 -66 L36 -78 C36 -96 46 -107 63 -105 C132 -98 197 -67 198 47 L199 240 C199 282 215 294 234 299 C250 304 259 311 259 327 L259 346 C259 362 250 370 234 375 C215 379 199 392 199 438 L198 636 C198 726 153 773 63 779 C46 780 36 769 36 751 L36 740 C36 723 45 716 62 713 C111 707 123 678 123 620 L123 620 Z " />
<glyph glyph-name="asciitilde" unicode="&#x7e;" horiz-adv-x="552" d="M461 319 L446 324 C434 327 427 322 420 312 C407 289 382 278 352 279 C296 280 247 329 178 330 C123 331 84 298 76 248 C74 236 81 228 92 225 L108 221 C120 217 127 222 133 233 C145 255 168 267 198 267 C250 266 291 219 365 218 C423 217 464 248 476 295 C479 307 473 316 461 319 L461 319 Z " />
<glyph glyph-name="uni00A0" unicode="&#xa0;" horiz-adv-x="270" d="" />
<glyph glyph-name="exclamdown" unicode="&#xa1;" horiz-adv-x="252" d="M181 519 C181 550 156 575 126 575 C96 575 72 550 72 519 C72 491 96 466 126 466 C156 466 181 491 181 519 L181 519 Z M144 -215 C157 -215 163 -209 163 -195 L154 371 C154 385 146 392 133 392 L119 392 C107 392 99 385 99 371 L90 -195 C90 -209 96 -215 109 -215 L144 -215 Z " />
<glyph glyph-name="cent" unicode="&#xa2;" horiz-adv-x="602" d="M50 302 C50 163 143 53 277 33 C285 32 289 27 289 19 L289 -50 C289 -63 296 -70 309 -70 L322 -70 C334 -70 342 -63 342 -50 L342 18 C342 26 346 31 354 32 C456 44 534 107 554 194 C557 208 548 216 535 216 L500 216 C488 216 482 211 477 198 C463 145 415 110 355 100 C347 99 342 104 342 113 L342 487 C342 496 347 501 356 500 C422 488 468 440 481 394 C485 381 490 376 502 376 L537 376 C550 376 558 384 555 397 C540 478 467 555 354 568 C346 569 342 574 342 582 L342 671 C342 685 334 691 322 691 L309 691 C296 691 289 684 289 671 L289 581 C289 573 284 569 276 567 C145 548 50 440 50 302 L50 302 Z M128 300 C128 402 190 479 276 498 C284 500 289 494 289 486 L289 114 C289 106 284 100 274 102 C190 121 128 196 128 300 L128 300 Z " />
<glyph glyph-name="sterling" unicode="&#xa3;" horiz-adv-x="662" d="M45 256 C45 243 53 236 66 236 L154 236 C156 189 142 139 77 64 C66 51 65 39 72 26 L80 12 C87 -2 99 -6 114 0 C132 6 153 12 180 13 C292 14 335 -23 446 -23 C565 -23 615 39 611 105 C610 117 602 123 590 123 L573 123 C561 123 555 117 552 105 C544 69 507 46 439 46 C344 46 293 77 202 82 C194 82 187 83 180 82 C171 83 169 88 175 95 C218 151 229 193 226 236 L460 236 C472 236 480 243 480 256 L480 266 C480 279 472 286 460 286 L219 286 C211 327 197 370 197 424 C197 516 262 578 359 578 C433 578 493 532 518 464 C522 453 529 447 540 447 L578 447 C591 447 599 455 596 469 C571 573 484 647 359 647 C215 647 119 559 119 426 C119 369 135 327 146 286 L66 286 C53 286 45 279 45 266 L45 256 Z " />
<glyph glyph-name="currency" unicode="&#xa4;" horiz-adv-x="659" d="M79 309 C79 245 100 187 137 145 L81 96 C72 87 71 78 79 68 L87 58 C95 49 105 47 115 56 L179 109 C221 78 276 61 333 61 C387 61 440 77 482 105 L541 56 C551 47 561 49 569 58 L577 68 C585 78 585 87 575 96 L523 139 C564 183 587 241 587 309 C587 375 564 432 525 473 L575 516 C584 525 585 534 576 544 L567 554 C559 564 550 565 539 556 L482 508 C439 536 387 551 333 551 C276 551 221 534 178 504 L115 557 C105 565 95 564 87 554 L79 544 C71 533 71 525 81 516 L137 469 C100 428 79 373 79 309 L79 309 Z M155 308 C155 412 229 487 333 487 C437 487 511 412 511 308 C511 202 437 125 333 125 C229 125 155 202 155 308 L155 308 Z " />
<glyph glyph-name="yen" unicode="&#xa5;" horiz-adv-x="625" d="M60 606 L244 314 C248 306 245 301 237 301 L105 301 C93 301 85 294 85 281 L85 277 C85 264 93 257 105 257 L258 257 C272 257 280 249 280 235 L280 204 C280 195 275 189 265 189 L132 189 C119 189 112 182 112 169 L112 164 C112 151 119 144 132 144 L265 144 C275 144 280 138 280 129 L280 20 C280 7 288 0 300 0 L337 0 C350 0 357 7 357 20 L357 129 C357 138 363 144 372 144 L488 144 C501 144 508 151 508 164 L508 169 C508 182 501 189 488 189 L372 189 C363 189 357 195 357 204 L357 235 C357 249 365 257 379 257 L515 257 C527 257 535 264 535 277 L535 281 C535 294 527 301 515 301 L400 301 C392 301 387 306 392 314 L568 606 C576 621 570 631 554 631 L518 631 C508 631 499 626 494 616 L327 324 C323 316 316 316 311 324 L139 617 C133 627 125 631 115 631 L73 631 C57 631 52 620 60 606 L60 606 Z " />
<glyph glyph-name="brokenbar" unicode="&#xa6;" horiz-adv-x="263" d="M120 429 L143 429 C156 429 163 436 163 449 L163 710 C163 723 156 730 143 730 L120 730 C107 730 100 723 100 710 L100 449 C100 436 107 429 120 429 L120 429 Z M143 303 L120 303 C107 303 100 296 100 283 L100 20 C100 7 108 0 120 0 L143 0 C156 0 163 7 163 20 L163 283 C163 296 156 303 143 303 L143 303 Z " />
<glyph glyph-name="section" unicode="&#xa7;" horiz-adv-x="631" d="M78 546 C78 283 464 393 482 242 C482 234 488 229 499 228 L536 221 C550 219 559 226 557 240 C536 478 155 351 155 546 C155 616 213 670 318 670 C398 670 459 626 488 552 C492 541 499 535 510 535 L546 535 C560 535 568 544 564 558 C532 667 443 740 318 740 C162 740 78 654 78 546 L78 546 Z M50 1 C91 -119 186 -190 322 -190 C468 -190 572 -113 572 2 C572 265 179 139 152 302 C150 313 145 320 134 322 L96 329 C83 332 74 325 74 310 C96 47 492 204 492 1 C492 -72 420 -120 322 -120 C232 -120 161 -75 128 8 C124 19 116 24 105 24 L67 24 C53 24 46 15 50 1 L50 1 Z " />
<glyph glyph-name="dieresis" unicode="&#xa8;" horiz-adv-x="600" d="M106 630 C133 630 157 653 157 682 C157 709 133 731 106 731 C78 731 56 709 56 682 C56 653 78 630 106 630 L106 630 Z M284 630 C312 630 335 653 335 682 C335 709 312 731 284 731 C256 731 233 709 233 682 C233 653 256 630 284 630 L284 630 Z " />
<glyph glyph-name="copyright" unicode="&#xa9;" horiz-adv-x="911" d="M456 -62 C679 -62 860 120 860 343 C860 565 678 747 456 747 C233 747 51 566 51 343 C51 120 233 -62 456 -62 L456 -62 Z M456 -1 C266 -1 113 153 113 343 C113 532 267 686 456 686 C645 686 798 532 798 343 C798 154 645 -1 456 -1 L456 -1 Z M614 410 L641 410 C655 410 663 418 659 432 C643 501 569 571 460 571 C333 571 239 473 239 349 C239 222 333 123 462 123 C561 123 640 180 662 256 C666 270 658 278 644 278 L616 278 C605 278 598 273 593 261 C575 210 525 179 460 179 C374 179 309 248 309 347 C309 443 373 512 461 512 C529 512 578 471 592 427 C596 416 602 410 614 410 L614 410 Z " />
<glyph glyph-name="ordfeminine" unicode="&#xaa;" horiz-adv-x="464" d="M49 574 C49 474 123 403 213 403 C260 403 299 419 327 445 C334 452 339 450 341 441 L342 427 C344 416 351 409 364 409 L368 409 C380 409 387 417 387 429 L387 715 C387 728 380 735 367 735 L362 735 C350 735 343 729 341 717 L340 702 C339 693 333 690 325 697 C296 726 257 740 212 740 C122 740 49 673 49 574 L49 574 Z M113 574 C113 641 159 683 219 683 C263 683 301 665 321 625 C327 614 328 604 328 592 L328 548 C328 536 327 526 320 515 C299 480 264 459 219 459 C159 459 113 507 113 574 L113 574 Z " />
<glyph glyph-name="guillemotleft" unicode="&#xab;" horiz-adv-x="528" d="M123 289 L229 377 C241 387 245 396 245 410 L245 427 C245 450 229 457 212 442 L64 318 C53 308 49 298 49 284 L49 259 C49 245 53 236 64 226 L212 105 C229 90 245 97 245 120 L245 139 C245 153 241 162 229 171 L123 257 C111 268 111 278 123 289 L123 289 Z M333 289 L439 377 C451 387 455 396 455 410 L455 427 C455 450 439 457 422 442 L274 318 C263 308 259 298 259 284 L259 259 C259 245 263 236 274 226 L422 105 C439 90 455 97 455 120 L455 139 C455 153 451 162 439 171 L333 257 C321 268 321 278 333 289 L333 289 Z " />
<glyph glyph-name="registered" unicode="&#xae;" horiz-adv-x="911" d="M51 343 C51 120 233 -62 456 -62 C679 -62 860 120 860 343 C860 565 678 747 456 747 C233 747 51 566 51 343 L51 343 Z M113 343 C113 532 267 686 456 686 C645 686 798 532 798 343 C798 154 645 -1 456 -1 C266 -1 113 153 113 343 L113 343 Z M343 126 L366 126 C379 126 386 133 386 146 L386 295 L394 295 L540 137 C546 129 554 126 564 126 L599 125 C617 125 621 137 610 150 L483 283 C474 292 477 300 489 303 C573 319 628 371 628 444 C628 535 546 597 429 597 L345 597 C332 597 323 589 323 575 L323 146 C323 133 331 126 343 126 L343 126 Z M386 365 L386 527 C386 538 392 544 403 544 L427 544 C509 544 565 507 565 444 C565 382 509 348 428 348 L403 348 C392 348 386 354 386 365 L386 365 Z " />
<glyph glyph-name="macron" unicode="&#xaf;" horiz-adv-x="600" d="M171 674 L171 652 C171 639 179 632 191 632 L435 632 C447 632 455 639 455 652 L455 674 C455 687 447 694 435 694 L191 694 C179 694 171 687 171 674 L171 674 Z " />
<glyph glyph-name="degree" unicode="&#xb0;" horiz-adv-x="431" d="M216 406 C307 406 382 481 382 574 C382 665 307 740 216 740 C123 740 48 666 48 574 C48 481 123 406 216 406 L216 406 Z M216 454 C150 454 97 506 97 574 C97 639 150 693 216 693 C282 693 334 639 334 574 C334 506 282 454 216 454 L216 454 Z " />
<glyph glyph-name="plusminus" unicode="&#xb1;" horiz-adv-x="534" d="M66 331 C66 318 74 311 86 311 L217 311 C229 311 236 305 236 292 L236 162 C236 149 244 142 256 142 L279 142 C292 142 299 150 299 162 L299 292 C299 304 306 311 318 311 L447 311 C460 311 467 318 467 331 L467 354 C467 367 460 374 447 374 L318 374 C306 374 299 381 299 393 L299 522 C299 535 292 542 279 542 L255 542 C242 542 235 536 235 522 L235 393 C235 381 228 374 217 374 L86 374 C74 374 66 367 66 354 L66 331 Z M448 62 L87 62 C74 62 67 55 67 42 L67 19 C67 6 74 -1 87 -1 L448 -1 C460 -1 468 6 468 19 L468 42 C468 55 460 62 448 62 L448 62 Z " />
<glyph glyph-name="acute" unicode="&#xb4;" horiz-adv-x="600" d="M376 730 L215 634 C204 627 202 618 208 607 L211 601 C217 590 227 588 238 593 L409 668 C422 674 424 683 418 695 L403 723 C398 734 387 738 376 730 L376 730 Z " />
<glyph glyph-name="paragraph" unicode="&#xb6;" horiz-adv-x="752" d="M38 500 C38 359 135 259 317 259 L355 259 C370 259 378 251 378 237 L378 14 C378 1 385 -6 398 -6 L423 -6 C436 -6 443 1 443 14 L443 643 C443 657 452 666 466 666 L526 666 C540 666 549 657 549 643 L549 14 C549 1 556 -6 569 -6 L597 -6 C610 -6 618 1 618 14 L618 643 C618 657 626 666 640 666 L693 666 C705 666 713 673 713 686 L713 710 C713 723 705 730 693 730 L317 730 C135 730 38 635 38 500 L38 500 Z " />
<glyph glyph-name="periodcentered" unicode="&#xb7;" horiz-adv-x="244" d="M122 257 C151 257 176 282 176 313 C176 341 151 366 122 366 C92 366 68 341 68 313 C68 282 92 257 122 257 L122 257 Z " />
<glyph glyph-name="cedilla" unicode="&#xb8;" horiz-adv-x="600" d="M262 -85 L272 -85 C307 -85 328 -101 328 -129 C328 -157 305 -173 271 -173 C250 -173 231 -168 214 -159 C203 -155 194 -155 189 -166 L187 -172 C182 -181 182 -191 192 -197 C214 -211 241 -220 275 -220 C341 -220 390 -185 390 -128 C390 -81 358 -54 316 -46 C305 -44 301 -40 304 -29 L312 3 L259 3 L242 -60 C239 -75 247 -85 262 -85 L262 -85 Z " />
<glyph glyph-name="ordmasculine" unicode="&#xba;" horiz-adv-x="451" d="M225 740 C122 740 49 671 49 572 C49 471 122 402 225 402 C330 402 402 471 402 572 C402 671 330 740 225 740 L225 740 Z M225 458 C158 458 115 506 115 571 C115 636 158 682 225 682 C292 682 335 636 335 571 C335 506 292 458 225 458 L225 458 Z " />
<glyph glyph-name="guillemotright" unicode="&#xbb;" horiz-adv-x="540" d="M194 289 C206 278 206 268 194 257 L88 171 C76 162 72 153 72 139 L72 120 C72 97 88 90 105 105 L253 226 C264 236 268 245 268 259 L268 284 C268 298 264 308 253 318 L105 442 C88 457 72 450 72 427 L72 410 C72 396 76 387 88 377 L194 289 Z M417 289 C429 278 429 268 417 257 L311 171 C299 162 295 153 295 139 L295 120 C295 97 311 90 328 105 L476 226 C487 236 491 245 491 259 L491 284 C491 298 487 308 476 318 L328 442 C311 457 295 450 295 427 L295 410 C295 396 299 387 311 377 L417 289 Z " />
<glyph glyph-name="onequarter" unicode="&#xbc;" horiz-adv-x="896" d="M78 377 L314 377 C326 377 334 384 334 397 L334 411 C334 424 326 431 314 431 L241 431 C233 431 228 436 228 444 L228 710 C228 723 222 730 210 730 L205 730 C197 730 191 726 183 719 C144 687 108 672 79 666 C66 663 60 657 60 645 L60 629 C60 615 68 607 81 610 C101 613 127 620 151 635 C158 639 163 635 163 627 L163 444 C163 435 158 431 151 431 L78 431 C65 431 58 424 58 411 L58 397 C58 384 65 377 78 377 L78 377 Z M198 99 L217 83 C227 74 237 75 245 84 L689 566 C698 576 697 586 687 595 L668 609 C659 617 648 616 640 607 L195 127 C187 118 188 107 198 99 L198 99 Z M545 79 L709 79 C716 79 720 74 720 68 L720 20 C720 7 728 0 740 0 L762 0 C775 0 782 7 782 20 L782 68 C782 74 787 79 793 79 L844 79 C856 79 864 86 864 99 L864 112 C864 125 856 132 844 132 L793 132 C787 132 782 136 782 143 L782 214 C782 227 775 234 762 234 L740 234 C728 234 720 227 720 214 L720 143 C720 136 716 132 709 132 L625 132 C616 132 613 138 619 146 C670 213 698 269 704 340 C706 354 698 361 685 361 L657 361 C645 361 638 354 636 342 C629 262 597 201 534 126 C527 118 525 110 525 100 L525 97 C525 85 532 79 545 79 L545 79 Z " />
<glyph glyph-name="onehalf" unicode="&#xbd;" horiz-adv-x="856" d="M52 397 C52 384 59 377 72 377 L307 377 C319 377 327 384 327 397 L327 411 C327 424 319 431 307 431 L242 431 C231 431 225 437 225 448 L225 710 C225 723 217 730 204 730 L203 730 C194 730 186 728 178 720 C138 687 102 672 72 666 C59 663 54 657 54 645 L54 626 C54 613 62 605 74 607 C96 610 122 617 147 634 C155 638 160 635 160 627 L160 448 C160 437 154 431 143 431 L72 431 C59 431 52 424 52 411 L52 397 Z M190 127 C181 117 182 108 191 99 L210 80 C220 71 230 72 238 82 L683 563 C692 573 691 583 681 592 L663 608 C653 616 644 616 635 606 L190 127 Z M537 19 L537 15 C537 6 544 0 557 0 L799 0 C812 0 819 7 819 20 L819 35 C819 48 812 55 799 55 L657 55 C646 55 643 62 651 70 L718 129 C777 182 807 210 807 262 C807 320 756 363 677 363 C604 363 555 322 542 262 C538 248 546 240 560 240 L578 240 C590 240 596 245 600 257 C610 291 637 311 677 311 C718 311 751 292 751 256 C751 223 726 203 676 157 L547 39 C541 32 537 27 537 19 L537 19 Z " />
<glyph glyph-name="threequarters" unicode="&#xbe;" horiz-adv-x="875" d="M52 453 C65 395 117 356 199 356 C283 356 347 398 347 463 C347 507 324 535 288 549 C281 552 280 556 287 561 C314 578 331 606 332 638 C332 693 286 740 198 740 C127 740 78 701 63 643 C59 629 68 621 82 621 L98 621 C110 621 115 627 120 638 C131 670 159 690 198 690 C245 690 273 668 272 634 C271 597 243 574 199 574 L167 574 C155 574 147 566 147 554 L147 545 C147 533 155 525 167 525 L199 525 C252 525 287 506 288 469 C289 427 251 406 199 406 C151 406 120 426 109 458 C104 469 98 475 87 475 L70 475 C56 475 48 467 52 453 L52 453 Z M188 104 L209 83 C219 74 228 75 237 85 L682 566 C690 576 689 587 680 595 L660 613 C651 621 641 621 632 611 L187 132 C179 122 179 113 188 104 L188 104 Z M522 79 L689 79 C695 79 700 74 700 68 L700 20 C700 7 707 0 720 0 L742 0 C754 0 762 7 762 20 L762 68 C762 74 766 79 773 79 L823 79 C835 79 843 86 843 99 L843 109 C843 122 835 129 823 129 L773 129 C766 129 762 134 762 140 L762 214 C762 227 754 234 742 234 L720 234 C707 234 700 227 700 214 L700 140 C700 134 695 129 689 129 L600 129 C592 129 589 136 594 143 C646 212 675 268 682 340 C683 354 676 361 663 361 L636 361 C624 361 617 354 615 342 C608 262 574 201 511 126 C504 118 502 110 502 100 L502 97 C502 85 509 79 522 79 L522 79 Z " />
<glyph glyph-name="questiondown" unicode="&#xbf;" horiz-adv-x="555" d="M354 476 C354 507 330 532 299 532 C270 532 245 507 245 476 C245 448 270 423 299 423 C330 423 354 448 354 476 L354 476 Z M503 -13 L471 -13 C460 -13 452 -19 448 -30 C420 -104 359 -148 278 -148 C186 -148 122 -90 122 2 C122 95 189 161 302 182 C324 186 335 198 334 221 L328 336 C328 348 320 355 308 355 L292 355 C280 355 272 348 271 336 L268 263 C267 248 259 239 244 234 C130 205 44 122 44 2 C44 -135 141 -218 278 -218 C404 -218 489 -145 521 -36 C525 -22 517 -13 503 -13 L503 -13 Z " />
<glyph glyph-name="Agrave" unicode="&#xc0;" horiz-adv-x="711" d="M232 894 L224 864 C221 851 226 843 239 839 L427 798 C439 795 448 800 451 812 L453 820 C456 832 451 841 440 844 L257 908 C245 912 235 907 232 894 L232 894 Z M35 0 L74 0 C85 0 93 5 97 16 L159 169 C162 176 167 179 175 179 L532 179 C540 179 545 176 548 169 L606 16 C611 5 619 0 630 0 L671 0 C685 0 691 9 686 23 L410 714 C406 724 398 730 387 730 L327 730 C316 730 308 724 304 714 L20 23 C14 10 22 0 35 0 L35 0 Z M198 268 L348 638 C352 649 362 649 366 638 L509 268 C513 259 508 252 499 252 L209 252 C199 252 194 259 198 268 L198 268 Z " />
<glyph glyph-name="Aacute" unicode="&#xc1;" horiz-adv-x="711" d="M443 906 L264 851 C252 847 248 838 251 826 L252 820 C256 808 265 803 277 805 L460 838 C474 841 479 849 476 862 L468 893 C465 904 456 911 443 906 L443 906 Z M35 0 L74 0 C85 0 93 5 97 16 L159 169 C162 176 167 179 175 179 L532 179 C540 179 545 176 548 169 L606 16 C611 5 619 0 630 0 L671 0 C685 0 691 9 686 23 L410 714 C406 724 398 730 387 730 L327 730 C316 730 308 724 304 714 L20 23 C14 10 22 0 35 0 L35 0 Z M198 268 L348 638 C352 649 362 649 366 638 L509 268 C513 259 508 252 499 252 L209 252 C199 252 194 259 198 268 L198 268 Z " />
<glyph glyph-name="Acircumflex" unicode="&#xc2;" horiz-adv-x="711" d="M203 827 L209 813 C213 804 221 802 230 805 L339 847 C353 852 365 852 379 847 L491 805 C500 801 508 804 512 813 L518 827 C523 836 520 844 511 849 L379 917 C365 924 353 924 339 917 L209 849 C200 844 199 836 203 827 L203 827 Z M35 0 L74 0 C85 0 93 5 97 16 L159 169 C162 176 167 179 175 179 L532 179 C540 179 545 176 548 169 L606 16 C611 5 619 0 630 0 L671 0 C685 0 691 9 686 23 L410 714 C406 724 398 730 387 730 L327 730 C316 730 308 724 304 714 L20 23 C14 10 22 0 35 0 L35 0 Z M198 268 L348 638 C352 649 362 649 366 638 L509 268 C513 259 508 252 499 252 L209 252 C199 252 194 259 198 268 L198 268 Z " />
<glyph glyph-name="Atilde" unicode="&#xc3;" horiz-adv-x="711" d="M507 884 L495 886 C483 889 477 884 470 874 C460 856 445 851 425 851 C385 851 341 898 286 898 C244 898 211 879 199 833 C196 820 203 811 215 808 L228 805 C239 803 247 807 254 818 C263 833 277 840 298 840 C338 839 371 794 432 794 C478 794 511 817 523 861 C527 873 519 882 507 884 L507 884 Z M35 0 L74 0 C85 0 93 5 97 16 L159 169 C162 176 167 179 175 179 L532 179 C540 179 545 176 548 169 L606 16 C611 5 619 0 630 0 L671 0 C685 0 691 9 686 23 L410 714 C406 724 398 730 387 730 L327 730 C316 730 308 724 304 714 L20 23 C14 10 22 0 35 0 L35 0 Z M198 268 L348 638 C352 649 362 649 366 638 L509 268 C513 259 508 252 499 252 L209 252 C199 252 194 259 198 268 L198 268 Z " />
<glyph glyph-name="Adieresis" unicode="&#xc4;" horiz-adv-x="711" d="M262 796 C290 796 315 819 315 849 C315 877 290 900 262 900 C233 900 210 877 210 849 C210 819 233 796 262 796 L262 796 Z M446 796 C475 796 499 819 499 849 C499 877 475 900 446 900 C417 900 393 877 393 849 C393 819 417 796 446 796 L446 796 Z M35 0 L74 0 C85 0 93 5 97 16 L159 169 C162 176 167 179 175 179 L532 179 C540 179 545 176 548 169 L606 16 C611 5 619 0 630 0 L671 0 C685 0 691 9 686 23 L410 714 C406 724 398 730 387 730 L327 730 C316 730 308 724 304 714 L20 23 C14 10 22 0 35 0 L35 0 Z M198 268 L348 638 C352 649 362 649 366 638 L509 268 C513 259 508 252 499 252 L209 252 C199 252 194 259 198 268 L198 268 Z " />
<glyph glyph-name="Aring" unicode="&#xc5;" horiz-adv-x="711" d="M358 769 C424 769 468 814 468 871 C468 926 424 972 358 972 C294 972 249 926 249 871 C249 814 294 769 358 769 L358 769 Z M358 819 C328 819 306 842 306 871 C306 900 328 924 358 924 C389 924 412 900 412 871 C412 842 389 819 358 819 L358 819 Z M35 0 L74 0 C85 0 93 5 97 16 L159 169 C162 176 167 179 175 179 L532 179 C540 179 545 176 548 169 L606 16 C611 5 619 0 630 0 L671 0 C685 0 691 9 686 23 L410 714 C406 724 398 730 387 730 L327 730 C316 730 308 724 304 714 L20 23 C14 10 22 0 35 0 L35 0 Z M198 268 L348 638 C352 649 362 649 366 638 L509 268 C513 259 508 252 499 252 L209 252 C199 252 194 259 198 268 L198 268 Z " />
<glyph glyph-name="AE" unicode="&#xc6;" horiz-adv-x="963" d="M9 0 L47 0 C58 0 66 5 72 14 L173 172 C177 179 183 182 191 182 L478 182 C487 182 493 176 493 166 L493 21 C493 8 501 0 514 0 L876 0 C889 0 896 7 896 20 L896 48 C896 61 889 68 876 68 L586 68 C576 68 570 74 570 83 L570 316 C570 325 576 331 586 331 L885 331 C898 331 905 338 905 351 L905 378 C905 391 898 398 885 398 L586 398 C576 398 570 404 570 413 L570 648 C570 657 576 663 586 663 L862 663 C875 663 882 670 882 683 L882 710 C882 723 875 730 862 730 L465 730 C453 730 445 726 438 715 L-5 24 C-13 10 -7 0 9 0 L9 0 Z M236 273 L475 646 C482 659 493 655 493 640 L493 270 C493 260 487 255 478 255 L246 255 C234 255 230 263 236 273 L236 273 Z " />
<glyph glyph-name="Ccedilla" unicode="&#xc7;" horiz-adv-x="827" d="M758 253 L719 253 C708 253 700 248 696 237 C660 128 558 62 431 62 C272 62 132 183 132 366 C132 548 272 668 431 668 C575 668 672 581 695 462 C698 450 705 444 717 444 L756 444 C770 444 777 452 775 465 C751 612 621 740 431 740 C228 740 53 589 53 366 C53 157 207 10 392 -8 L378 -60 C375 -75 383 -85 398 -85 L408 -85 C443 -85 464 -101 464 -129 C464 -157 441 -173 407 -173 C386 -173 367 -168 350 -159 C339 -155 330 -155 325 -166 L323 -172 C318 -181 318 -191 328 -197 C350 -211 377 -220 411 -220 C477 -220 526 -185 526 -128 C526 -81 494 -54 452 -46 C441 -44 437 -40 440 -29 L445 -10 C609 -4 737 96 775 231 C779 245 772 253 758 253 L758 253 Z " />
<glyph glyph-name="Egrave" unicode="&#xc8;" horiz-adv-x="567" d="M182 894 L174 864 C171 851 176 843 189 839 L377 798 C389 795 398 800 401 812 L403 820 C406 832 401 841 390 844 L207 908 C195 912 185 907 182 894 L182 894 Z M129 0 L490 0 C503 0 510 7 510 20 L510 48 C510 61 503 68 490 68 L198 68 C189 68 183 74 183 83 L183 314 C183 323 189 329 198 329 L467 329 C479 329 487 336 487 349 L487 377 C487 389 479 397 467 397 L198 397 C189 397 183 403 183 412 L183 648 C183 657 189 663 198 663 L488 663 C500 663 508 670 508 683 L508 710 C508 723 500 730 488 730 L129 730 C114 730 106 722 106 707 L106 23 C106 8 114 0 129 0 L129 0 Z " />
<glyph glyph-name="Eacute" unicode="&#xc9;" horiz-adv-x="567" d="M393 906 L214 851 C202 847 198 838 201 826 L202 820 C206 808 215 803 227 805 L410 838 C424 841 429 849 426 862 L418 893 C415 904 406 911 393 906 L393 906 Z M129 0 L490 0 C503 0 510 7 510 20 L510 48 C510 61 503 68 490 68 L198 68 C189 68 183 74 183 83 L183 314 C183 323 189 329 198 329 L467 329 C479 329 487 336 487 349 L487 377 C487 389 479 397 467 397 L198 397 C189 397 183 403 183 412 L183 648 C183 657 189 663 198 663 L488 663 C500 663 508 670 508 683 L508 710 C508 723 500 730 488 730 L129 730 C114 730 106 722 106 707 L106 23 C106 8 114 0 129 0 L129 0 Z " />
<glyph glyph-name="Ecircumflex" unicode="&#xca;" horiz-adv-x="567" d="M153 827 L159 813 C163 804 171 802 180 805 L289 847 C303 852 315 852 329 847 L441 805 C450 801 458 804 462 813 L468 827 C473 836 470 844 461 849 L329 917 C315 924 303 924 289 917 L159 849 C150 844 149 836 153 827 L153 827 Z M129 0 L490 0 C503 0 510 7 510 20 L510 48 C510 61 503 68 490 68 L198 68 C189 68 183 74 183 83 L183 314 C183 323 189 329 198 329 L467 329 C479 329 487 336 487 349 L487 377 C487 389 479 397 467 397 L198 397 C189 397 183 403 183 412 L183 648 C183 657 189 663 198 663 L488 663 C500 663 508 670 508 683 L508 710 C508 723 500 730 488 730 L129 730 C114 730 106 722 106 707 L106 23 C106 8 114 0 129 0 L129 0 Z " />
<glyph glyph-name="Edieresis" unicode="&#xcb;" horiz-adv-x="567" d="M212 796 C240 796 265 819 265 849 C265 877 240 900 212 900 C183 900 160 877 160 849 C160 819 183 796 212 796 L212 796 Z M396 796 C425 796 449 819 449 849 C449 877 425 900 396 900 C367 900 343 877 343 849 C343 819 367 796 396 796 L396 796 Z M129 0 L490 0 C503 0 510 7 510 20 L510 48 C510 61 503 68 490 68 L198 68 C189 68 183 74 183 83 L183 314 C183 323 189 329 198 329 L467 329 C479 329 487 336 487 349 L487 377 C487 389 479 397 467 397 L198 397 C189 397 183 403 183 412 L183 648 C183 657 189 663 198 663 L488 663 C500 663 508 670 508 683 L508 710 C508 723 500 730 488 730 L129 730 C114 730 106 722 106 707 L106 23 C106 8 114 0 129 0 L129 0 Z " />
<glyph glyph-name="Igrave" unicode="&#xcc;" horiz-adv-x="291" d="M18 894 L10 864 C7 851 12 843 25 839 L213 798 C225 795 234 800 237 812 L239 820 C242 832 237 841 226 844 L43 908 C31 912 21 907 18 894 L18 894 Z M164 730 L126 730 C113 730 106 723 106 710 L106 20 C106 7 113 0 126 0 L164 0 C177 0 184 7 184 20 L184 710 C184 723 177 730 164 730 L164 730 Z " />
<glyph glyph-name="Iacute" unicode="&#xcd;" horiz-adv-x="291" d="M229 906 L50 851 C38 847 34 838 37 826 L38 820 C42 808 51 803 63 805 L246 838 C260 841 265 849 262 862 L254 893 C251 904 242 911 229 906 L229 906 Z M164 730 L126 730 C113 730 106 723 106 710 L106 20 C106 7 113 0 126 0 L164 0 C177 0 184 7 184 20 L184 710 C184 723 177 730 164 730 L164 730 Z " />
<glyph glyph-name="Icircumflex" unicode="&#xce;" horiz-adv-x="291" d="M-11 827 L-5 813 C-1 804 7 802 16 805 L125 847 C139 852 151 852 165 847 L277 805 C286 801 294 804 298 813 L304 827 C309 836 306 844 297 849 L165 917 C151 924 139 924 125 917 L-5 849 C-14 844 -15 836 -11 827 L-11 827 Z M164 730 L126 730 C113 730 106 723 106 710 L106 20 C106 7 113 0 126 0 L164 0 C177 0 184 7 184 20 L184 710 C184 723 177 730 164 730 L164 730 Z " />
<glyph glyph-name="Idieresis" unicode="&#xcf;" horiz-adv-x="291" d="M48 796 C76 796 101 819 101 849 C101 877 76 900 48 900 C19 900 -4 877 -4 849 C-4 819 19 796 48 796 L48 796 Z M232 796 C261 796 285 819 285 849 C285 877 261 900 232 900 C203 900 179 877 179 849 C179 819 203 796 232 796 L232 796 Z M164 730 L126 730 C113 730 106 723 106 710 L106 20 C106 7 113 0 126 0 L164 0 C177 0 184 7 184 20 L184 710 C184 723 177 730 164 730 L164 730 Z " />
<glyph glyph-name="Eth" unicode="&#xd0;" horiz-adv-x="801" d="M374 730 L129 730 C114 730 106 722 106 707 L106 398 L46 398 C33 398 26 390 26 378 L26 358 C26 345 33 338 46 338 L106 338 L106 23 C106 8 114 0 129 0 L374 0 C582 0 747 147 747 365 C747 581 583 730 374 730 L374 730 Z M374 67 L199 67 C190 67 184 73 184 82 L184 338 L337 338 C350 338 357 345 357 358 L357 378 C357 390 350 398 337 398 L184 398 L184 648 C184 658 190 663 199 663 L374 663 C529 663 667 555 667 365 C667 176 529 67 374 67 L374 67 Z " />
<glyph glyph-name="Ntilde" unicode="&#xd1;" horiz-adv-x="828" d="M564 884 L552 886 C540 889 534 884 527 874 C517 856 502 851 482 851 C442 851 398 898 343 898 C301 898 268 879 256 833 C253 820 260 811 272 808 L285 805 C296 803 304 807 311 818 C320 833 334 840 355 840 C395 839 428 794 489 794 C535 794 568 817 580 861 C584 873 576 882 564 884 L564 884 Z M126 0 L157 0 C170 0 177 7 177 20 L177 568 C177 582 187 585 195 574 L644 16 C653 5 663 0 677 0 L694 0 C711 0 721 10 721 27 L721 710 C721 723 714 730 701 730 L671 730 C658 730 651 723 651 710 L651 144 C651 130 640 126 632 137 L174 714 C165 725 156 730 142 730 L133 730 C116 730 106 720 106 703 L106 20 C106 7 113 0 126 0 L126 0 Z " />
<glyph glyph-name="Ograve" unicode="&#xd2;" horiz-adv-x="872" d="M308 894 L300 864 C297 851 302 843 315 839 L503 798 C515 795 524 800 527 812 L529 820 C532 832 527 841 516 844 L333 908 C321 912 311 907 308 894 L308 894 Z M53 366 C53 142 228 -10 435 -10 C644 -10 819 142 819 366 C819 589 644 740 435 740 C228 740 53 589 53 366 L53 366 Z M132 366 C132 550 271 671 435 671 C601 671 739 550 739 366 C739 181 601 59 435 59 C271 59 132 181 132 366 L132 366 Z " />
<glyph glyph-name="Oacute" unicode="&#xd3;" horiz-adv-x="872" d="M519 906 L340 851 C328 847 324 838 327 826 L328 820 C332 808 341 803 353 805 L536 838 C550 841 555 849 552 862 L544 893 C541 904 532 911 519 906 L519 906 Z M53 366 C53 142 228 -10 435 -10 C644 -10 819 142 819 366 C819 589 644 740 435 740 C228 740 53 589 53 366 L53 366 Z M132 366 C132 550 271 671 435 671 C601 671 739 550 739 366 C739 181 601 59 435 59 C271 59 132 181 132 366 L132 366 Z " />
<glyph glyph-name="Ocircumflex" unicode="&#xd4;" horiz-adv-x="872" d="M279 827 L285 813 C289 804 297 802 306 805 L415 847 C429 852 441 852 455 847 L567 805 C576 801 584 804 588 813 L594 827 C599 836 596 844 587 849 L455 917 C441 924 429 924 415 917 L285 849 C276 844 275 836 279 827 L279 827 Z M53 366 C53 142 228 -10 435 -10 C644 -10 819 142 819 366 C819 589 644 740 435 740 C228 740 53 589 53 366 L53 366 Z M132 366 C132 550 271 671 435 671 C601 671 739 550 739 366 C739 181 601 59 435 59 C271 59 132 181 132 366 L132 366 Z " />
<glyph glyph-name="Otilde" unicode="&#xd5;" horiz-adv-x="872" d="M583 884 L571 886 C559 889 553 884 546 874 C536 856 521 851 501 851 C461 851 417 898 362 898 C320 898 287 879 275 833 C272 820 279 811 291 808 L304 805 C315 803 323 807 330 818 C339 833 353 840 374 840 C414 839 447 794 508 794 C554 794 587 817 599 861 C603 873 595 882 583 884 L583 884 Z M53 366 C53 142 228 -10 435 -10 C644 -10 819 142 819 366 C819 589 644 740 435 740 C228 740 53 589 53 366 L53 366 Z M132 366 C132 550 271 671 435 671 C601 671 739 550 739 366 C739 181 601 59 435 59 C271 59 132 181 132 366 L132 366 Z " />
<glyph glyph-name="Odieresis" unicode="&#xd6;" horiz-adv-x="872" d="M338 796 C366 796 391 819 391 849 C391 877 366 900 338 900 C309 900 286 877 286 849 C286 819 309 796 338 796 L338 796 Z M522 796 C551 796 575 819 575 849 C575 877 551 900 522 900 C493 900 469 877 469 849 C469 819 493 796 522 796 L522 796 Z M53 366 C53 142 228 -10 435 -10 C644 -10 819 142 819 366 C819 589 644 740 435 740 C228 740 53 589 53 366 L53 366 Z M132 366 C132 550 271 671 435 671 C601 671 739 550 739 366 C739 181 601 59 435 59 C271 59 132 181 132 366 L132 366 Z " />
<glyph glyph-name="multiply" unicode="&#xd7;" horiz-adv-x="480" d="M84 134 L97 121 C106 112 116 112 126 122 L225 221 C233 229 244 229 252 220 L354 119 C363 109 373 108 383 118 L396 130 C405 140 404 151 396 159 L294 261 C285 270 285 280 294 288 L396 389 C405 398 405 409 396 418 L383 430 C373 440 363 440 354 430 L252 329 C244 321 234 321 226 329 L126 429 C117 439 107 440 97 430 L84 418 C74 408 75 397 84 389 L184 288 C193 280 193 270 184 262 L84 163 C75 154 74 143 84 134 L84 134 Z " />
<glyph glyph-name="Oslash" unicode="&#xd8;" horiz-adv-x="872" d="M721 621 L761 661 C770 671 769 682 760 691 L747 704 C739 713 727 714 718 704 L676 662 C609 712 525 740 435 740 C228 740 53 589 53 366 C53 271 85 188 137 125 L76 64 C67 54 68 44 76 35 L88 23 C97 14 109 13 117 23 L178 83 C246 24 337 -10 435 -10 C644 -10 819 142 819 366 C819 469 782 557 721 621 L721 621 Z M132 366 C132 550 271 671 435 671 C506 671 571 649 623 610 L191 179 C154 229 132 292 132 366 L132 366 Z M435 59 C357 59 285 87 230 135 L667 568 C712 517 739 447 739 366 C739 181 601 59 435 59 L435 59 Z " />
<glyph glyph-name="Ugrave" unicode="&#xd9;" horiz-adv-x="793" d="M268 894 L260 864 C257 851 262 843 275 839 L463 798 C475 795 484 800 487 812 L489 820 C492 832 487 841 476 844 L293 908 C281 912 271 907 268 894 L268 894 Z M94 306 C94 116 219 -10 396 -10 C581 -10 698 124 698 306 L698 710 C698 723 691 730 678 730 L639 730 C626 730 619 723 619 710 L619 302 C619 156 526 62 396 62 C260 62 174 163 174 302 L174 710 C174 723 167 730 154 730 L114 730 C102 730 94 723 94 710 L94 306 Z " />
<glyph glyph-name="Uacute" unicode="&#xda;" horiz-adv-x="793" d="M479 906 L300 851 C288 847 284 838 287 826 L288 820 C292 808 301 803 313 805 L496 838 C510 841 515 849 512 862 L504 893 C501 904 492 911 479 906 L479 906 Z M94 306 C94 116 219 -10 396 -10 C581 -10 698 124 698 306 L698 710 C698 723 691 730 678 730 L639 730 C626 730 619 723 619 710 L619 302 C619 156 526 62 396 62 C260 62 174 163 174 302 L174 710 C174 723 167 730 154 730 L114 730 C102 730 94 723 94 710 L94 306 Z " />
<glyph glyph-name="Ucircumflex" unicode="&#xdb;" horiz-adv-x="793" d="M239 827 L245 813 C249 804 257 802 266 805 L375 847 C389 852 401 852 415 847 L527 805 C536 801 544 804 548 813 L554 827 C559 836 556 844 547 849 L415 917 C401 924 389 924 375 917 L245 849 C236 844 235 836 239 827 L239 827 Z M94 306 C94 116 219 -10 396 -10 C581 -10 698 124 698 306 L698 710 C698 723 691 730 678 730 L639 730 C626 730 619 723 619 710 L619 302 C619 156 526 62 396 62 C260 62 174 163 174 302 L174 710 C174 723 167 730 154 730 L114 730 C102 730 94 723 94 710 L94 306 Z " />
<glyph glyph-name="Udieresis" unicode="&#xdc;" horiz-adv-x="793" d="M298 796 C326 796 351 819 351 849 C351 877 326 900 298 900 C269 900 246 877 246 849 C246 819 269 796 298 796 L298 796 Z M482 796 C511 796 535 819 535 849 C535 877 511 900 482 900 C453 900 429 877 429 849 C429 819 453 796 482 796 L482 796 Z M94 306 C94 116 219 -10 396 -10 C581 -10 698 124 698 306 L698 710 C698 723 691 730 678 730 L639 730 C626 730 619 723 619 710 L619 302 C619 156 526 62 396 62 C260 62 174 163 174 302 L174 710 C174 723 167 730 154 730 L114 730 C102 730 94 723 94 710 L94 306 Z " />
<glyph glyph-name="Yacute" unicode="&#xdd;" horiz-adv-x="637" d="M406 906 L227 851 C215 847 211 838 214 826 L215 820 C219 808 228 803 240 805 L423 838 C437 841 442 849 439 862 L431 893 C428 904 419 911 406 906 L406 906 Z M24 706 L275 290 C279 282 281 274 281 266 L281 23 C281 9 290 0 304 0 L336 0 C350 0 359 9 359 23 L359 266 C359 274 361 282 365 290 L606 706 C614 720 608 730 592 730 L557 730 C547 730 539 726 533 716 L334 370 C327 357 316 357 308 370 L107 716 C102 726 94 730 84 730 L37 730 C21 730 16 720 24 706 L24 706 Z " />
<glyph glyph-name="Thorn" unicode="&#xde;" horiz-adv-x="627" d="M126 0 L164 0 C177 0 184 7 184 20 L184 98 C184 107 190 113 199 113 L277 113 C452 113 580 214 580 365 C580 517 452 617 277 617 L199 617 C190 617 184 623 184 632 L184 710 C184 723 177 730 164 730 L126 730 C113 730 106 723 106 710 L106 20 C106 7 113 0 126 0 L126 0 Z M184 191 L184 539 C184 548 190 554 199 554 L279 554 C407 554 500 477 500 365 C500 254 407 176 279 176 L199 176 C190 176 184 182 184 191 L184 191 Z " />
<glyph glyph-name="germandbls" unicode="&#xdf;" horiz-adv-x="649" d="M107 0 L141 0 C154 0 161 7 161 20 L161 577 C161 655 217 707 304 707 C388 707 435 657 447 591 C451 571 440 560 421 552 C367 532 332 485 332 424 C332 258 540 299 540 148 C540 87 486 56 426 56 C357 56 308 87 290 147 C287 159 281 164 269 164 L240 164 C226 164 219 157 222 143 C243 51 317 -10 426 -10 C526 -10 614 49 614 149 C614 346 406 311 406 424 C406 471 439 497 489 505 C514 509 525 519 525 539 L525 563 C525 688 441 774 304 774 C168 774 87 691 87 581 L87 20 C87 7 94 0 107 0 L107 0 Z " />
<glyph glyph-name="agrave" unicode="&#xe0;" horiz-adv-x="579" d="M179 732 L165 704 C159 692 162 683 174 677 L350 597 C361 592 371 595 376 606 L380 613 C385 624 382 634 372 640 L206 740 C195 747 184 744 179 732 L179 732 Z M44 142 C44 52 119 -10 215 -10 C290 -10 351 17 401 50 C423 64 437 59 442 35 L445 17 C447 5 455 0 467 0 L478 0 C491 0 498 7 498 20 L498 309 C498 450 420 530 282 530 C168 530 84 469 67 377 C65 364 73 356 86 356 L117 356 C129 356 136 362 139 373 C151 425 205 465 279 465 C371 465 425 417 425 323 C425 299 413 290 393 290 L263 291 C126 291 44 229 44 142 L44 142 Z M118 143 C118 201 169 229 264 229 L393 229 C413 229 425 217 425 196 L425 159 C425 142 420 130 405 120 C355 86 295 56 230 56 C169 56 118 87 118 143 L118 143 Z " />
<glyph glyph-name="aacute" unicode="&#xe1;" horiz-adv-x="579" d="M356 730 L195 634 C184 627 182 618 188 607 L191 601 C197 590 207 588 218 593 L389 668 C402 674 404 683 398 695 L383 723 C378 734 367 738 356 730 L356 730 Z M44 142 C44 52 119 -10 215 -10 C290 -10 351 17 401 50 C423 64 437 59 442 35 L445 17 C447 5 455 0 467 0 L478 0 C491 0 498 7 498 20 L498 309 C498 450 420 530 282 530 C168 530 84 469 67 377 C65 364 73 356 86 356 L117 356 C129 356 136 362 139 373 C151 425 205 465 279 465 C371 465 425 417 425 323 C425 299 413 290 393 290 L263 291 C126 291 44 229 44 142 L44 142 Z M118 143 C118 201 169 229 264 229 L393 229 C413 229 425 217 425 196 L425 159 C425 142 420 130 405 120 C355 86 295 56 230 56 C169 56 118 87 118 143 L118 143 Z " />
<glyph glyph-name="acircumflex" unicode="&#xe2;" horiz-adv-x="579" d="M128 639 L134 625 C138 616 146 614 155 617 L262 658 C276 663 288 663 302 658 L412 617 C421 613 429 616 433 625 L439 639 C443 648 441 655 432 660 L302 727 C288 734 276 734 262 727 L134 660 C125 655 124 648 128 639 L128 639 Z M44 142 C44 52 119 -10 215 -10 C290 -10 351 17 401 50 C423 64 437 59 442 35 L445 17 C447 5 455 0 467 0 L478 0 C491 0 498 7 498 20 L498 309 C498 450 420 530 282 530 C168 530 84 469 67 377 C65 364 73 356 86 356 L117 356 C129 356 136 362 139 373 C151 425 205 465 279 465 C371 465 425 417 425 323 C425 299 413 290 393 290 L263 291 C126 291 44 229 44 142 L44 142 Z M118 143 C118 201 169 229 264 229 L393 229 C413 229 425 217 425 196 L425 159 C425 142 420 130 405 120 C355 86 295 56 230 56 C169 56 118 87 118 143 L118 143 Z " />
<glyph glyph-name="atilde" unicode="&#xe3;" horiz-adv-x="579" d="M423 694 L411 696 C399 699 393 694 386 684 C376 666 361 661 341 661 C301 661 257 708 202 708 C160 708 127 689 115 643 C112 630 119 621 131 618 L144 615 C155 613 163 617 170 628 C179 643 193 650 214 650 C254 649 287 604 348 604 C394 604 427 627 439 671 C443 683 435 692 423 694 L423 694 Z M44 142 C44 52 119 -10 215 -10 C290 -10 351 17 401 50 C423 64 437 59 442 35 L445 17 C447 5 455 0 467 0 L478 0 C491 0 498 7 498 20 L498 309 C498 450 420 530 282 530 C168 530 84 469 67 377 C65 364 73 356 86 356 L117 356 C129 356 136 362 139 373 C151 425 205 465 279 465 C371 465 425 417 425 323 C425 299 413 290 393 290 L263 291 C126 291 44 229 44 142 L44 142 Z M118 143 C118 201 169 229 264 229 L393 229 C413 229 425 217 425 196 L425 159 C425 142 420 130 405 120 C355 86 295 56 230 56 C169 56 118 87 118 143 L118 143 Z " />
<glyph glyph-name="adieresis" unicode="&#xe4;" horiz-adv-x="579" d="M193 630 C220 630 244 653 244 682 C244 709 220 731 193 731 C165 731 143 709 143 682 C143 653 165 630 193 630 L193 630 Z M371 630 C399 630 422 653 422 682 C422 709 399 731 371 731 C343 731 320 709 320 682 C320 653 343 630 371 630 L371 630 Z M44 142 C44 52 119 -10 215 -10 C290 -10 351 17 401 50 C423 64 437 59 442 35 L445 17 C447 5 455 0 467 0 L478 0 C491 0 498 7 498 20 L498 309 C498 450 420 530 282 530 C168 530 84 469 67 377 C65 364 73 356 86 356 L117 356 C129 356 136 362 139 373 C151 425 205 465 279 465 C371 465 425 417 425 323 C425 299 413 290 393 290 L263 291 C126 291 44 229 44 142 L44 142 Z M118 143 C118 201 169 229 264 229 L393 229 C413 229 425 217 425 196 L425 159 C425 142 420 130 405 120 C355 86 295 56 230 56 C169 56 118 87 118 143 L118 143 Z " />
<glyph glyph-name="aring" unicode="&#xe5;" horiz-adv-x="579" d="M281 586 C347 586 391 631 391 688 C391 743 347 789 281 789 C217 789 172 743 172 688 C172 631 217 586 281 586 L281 586 Z M281 636 C251 636 229 659 229 688 C229 717 251 741 281 741 C312 741 335 717 335 688 C335 659 312 636 281 636 L281 636 Z M44 142 C44 52 119 -10 215 -10 C290 -10 351 17 401 50 C423 64 437 59 442 35 L445 17 C447 5 455 0 467 0 L478 0 C491 0 498 7 498 20 L498 309 C498 450 420 530 282 530 C168 530 84 469 67 377 C65 364 73 356 86 356 L117 356 C129 356 136 362 139 373 C151 425 205 465 279 465 C371 465 425 417 425 323 C425 299 413 290 393 290 L263 291 C126 291 44 229 44 142 L44 142 Z M118 143 C118 201 169 229 264 229 L393 229 C413 229 425 217 425 196 L425 159 C425 142 420 130 405 120 C355 86 295 56 230 56 C169 56 118 87 118 143 L118 143 Z " />
<glyph glyph-name="ae" unicode="&#xe6;" horiz-adv-x="958" d="M44 132 C44 52 119 -10 223 -10 C312 -10 387 28 445 78 C458 90 469 89 481 76 C527 22 594 -10 673 -10 C784 -10 868 54 893 138 C898 152 889 160 876 160 L846 160 C835 160 827 155 823 144 C802 89 745 54 673 54 C579 54 507 120 490 214 C487 232 497 242 514 242 L877 241 C900 241 909 250 910 275 C914 407 811 530 670 530 C591 530 522 494 476 437 C466 426 457 427 449 438 C417 498 358 530 280 530 C175 530 84 469 67 376 C65 363 73 356 86 356 L116 356 C128 356 135 362 138 373 C150 425 207 464 277 464 C358 464 413 417 413 316 L413 304 C413 292 403 288 387 288 L263 289 C128 289 44 229 44 132 L44 132 Z M497 329 C521 412 592 466 670 466 C757 466 818 402 831 327 C836 309 829 300 814 300 L520 301 C501 301 491 312 497 329 L497 329 Z M118 140 C118 201 169 227 264 227 L391 227 C407 227 414 222 416 210 C419 194 424 178 428 167 C432 153 430 146 418 136 C367 91 304 58 232 58 C172 58 118 87 118 140 L118 140 Z " />
<glyph glyph-name="ccedilla" unicode="&#xe7;" horiz-adv-x="598" d="M531 176 L498 176 C486 176 480 171 476 159 C457 94 394 55 315 55 C211 55 125 138 125 260 C125 379 208 465 317 465 C402 465 464 409 479 354 C483 341 489 336 501 336 L533 336 C547 336 555 344 552 357 C533 446 443 530 315 530 C161 530 49 414 49 262 C49 123 141 13 274 -7 L260 -60 C257 -75 265 -85 280 -85 L290 -85 C325 -85 346 -101 346 -129 C346 -157 323 -173 289 -173 C268 -173 249 -168 232 -159 C221 -155 212 -155 207 -166 L205 -172 C200 -181 200 -191 210 -197 C232 -211 259 -220 293 -220 C359 -220 408 -185 408 -128 C408 -81 376 -54 334 -46 C323 -44 319 -40 322 -29 L327 -10 C437 -6 529 61 550 154 C553 168 545 176 531 176 L531 176 Z " />
<glyph glyph-name="egrave" unicode="&#xe8;" horiz-adv-x="594" d="M196 732 L182 704 C176 692 179 683 191 677 L367 597 C378 592 388 595 393 606 L397 613 C402 624 399 634 389 640 L223 740 C212 747 201 744 196 732 L196 732 Z M49 262 C49 107 158 -10 308 -10 C419 -10 503 54 530 138 C534 152 525 160 512 160 L482 160 C471 160 463 155 459 144 C438 88 382 55 308 55 C216 55 147 116 127 206 C123 228 136 242 158 242 L514 241 C533 241 546 254 546 271 C547 412 445 530 306 530 C161 530 49 415 49 262 L49 262 Z M137 341 C164 417 229 466 305 466 C387 466 445 411 464 340 C471 317 458 303 435 303 L165 304 C141 304 128 319 137 341 L137 341 Z " />
<glyph glyph-name="eacute" unicode="&#xe9;" horiz-adv-x="594" d="M373 730 L212 634 C201 627 199 618 205 607 L208 601 C214 590 224 588 235 593 L406 668 C419 674 421 683 415 695 L400 723 C395 734 384 738 373 730 L373 730 Z M49 262 C49 107 158 -10 308 -10 C419 -10 503 54 530 138 C534 152 525 160 512 160 L482 160 C471 160 463 155 459 144 C438 88 382 55 308 55 C216 55 147 116 127 206 C123 228 136 242 158 242 L514 241 C533 241 546 254 546 271 C547 412 445 530 306 530 C161 530 49 415 49 262 L49 262 Z M137 341 C164 417 229 466 305 466 C387 466 445 411 464 340 C471 317 458 303 435 303 L165 304 C141 304 128 319 137 341 L137 341 Z " />
<glyph glyph-name="ecircumflex" unicode="&#xea;" horiz-adv-x="594" d="M145 639 L151 625 C155 616 163 614 172 617 L279 658 C293 663 305 663 319 658 L429 617 C438 613 446 616 450 625 L456 639 C460 648 458 655 449 660 L319 727 C305 734 293 734 279 727 L151 660 C142 655 141 648 145 639 L145 639 Z M49 262 C49 107 158 -10 308 -10 C419 -10 503 54 530 138 C534 152 525 160 512 160 L482 160 C471 160 463 155 459 144 C438 88 382 55 308 55 C216 55 147 116 127 206 C123 228 136 242 158 242 L514 241 C533 241 546 254 546 271 C547 412 445 530 306 530 C161 530 49 415 49 262 L49 262 Z M137 341 C164 417 229 466 305 466 C387 466 445 411 464 340 C471 317 458 303 435 303 L165 304 C141 304 128 319 137 341 L137 341 Z " />
<glyph glyph-name="edieresis" unicode="&#xeb;" horiz-adv-x="594" d="M210 630 C237 630 261 653 261 682 C261 709 237 731 210 731 C182 731 160 709 160 682 C160 653 182 630 210 630 L210 630 Z M388 630 C416 630 439 653 439 682 C439 709 416 731 388 731 C360 731 337 709 337 682 C337 653 360 630 388 630 L388 630 Z M49 262 C49 107 158 -10 308 -10 C419 -10 503 54 530 138 C534 152 525 160 512 160 L482 160 C471 160 463 155 459 144 C438 88 382 55 308 55 C216 55 147 116 127 206 C123 228 136 242 158 242 L514 241 C533 241 546 254 546 271 C547 412 445 530 306 530 C161 530 49 415 49 262 L49 262 Z M137 341 C164 417 229 466 305 466 C387 466 445 411 464 340 C471 317 458 303 435 303 L165 304 C141 304 128 319 137 341 L137 341 Z " />
<glyph glyph-name="igrave" unicode="&#xec;" horiz-adv-x="253" d="M27 732 L13 704 C7 692 10 683 22 677 L196 597 C207 592 217 595 222 606 L226 613 C231 624 228 634 218 640 L53 740 C43 747 32 744 27 732 L27 732 Z M144 520 L109 520 C96 520 89 513 89 500 L89 20 C89 7 96 0 109 0 L144 0 C156 0 164 7 164 20 L164 500 C164 513 156 520 144 520 L144 520 Z " />
<glyph glyph-name="iacute" unicode="&#xed;" horiz-adv-x="253" d="M200 730 L46 634 C35 627 33 618 39 607 L42 601 C48 590 57 588 68 593 L231 668 C244 674 245 683 240 695 L225 723 C221 734 210 738 200 730 L200 730 Z M144 520 L109 520 C96 520 89 513 89 500 L89 20 C89 7 96 0 109 0 L144 0 C156 0 164 7 164 20 L164 500 C164 513 156 520 144 520 L144 520 Z " />
<glyph glyph-name="icircumflex" unicode="&#xee;" horiz-adv-x="253" d="M-15 639 L-9 625 C-5 616 2 614 11 617 L111 658 C124 663 135 663 148 658 L251 617 C259 613 267 616 271 625 L276 639 C280 648 278 655 270 660 L148 727 C135 734 124 734 111 727 L-9 660 C-18 655 -18 648 -15 639 L-15 639 Z M144 520 L109 520 C96 520 89 513 89 500 L89 20 C89 7 96 0 109 0 L144 0 C156 0 164 7 164 20 L164 500 C164 513 156 520 144 520 L144 520 Z " />
<glyph glyph-name="idieresis" unicode="&#xef;" horiz-adv-x="253" d="M40 630 C67 630 91 653 91 682 C91 709 67 731 40 731 C12 731 -10 709 -10 682 C-10 653 12 630 40 630 L40 630 Z M218 630 C246 630 269 653 269 682 C269 709 246 731 218 731 C190 731 167 709 167 682 C167 653 190 630 218 630 L218 630 Z M144 520 L109 520 C96 520 89 513 89 500 L89 20 C89 7 96 0 109 0 L144 0 C156 0 164 7 164 20 L164 500 C164 513 156 520 144 520 L144 520 Z " />
<glyph glyph-name="eth" unicode="&#xf0;" horiz-adv-x="619" d="M358 603 L421 493 C429 477 422 470 396 480 C366 493 337 499 303 499 C157 499 50 396 50 255 C50 99 159 -10 309 -10 C460 -10 568 96 568 243 C568 342 542 407 503 472 L418 624 L521 659 C533 663 537 673 533 685 L528 701 C524 713 514 717 502 713 L390 674 L338 766 C333 776 325 780 315 780 L282 780 C266 780 260 770 268 756 L328 653 L242 623 C230 619 225 610 230 597 L237 581 C241 570 250 566 262 570 L358 603 Z M126 253 C126 359 206 437 311 437 C402 437 476 393 494 300 C494 283 495 265 495 244 C495 131 416 55 309 55 C205 55 126 138 126 253 L126 253 Z " />
<glyph glyph-name="ntilde" unicode="&#xf1;" horiz-adv-x="652" d="M473 694 L461 696 C449 699 443 694 436 684 C426 666 411 661 391 661 C351 661 307 708 252 708 C210 708 177 689 165 643 C162 630 169 621 181 618 L194 615 C205 613 213 617 220 628 C229 643 243 650 264 650 C304 649 337 604 398 604 C444 604 477 627 489 671 C493 683 485 692 473 694 L473 694 Z M107 0 L141 0 C154 0 161 7 161 20 L161 356 C161 374 168 386 183 396 C247 437 314 464 373 464 C452 464 497 420 497 336 L497 20 C497 7 504 0 517 0 L552 0 C564 0 572 7 572 20 L572 339 C572 464 504 530 392 530 C321 530 255 510 188 468 C164 452 150 458 146 484 L144 502 C142 514 134 520 122 520 L107 520 C94 520 87 513 87 500 L87 20 C87 7 94 0 107 0 L107 0 Z " />
<glyph glyph-name="ograve" unicode="&#xf2;" horiz-adv-x="641" d="M216 732 L202 704 C196 692 199 683 211 677 L387 597 C398 592 408 595 413 606 L417 613 C422 624 419 634 409 640 L243 740 C232 747 221 744 216 732 L216 732 Z M49 262 C49 111 162 -10 321 -10 C479 -10 592 111 592 262 C592 411 479 530 321 530 C162 530 49 411 49 262 L49 262 Z M123 260 C123 374 205 465 321 465 C436 465 517 374 517 260 C517 147 436 55 321 55 C205 55 123 147 123 260 L123 260 Z " />
<glyph glyph-name="oacute" unicode="&#xf3;" horiz-adv-x="641" d="M393 730 L232 634 C221 627 219 618 225 607 L228 601 C234 590 244 588 255 593 L426 668 C439 674 441 683 435 695 L420 723 C415 734 404 738 393 730 L393 730 Z M49 262 C49 111 162 -10 321 -10 C479 -10 592 111 592 262 C592 411 479 530 321 530 C162 530 49 411 49 262 L49 262 Z M123 260 C123 374 205 465 321 465 C436 465 517 374 517 260 C517 147 436 55 321 55 C205 55 123 147 123 260 L123 260 Z " />
<glyph glyph-name="ocircumflex" unicode="&#xf4;" horiz-adv-x="641" d="M165 639 L171 625 C175 616 183 614 192 617 L299 658 C313 663 325 663 339 658 L449 617 C458 613 466 616 470 625 L476 639 C480 648 478 655 469 660 L339 727 C325 734 313 734 299 727 L171 660 C162 655 161 648 165 639 L165 639 Z M49 262 C49 111 162 -10 321 -10 C479 -10 592 111 592 262 C592 411 479 530 321 530 C162 530 49 411 49 262 L49 262 Z M123 260 C123 374 205 465 321 465 C436 465 517 374 517 260 C517 147 436 55 321 55 C205 55 123 147 123 260 L123 260 Z " />
<glyph glyph-name="otilde" unicode="&#xf5;" horiz-adv-x="641" d="M460 694 L448 696 C436 699 430 694 423 684 C413 666 398 661 378 661 C338 661 294 708 239 708 C197 708 164 689 152 643 C149 630 156 621 168 618 L181 615 C192 613 200 617 207 628 C216 643 230 650 251 650 C291 649 324 604 385 604 C431 604 464 627 476 671 C480 683 472 692 460 694 L460 694 Z M49 262 C49 111 162 -10 321 -10 C479 -10 592 111 592 262 C592 411 479 530 321 530 C162 530 49 411 49 262 L49 262 Z M123 260 C123 374 205 465 321 465 C436 465 517 374 517 260 C517 147 436 55 321 55 C205 55 123 147 123 260 L123 260 Z " />
<glyph glyph-name="odieresis" unicode="&#xf6;" horiz-adv-x="641" d="M230 630 C257 630 281 653 281 682 C281 709 257 731 230 731 C202 731 180 709 180 682 C180 653 202 630 230 630 L230 630 Z M408 630 C436 630 459 653 459 682 C459 709 436 731 408 731 C380 731 357 709 357 682 C357 653 380 630 408 630 L408 630 Z M49 262 C49 111 162 -10 321 -10 C479 -10 592 111 592 262 C592 411 479 530 321 530 C162 530 49 411 49 262 L49 262 Z M123 260 C123 374 205 465 321 465 C436 465 517 374 517 260 C517 147 436 55 321 55 C205 55 123 147 123 260 L123 260 Z " />
<glyph glyph-name="divide" unicode="&#xf7;" horiz-adv-x="560" d="M280 382 C308 382 331 405 331 434 C331 461 308 484 280 484 C252 484 230 461 230 434 C230 405 252 382 280 382 L280 382 Z M474 290 L86 290 C73 290 66 283 66 270 L66 248 C66 235 73 228 86 228 L474 228 C487 228 494 235 494 248 L494 270 C494 283 487 290 474 290 L474 290 Z M281 25 C308 25 331 49 331 78 C331 104 308 127 281 127 C253 127 230 104 230 78 C230 49 253 25 281 25 L281 25 Z " />
<glyph glyph-name="oslash" unicode="&#xf8;" horiz-adv-x="641" d="M534 432 L570 467 C581 477 581 490 570 501 L562 508 C551 518 539 518 529 508 L493 473 C447 509 388 530 321 530 C162 530 49 411 49 262 C49 198 69 140 105 93 L59 49 C48 39 47 26 59 15 L66 9 C77 -2 89 -1 99 9 L144 52 C190 13 251 -10 321 -10 C479 -10 592 111 592 262 C592 327 571 386 534 432 L534 432 Z M123 260 C123 374 205 465 321 465 C368 465 410 450 442 423 L156 144 C135 177 123 217 123 260 L123 260 Z M321 55 C271 55 227 72 193 101 L481 381 C504 347 517 305 517 260 C517 147 436 55 321 55 L321 55 Z " />
<glyph glyph-name="ugrave" unicode="&#xf9;" horiz-adv-x="632" d="M212 732 L198 704 C192 692 195 683 207 677 L383 597 C394 592 404 595 409 606 L413 613 C418 624 415 634 405 640 L239 740 C228 747 217 744 212 732 L212 732 Z M81 181 C81 56 148 -10 258 -10 C323 -10 383 10 447 47 C470 61 484 57 489 29 L489 18 C492 7 499 0 511 0 L526 0 C538 0 546 7 546 20 L546 500 C546 513 538 520 526 520 L491 520 C478 520 471 513 471 500 L471 155 C471 137 465 125 449 116 C388 79 328 56 277 56 C199 56 156 100 156 184 L156 500 C156 513 149 520 136 520 L101 520 C88 520 81 513 81 500 L81 181 Z " />
<glyph glyph-name="uacute" unicode="&#xfa;" horiz-adv-x="632" d="M389 730 L228 634 C217 627 215 618 221 607 L224 601 C230 590 240 588 251 593 L422 668 C435 674 437 683 431 695 L416 723 C411 734 400 738 389 730 L389 730 Z M81 181 C81 56 148 -10 258 -10 C323 -10 383 10 447 47 C470 61 484 57 489 29 L489 18 C492 7 499 0 511 0 L526 0 C538 0 546 7 546 20 L546 500 C546 513 538 520 526 520 L491 520 C478 520 471 513 471 500 L471 155 C471 137 465 125 449 116 C388 79 328 56 277 56 C199 56 156 100 156 184 L156 500 C156 513 149 520 136 520 L101 520 C88 520 81 513 81 500 L81 181 Z " />
<glyph glyph-name="ucircumflex" unicode="&#xfb;" horiz-adv-x="632" d="M161 639 L167 625 C171 616 179 614 188 617 L295 658 C309 663 321 663 335 658 L445 617 C454 613 462 616 466 625 L472 639 C476 648 474 655 465 660 L335 727 C321 734 309 734 295 727 L167 660 C158 655 157 648 161 639 L161 639 Z M81 181 C81 56 148 -10 258 -10 C323 -10 383 10 447 47 C470 61 484 57 489 29 L489 18 C492 7 499 0 511 0 L526 0 C538 0 546 7 546 20 L546 500 C546 513 538 520 526 520 L491 520 C478 520 471 513 471 500 L471 155 C471 137 465 125 449 116 C388 79 328 56 277 56 C199 56 156 100 156 184 L156 500 C156 513 149 520 136 520 L101 520 C88 520 81 513 81 500 L81 181 Z " />
<glyph glyph-name="udieresis" unicode="&#xfc;" horiz-adv-x="632" d="M226 630 C253 630 277 653 277 682 C277 709 253 731 226 731 C198 731 176 709 176 682 C176 653 198 630 226 630 L226 630 Z M404 630 C432 630 455 653 455 682 C455 709 432 731 404 731 C376 731 353 709 353 682 C353 653 376 630 404 630 L404 630 Z M81 181 C81 56 148 -10 258 -10 C323 -10 383 10 447 47 C470 61 484 57 489 29 L489 18 C492 7 499 0 511 0 L526 0 C538 0 546 7 546 20 L546 500 C546 513 538 520 526 520 L491 520 C478 520 471 513 471 500 L471 155 C471 137 465 125 449 116 C388 79 328 56 277 56 C199 56 156 100 156 184 L156 500 C156 513 149 520 136 520 L101 520 C88 520 81 513 81 500 L81 181 Z " />
<glyph glyph-name="yacute" unicode="&#xfd;" horiz-adv-x="553" d="M352 730 L191 634 C180 627 178 618 184 607 L187 601 C193 590 203 588 214 593 L385 668 C398 674 400 683 394 695 L379 723 C374 734 363 738 352 730 L352 730 Z M28 497 L229 14 C232 5 239 0 248 0 L256 0 L237 -44 C209 -111 180 -151 116 -151 C95 -151 73 -148 54 -143 C41 -140 33 -145 30 -158 L27 -177 C24 -189 30 -198 42 -201 C65 -208 91 -211 112 -211 C213 -211 258 -153 298 -58 L526 497 C532 511 525 520 511 520 L474 520 C462 520 455 515 451 504 L294 95 C288 78 275 79 269 95 L109 504 C104 515 97 520 86 520 L43 520 C29 520 22 511 28 497 L28 497 Z " />
<glyph glyph-name="thorn" unicode="&#xfe;" horiz-adv-x="658" d="M107 -220 L136 -220 C149 -220 156 -213 156 -200 L156 27 C156 55 172 61 194 43 C234 9 286 -10 350 -10 C494 -10 610 110 610 262 C610 412 493 530 351 530 C288 530 234 511 193 477 C171 459 155 465 155 493 L155 728 C155 740 148 748 135 748 L107 748 C94 748 87 740 87 728 L87 -200 C87 -213 94 -220 107 -220 L107 -220 Z M161 190 L161 331 C161 346 163 358 172 371 C207 429 266 465 344 465 C445 465 534 377 534 262 C534 146 447 55 344 55 C265 55 209 91 172 150 C163 163 161 175 161 190 L161 190 Z " />
<glyph glyph-name="ydieresis" unicode="&#xff;" horiz-adv-x="553" d="M189 630 C216 630 240 653 240 682 C240 709 216 731 189 731 C161 731 139 709 139 682 C139 653 161 630 189 630 L189 630 Z M367 630 C395 630 418 653 418 682 C418 709 395 731 367 731 C339 731 316 709 316 682 C316 653 339 630 367 630 L367 630 Z M28 497 L229 14 C232 5 239 0 248 0 L256 0 L237 -44 C209 -111 180 -151 116 -151 C95 -151 73 -148 54 -143 C41 -140 33 -145 30 -158 L27 -177 C24 -189 30 -198 42 -201 C65 -208 91 -211 112 -211 C213 -211 258 -153 298 -58 L526 497 C532 511 525 520 511 520 L474 520 C462 520 455 515 451 504 L294 95 C288 78 275 79 269 95 L109 504 C104 515 97 520 86 520 L43 520 C29 520 22 511 28 497 L28 497 Z " />
<glyph glyph-name="Amacron" unicode="&#x100;" horiz-adv-x="711" d="M217 854 L217 832 C217 819 225 812 237 812 L481 812 C493 812 501 819 501 832 L501 854 C501 867 493 874 481 874 L237 874 C225 874 217 867 217 854 L217 854 Z M35 0 L74 0 C85 0 93 5 97 16 L159 169 C162 176 167 179 175 179 L532 179 C540 179 545 176 548 169 L606 16 C611 5 619 0 630 0 L671 0 C685 0 691 9 686 23 L410 714 C406 724 398 730 387 730 L327 730 C316 730 308 724 304 714 L20 23 C14 10 22 0 35 0 L35 0 Z M198 268 L348 638 C352 649 362 649 366 638 L509 268 C513 259 508 252 499 252 L209 252 C199 252 194 259 198 268 L198 268 Z " />
<glyph glyph-name="amacron" unicode="&#x101;" horiz-adv-x="579" d="M140 674 L140 652 C140 639 148 632 160 632 L404 632 C416 632 424 639 424 652 L424 674 C424 687 416 694 404 694 L160 694 C148 694 140 687 140 674 L140 674 Z M44 142 C44 52 119 -10 215 -10 C290 -10 351 17 401 50 C423 64 437 59 442 35 L445 17 C447 5 455 0 467 0 L478 0 C491 0 498 7 498 20 L498 309 C498 450 420 530 282 530 C168 530 84 469 67 377 C65 364 73 356 86 356 L117 356 C129 356 136 362 139 373 C151 425 205 465 279 465 C371 465 425 417 425 323 C425 299 413 290 393 290 L263 291 C126 291 44 229 44 142 L44 142 Z M118 143 C118 201 169 229 264 229 L393 229 C413 229 425 217 425 196 L425 159 C425 142 420 130 405 120 C355 86 295 56 230 56 C169 56 118 87 118 143 L118 143 Z " />
<glyph glyph-name="Abreve" unicode="&#x102;" horiz-adv-x="711" d="M245 906 L220 905 C207 904 199 896 203 883 C222 817 292 780 361 780 C437 780 500 820 519 883 C523 896 515 904 501 905 L479 906 C468 906 461 901 456 890 C440 856 399 838 361 838 C320 838 281 858 268 890 C263 901 257 906 245 906 L245 906 Z M35 0 L74 0 C85 0 93 5 97 16 L159 169 C162 176 167 179 175 179 L532 179 C540 179 545 176 548 169 L606 16 C611 5 619 0 630 0 L671 0 C685 0 691 9 686 23 L410 714 C406 724 398 730 387 730 L327 730 C316 730 308 724 304 714 L20 23 C14 10 22 0 35 0 L35 0 Z M198 268 L348 638 C352 649 362 649 366 638 L509 268 C513 259 508 252 499 252 L209 252 C199 252 194 259 198 268 L198 268 Z " />
<glyph glyph-name="abreve" unicode="&#x103;" horiz-adv-x="579" d="M165 721 L140 720 C127 719 119 711 123 698 C142 632 212 595 281 595 C357 595 420 635 439 698 C443 711 435 719 421 720 L399 721 C388 721 381 716 376 705 C360 671 319 653 281 653 C240 653 201 673 188 705 C183 716 177 721 165 721 L165 721 Z M44 142 C44 52 119 -10 215 -10 C290 -10 351 17 401 50 C423 64 437 59 442 35 L445 17 C447 5 455 0 467 0 L478 0 C491 0 498 7 498 20 L498 309 C498 450 420 530 282 530 C168 530 84 469 67 377 C65 364 73 356 86 356 L117 356 C129 356 136 362 139 373 C151 425 205 465 279 465 C371 465 425 417 425 323 C425 299 413 290 393 290 L263 291 C126 291 44 229 44 142 L44 142 Z M118 143 C118 201 169 229 264 229 L393 229 C413 229 425 217 425 196 L425 159 C425 142 420 130 405 120 C355 86 295 56 230 56 C169 56 118 87 118 143 L118 143 Z " />
<glyph glyph-name="Aogonek" unicode="&#x104;" horiz-adv-x="711" d="M671 -169 C664 -170 655 -171 646 -171 C618 -171 597 -155 597 -123 C597 -75 618 -35 680 1 L679 1 C687 4 690 12 686 23 L410 714 C406 724 398 730 387 730 L327 730 C316 730 308 724 304 714 L20 23 C14 10 22 0 35 0 L74 0 C85 0 93 5 97 16 L159 169 C162 176 167 179 175 179 L532 179 C540 179 545 176 548 169 L606 16 C609 10 612 6 617 3 C566 -29 535 -75 535 -126 C535 -187 578 -220 637 -220 C650 -220 664 -219 676 -215 C685 -213 689 -206 689 -197 L689 -183 C689 -172 682 -167 671 -169 L671 -169 Z M499 252 L209 252 C199 252 194 259 198 268 L348 638 C352 649 362 649 366 638 L509 268 C513 259 508 252 499 252 L499 252 Z " />
<glyph glyph-name="aogonek" unicode="&#x105;" horiz-adv-x="579" d="M498 20 L498 309 C498 450 420 530 282 530 C168 530 84 469 67 377 C65 364 73 356 86 356 L117 356 C129 356 136 362 139 373 C151 425 205 465 279 465 C371 465 425 417 425 323 C425 299 413 290 393 290 L263 291 C126 291 44 229 44 142 C44 52 119 -10 215 -10 C290 -10 351 17 401 50 C423 64 437 59 442 35 L445 17 L445 15 C382 -17 343 -68 343 -126 C343 -187 386 -220 445 -220 C458 -220 472 -219 484 -215 C493 -213 497 -206 497 -197 L497 -183 C497 -172 490 -167 479 -169 C472 -170 463 -171 454 -171 C426 -171 405 -155 405 -123 C405 -75 426 -35 488 1 L487 2 C494 4 498 11 498 20 L498 20 Z M425 159 C425 142 420 130 405 120 C355 86 295 56 230 56 C169 56 118 87 118 143 C118 201 169 229 264 229 L393 229 C413 229 425 217 425 196 L425 159 Z " />
<glyph glyph-name="Cacute" unicode="&#x106;" horiz-adv-x="827" d="M514 912 L335 857 C323 853 319 844 322 832 L323 826 C327 814 336 809 348 811 L531 844 C545 847 550 855 547 868 L539 899 C536 910 527 917 514 912 L514 912 Z M53 366 C53 142 229 -10 431 -10 C602 -10 736 92 775 231 C779 245 772 253 758 253 L719 253 C708 253 700 248 696 237 C660 128 558 62 431 62 C272 62 132 183 132 366 C132 548 272 668 431 668 C575 668 672 581 695 462 C698 450 705 444 717 444 L756 444 C770 444 777 452 775 465 C751 612 621 740 431 740 C228 740 53 589 53 366 L53 366 Z " />
<glyph glyph-name="cacute" unicode="&#x107;" horiz-adv-x="598" d="M392 730 L231 634 C220 627 218 618 224 607 L227 601 C233 590 243 588 254 593 L425 668 C438 674 440 683 434 695 L419 723 C414 734 403 738 392 730 L392 730 Z M501 336 L533 336 C547 336 555 344 552 357 C533 446 443 530 315 530 C161 530 49 414 49 262 C49 109 161 -10 317 -10 C432 -10 528 58 550 154 C553 168 545 176 531 176 L498 176 C486 176 480 171 476 159 C457 94 394 55 315 55 C211 55 125 138 125 260 C125 379 208 465 317 465 C402 465 464 409 479 354 C483 341 489 336 501 336 L501 336 Z " />
<glyph glyph-name="Cdotaccent" unicode="&#x10a;" horiz-adv-x="827" d="M430 794 C461 794 487 820 487 853 C487 883 461 908 430 908 C398 908 373 883 373 853 C373 820 398 794 430 794 L430 794 Z M53 366 C53 142 229 -10 431 -10 C602 -10 736 92 775 231 C779 245 772 253 758 253 L719 253 C708 253 700 248 696 237 C660 128 558 62 431 62 C272 62 132 183 132 366 C132 548 272 668 431 668 C575 668 672 581 695 462 C698 450 705 444 717 444 L756 444 C770 444 777 452 775 465 C751 612 621 740 431 740 C228 740 53 589 53 366 L53 366 Z " />
<glyph glyph-name="cdotaccent" unicode="&#x10b;" horiz-adv-x="598" d="M318 636 C349 636 375 662 375 695 C375 725 349 750 318 750 C286 750 261 725 261 695 C261 662 286 636 318 636 L318 636 Z M501 336 L533 336 C547 336 555 344 552 357 C533 446 443 530 315 530 C161 530 49 414 49 262 C49 109 161 -10 317 -10 C432 -10 528 58 550 154 C553 168 545 176 531 176 L498 176 C486 176 480 171 476 159 C457 94 394 55 315 55 C211 55 125 138 125 260 C125 379 208 465 317 465 C402 465 464 409 479 354 C483 341 489 336 501 336 L501 336 Z " />
<glyph glyph-name="Ccaron" unicode="&#x10c;" horiz-adv-x="827" d="M279 889 C276 878 278 870 288 865 L405 812 C423 804 437 804 454 812 L571 865 C581 870 583 879 580 889 L576 903 C573 914 563 917 553 914 L447 877 C435 872 425 872 412 877 L306 914 C296 918 287 914 283 903 L279 889 Z M53 366 C53 142 229 -10 431 -10 C602 -10 736 92 775 231 C779 245 772 253 758 253 L719 253 C708 253 700 248 696 237 C660 128 558 62 431 62 C272 62 132 183 132 366 C132 548 272 668 431 668 C575 668 672 581 695 462 C698 450 705 444 717 444 L756 444 C770 444 777 452 775 465 C751 612 621 740 431 740 C228 740 53 589 53 366 L53 366 Z " />
<glyph glyph-name="ccaron" unicode="&#x10d;" horiz-adv-x="598" d="M169 694 C166 683 168 675 178 670 L294 617 C311 609 325 609 342 617 L458 670 C468 675 470 684 467 694 L463 707 C460 718 450 721 440 718 L335 682 C323 677 313 677 301 682 L196 718 C186 722 177 718 173 707 L169 694 Z M501 336 L533 336 C547 336 555 344 552 357 C533 446 443 530 315 530 C161 530 49 414 49 262 C49 109 161 -10 317 -10 C432 -10 528 58 550 154 C553 168 545 176 531 176 L498 176 C486 176 480 171 476 159 C457 94 394 55 315 55 C211 55 125 138 125 260 C125 379 208 465 317 465 C402 465 464 409 479 354 C483 341 489 336 501 336 L501 336 Z " />
<glyph glyph-name="Dcaron" unicode="&#x10e;" horiz-adv-x="801" d="M215 883 C212 872 214 864 224 859 L341 806 C359 798 373 798 390 806 L507 859 C517 864 519 873 516 883 L512 897 C509 908 499 911 489 908 L383 871 C371 866 361 866 348 871 L242 908 C232 912 223 908 219 897 L215 883 Z M129 0 L374 0 C582 0 747 147 747 365 C747 581 583 730 374 730 L129 730 C114 730 106 722 106 707 L106 23 C106 8 114 0 129 0 L129 0 Z M184 82 L184 648 C184 658 190 663 199 663 L374 663 C529 663 667 555 667 365 C667 176 529 67 374 67 L199 67 C190 67 184 73 184 82 L184 82 Z " />
<glyph glyph-name="dcaron" unicode="&#x10f;" horiz-adv-x="658" d="M674 606 L659 606 C646 606 639 613 640 627 L654 802 C655 814 663 821 675 821 L700 821 C714 821 720 813 719 800 L696 624 C694 612 686 606 674 606 L674 606 Z M49 262 C49 106 165 -10 313 -10 C380 -10 434 10 478 49 C498 67 511 63 516 38 L518 17 C521 5 528 0 540 0 L550 0 C563 0 570 7 570 20 L570 760 C570 773 563 780 550 780 L518 780 C505 780 498 773 498 760 L498 500 C498 473 485 466 462 483 C420 514 371 530 312 530 C166 530 49 414 49 262 L49 262 Z M125 262 C125 377 213 465 315 465 C392 465 449 429 485 374 C494 361 496 348 496 333 L496 188 C496 173 494 160 485 146 C448 90 392 55 315 55 C213 55 125 145 125 262 L125 262 Z " />
<glyph glyph-name="Dcroat" unicode="&#x110;" horiz-adv-x="801" d="M374 730 L129 730 C114 730 106 722 106 707 L106 398 L46 398 C33 398 26 390 26 378 L26 358 C26 345 33 338 46 338 L106 338 L106 23 C106 8 114 0 129 0 L374 0 C582 0 747 147 747 365 C747 581 583 730 374 730 L374 730 Z M374 67 L199 67 C190 67 184 73 184 82 L184 338 L337 338 C350 338 357 345 357 358 L357 378 C357 390 350 398 337 398 L184 398 L184 648 C184 658 190 663 199 663 L374 663 C529 663 667 555 667 365 C667 176 529 67 374 67 L374 67 Z " />
<glyph glyph-name="dcroat" unicode="&#x111;" horiz-adv-x="658" d="M674 664 L570 664 L570 760 C570 773 563 780 550 780 L518 780 C505 780 498 773 498 760 L498 664 L383 664 C370 664 363 656 363 644 L363 624 C363 611 370 604 383 604 L498 604 L498 500 C498 473 485 466 462 483 C420 514 371 530 312 530 C166 530 49 414 49 262 C49 106 165 -10 313 -10 C380 -10 434 10 478 49 C498 67 511 63 516 38 L518 17 C521 5 528 0 540 0 L550 0 C563 0 570 7 570 20 L570 604 L674 604 C687 604 694 611 694 624 L694 644 C694 656 687 664 674 664 L674 664 Z M496 188 C496 173 494 160 485 146 C448 90 392 55 315 55 C213 55 125 145 125 262 C125 377 213 465 315 465 C392 465 449 429 485 374 C494 361 496 348 496 333 L496 188 Z " />
<glyph glyph-name="Emacron" unicode="&#x112;" horiz-adv-x="567" d="M167 854 L167 832 C167 819 175 812 187 812 L431 812 C443 812 451 819 451 832 L451 854 C451 867 443 874 431 874 L187 874 C175 874 167 867 167 854 L167 854 Z M129 0 L490 0 C503 0 510 7 510 20 L510 48 C510 61 503 68 490 68 L198 68 C189 68 183 74 183 83 L183 314 C183 323 189 329 198 329 L467 329 C479 329 487 336 487 349 L487 377 C487 389 479 397 467 397 L198 397 C189 397 183 403 183 412 L183 648 C183 657 189 663 198 663 L488 663 C500 663 508 670 508 683 L508 710 C508 723 500 730 488 730 L129 730 C114 730 106 722 106 707 L106 23 C106 8 114 0 129 0 L129 0 Z " />
<glyph glyph-name="emacron" unicode="&#x113;" horiz-adv-x="594" d="M157 674 L157 652 C157 639 165 632 177 632 L421 632 C433 632 441 639 441 652 L441 674 C441 687 433 694 421 694 L177 694 C165 694 157 687 157 674 L157 674 Z M49 262 C49 107 158 -10 308 -10 C419 -10 503 54 530 138 C534 152 525 160 512 160 L482 160 C471 160 463 155 459 144 C438 88 382 55 308 55 C216 55 147 116 127 206 C123 228 136 242 158 242 L514 241 C533 241 546 254 546 271 C547 412 445 530 306 530 C161 530 49 415 49 262 L49 262 Z M137 341 C164 417 229 466 305 466 C387 466 445 411 464 340 C471 317 458 303 435 303 L165 304 C141 304 128 319 137 341 L137 341 Z " />
<glyph glyph-name="Edotaccent" unicode="&#x116;" horiz-adv-x="567" d="M309 788 C340 788 366 814 366 847 C366 877 340 902 309 902 C277 902 252 877 252 847 C252 814 277 788 309 788 L309 788 Z M129 0 L490 0 C503 0 510 7 510 20 L510 48 C510 61 503 68 490 68 L198 68 C189 68 183 74 183 83 L183 314 C183 323 189 329 198 329 L467 329 C479 329 487 336 487 349 L487 377 C487 389 479 397 467 397 L198 397 C189 397 183 403 183 412 L183 648 C183 657 189 663 198 663 L488 663 C500 663 508 670 508 683 L508 710 C508 723 500 730 488 730 L129 730 C114 730 106 722 106 707 L106 23 C106 8 114 0 129 0 L129 0 Z " />
<glyph glyph-name="edotaccent" unicode="&#x117;" horiz-adv-x="594" d="M299 636 C330 636 356 662 356 695 C356 725 330 750 299 750 C267 750 242 725 242 695 C242 662 267 636 299 636 L299 636 Z M49 262 C49 107 158 -10 308 -10 C419 -10 503 54 530 138 C534 152 525 160 512 160 L482 160 C471 160 463 155 459 144 C438 88 382 55 308 55 C216 55 147 116 127 206 C123 228 136 242 158 242 L514 241 C533 241 546 254 546 271 C547 412 445 530 306 530 C161 530 49 415 49 262 L49 262 Z M137 341 C164 417 229 466 305 466 C387 466 445 411 464 340 C471 317 458 303 435 303 L165 304 C141 304 128 319 137 341 L137 341 Z " />
<glyph glyph-name="Eogonek" unicode="&#x118;" horiz-adv-x="567" d="M490 68 L198 68 C189 68 183 74 183 83 L183 314 C183 323 189 329 198 329 L467 329 C479 329 487 336 487 349 L487 377 C487 389 479 397 467 397 L198 397 C189 397 183 403 183 412 L183 648 C183 657 189 663 198 663 L488 663 C500 663 508 670 508 683 L508 710 C508 723 500 730 488 730 L129 730 C114 730 106 722 106 707 L106 23 C106 8 114 0 129 0 L423 0 C374 -32 345 -77 345 -127 C345 -188 388 -221 447 -221 C460 -221 474 -220 486 -216 C495 -214 499 -207 499 -198 L499 -184 C499 -173 492 -168 481 -170 C474 -171 465 -172 456 -172 C428 -172 407 -156 407 -124 C407 -76 428 -36 490 0 C503 0 510 7 510 20 L510 48 C510 61 503 68 490 68 L490 68 Z " />
<glyph glyph-name="eogonek" unicode="&#x119;" horiz-adv-x="594" d="M306 530 C161 530 49 415 49 262 C49 110 154 -6 300 -10 C260 -41 236 -82 236 -127 C236 -188 279 -221 338 -221 C351 -221 365 -220 377 -216 C386 -214 390 -207 390 -198 L390 -184 C390 -173 383 -168 372 -170 C365 -171 356 -172 347 -172 C319 -172 298 -156 298 -124 C298 -76 319 -36 381 0 C455 21 509 74 530 138 C534 152 525 160 512 160 L482 160 C471 160 463 155 459 144 C438 88 382 55 308 55 C216 55 147 116 127 206 C123 228 136 242 158 242 L514 241 C533 241 546 254 546 271 C547 412 445 530 306 530 L306 530 Z M435 303 L165 304 C141 304 128 319 137 341 C164 417 229 466 305 466 C387 466 445 411 464 340 C471 317 458 303 435 303 L435 303 Z " />
<glyph glyph-name="Ecaron" unicode="&#x11a;" horiz-adv-x="567" d="M158 883 C155 872 157 864 167 859 L284 806 C302 798 316 798 333 806 L450 859 C460 864 462 873 459 883 L455 897 C452 908 442 911 432 908 L326 871 C314 866 304 866 291 871 L185 908 C175 912 166 908 162 897 L158 883 Z M129 0 L490 0 C503 0 510 7 510 20 L510 48 C510 61 503 68 490 68 L198 68 C189 68 183 74 183 83 L183 314 C183 323 189 329 198 329 L467 329 C479 329 487 336 487 349 L487 377 C487 389 479 397 467 397 L198 397 C189 397 183 403 183 412 L183 648 C183 657 189 663 198 663 L488 663 C500 663 508 670 508 683 L508 710 C508 723 500 730 488 730 L129 730 C114 730 106 722 106 707 L106 23 C106 8 114 0 129 0 L129 0 Z " />
<glyph glyph-name="ecaron" unicode="&#x11b;" horiz-adv-x="594" d="M150 694 C147 683 149 675 159 670 L275 617 C292 609 306 609 323 617 L439 670 C449 675 451 684 448 694 L444 707 C441 718 431 721 421 718 L316 682 C304 677 294 677 282 682 L177 718 C167 722 158 718 154 707 L150 694 Z M49 262 C49 107 158 -10 308 -10 C419 -10 503 54 530 138 C534 152 525 160 512 160 L482 160 C471 160 463 155 459 144 C438 88 382 55 308 55 C216 55 147 116 127 206 C123 228 136 242 158 242 L514 241 C533 241 546 254 546 271 C547 412 445 530 306 530 C161 530 49 415 49 262 L49 262 Z M137 341 C164 417 229 466 305 466 C387 466 445 411 464 340 C471 317 458 303 435 303 L165 304 C141 304 128 319 137 341 L137 341 Z " />
<glyph glyph-name="Gbreve" unicode="&#x11e;" horiz-adv-x="824" d="M311 906 L286 905 C273 904 265 896 269 883 C288 817 358 780 427 780 C503 780 566 820 585 883 C589 896 581 904 567 905 L545 906 C534 906 527 901 522 890 C506 856 465 838 427 838 C386 838 347 858 334 890 C329 901 323 906 311 906 L311 906 Z M53 367 C53 142 230 -10 434 -10 C635 -10 769 119 769 303 L769 307 C769 320 761 329 744 329 L469 329 C457 329 449 322 449 309 L449 282 C449 269 457 262 469 262 L681 262 C691 262 697 256 694 246 C672 131 576 59 434 59 C273 59 132 180 132 365 C132 550 273 671 434 671 C572 671 666 590 689 475 C692 462 699 456 711 456 L744 456 C757 456 765 464 763 478 C738 626 609 740 434 740 C230 740 53 589 53 367 L53 367 Z " />
<glyph glyph-name="gbreve" unicode="&#x11f;" horiz-adv-x="658" d="M215 721 L190 720 C177 719 169 711 173 698 C192 632 262 595 331 595 C407 595 470 635 489 698 C493 711 485 719 471 720 L449 721 C438 721 431 716 426 705 C410 671 369 653 331 653 C290 653 251 673 238 705 C233 716 227 721 215 721 L215 721 Z M48 263 C48 110 164 -5 313 -5 C375 -5 425 12 466 47 C487 63 502 61 502 34 L502 21 C502 -79 421 -147 319 -147 C246 -147 184 -119 164 -73 C159 -62 152 -57 141 -57 L110 -57 C96 -57 88 -65 93 -79 C123 -159 209 -211 319 -211 C463 -211 571 -117 571 21 L571 500 C571 513 564 520 551 520 L538 520 C526 520 518 513 516 502 L515 481 C511 454 497 453 475 472 C433 510 378 530 311 530 C165 530 48 414 48 263 L48 263 Z M124 263 C124 377 212 465 316 465 C394 465 451 428 486 371 C495 358 497 346 497 331 L497 195 C497 180 495 167 486 153 C450 95 394 59 316 59 C212 59 124 149 124 263 L124 263 Z " />
<glyph glyph-name="Gdotaccent" unicode="&#x120;" horiz-adv-x="824" d="M425 788 C456 788 482 814 482 847 C482 877 456 902 425 902 C393 902 368 877 368 847 C368 814 393 788 425 788 L425 788 Z M53 367 C53 142 230 -10 434 -10 C635 -10 769 119 769 303 L769 307 C769 320 761 329 744 329 L469 329 C457 329 449 322 449 309 L449 282 C449 269 457 262 469 262 L681 262 C691 262 697 256 694 246 C672 131 576 59 434 59 C273 59 132 180 132 365 C132 550 273 671 434 671 C572 671 666 590 689 475 C692 462 699 456 711 456 L744 456 C757 456 765 464 763 478 C738 626 609 740 434 740 C230 740 53 589 53 367 L53 367 Z " />
<glyph glyph-name="gdotaccent" unicode="&#x121;" horiz-adv-x="658" d="M332 636 C363 636 389 662 389 695 C389 725 363 750 332 750 C300 750 275 725 275 695 C275 662 300 636 332 636 L332 636 Z M48 263 C48 110 164 -5 313 -5 C375 -5 425 12 466 47 C487 63 502 61 502 34 L502 21 C502 -79 421 -147 319 -147 C246 -147 184 -119 164 -73 C159 -62 152 -57 141 -57 L110 -57 C96 -57 88 -65 93 -79 C123 -159 209 -211 319 -211 C463 -211 571 -117 571 21 L571 500 C571 513 564 520 551 520 L538 520 C526 520 518 513 516 502 L515 481 C511 454 497 453 475 472 C433 510 378 530 311 530 C165 530 48 414 48 263 L48 263 Z M124 263 C124 377 212 465 316 465 C394 465 451 428 486 371 C495 358 497 346 497 331 L497 195 C497 180 495 167 486 153 C450 95 394 59 316 59 C212 59 124 149 124 263 L124 263 Z " />
<glyph glyph-name="Gcommaaccent" unicode="&#x122;" horiz-adv-x="824" d="M53 367 C53 142 230 -10 434 -10 C635 -10 769 119 769 303 L769 307 C769 320 761 329 744 329 L469 329 C457 329 449 322 449 309 L449 282 C449 269 457 262 469 262 L681 262 C691 262 697 256 694 246 C672 131 576 59 434 59 C273 59 132 180 132 365 C132 550 273 671 434 671 C572 671 666 590 689 475 C692 462 699 456 711 456 L744 456 C757 456 765 464 763 478 C738 626 609 740 434 740 C230 740 53 589 53 367 L53 367 Z M398 -51 L375 -190 C373 -204 379 -212 393 -212 L410 -212 C421 -212 429 -207 432 -195 L471 -55 C475 -41 469 -33 454 -33 L419 -33 C407 -33 399 -39 398 -51 L398 -51 Z " />
<glyph glyph-name="gcommaaccent" unicode="&#x123;" horiz-adv-x="658" d="M359 615 L382 754 C384 768 378 776 364 776 L347 776 C336 776 328 771 325 759 L286 619 C282 605 288 597 303 597 L338 597 C350 597 358 603 359 615 L359 615 Z M48 263 C48 110 164 -5 313 -5 C375 -5 425 12 466 47 C487 63 502 61 502 34 L502 21 C502 -79 421 -147 319 -147 C246 -147 184 -119 164 -73 C159 -62 152 -57 141 -57 L110 -57 C96 -57 88 -65 93 -79 C123 -159 209 -211 319 -211 C463 -211 571 -117 571 21 L571 500 C571 513 564 520 551 520 L538 520 C526 520 518 513 516 502 L515 481 C511 454 497 453 475 472 C433 510 378 530 311 530 C165 530 48 414 48 263 L48 263 Z M124 263 C124 377 212 465 316 465 C394 465 451 428 486 371 C495 358 497 346 497 331 L497 195 C497 180 495 167 486 153 C450 95 394 59 316 59 C212 59 124 149 124 263 L124 263 Z " />
<glyph glyph-name="Hbar" unicode="&#x126;" horiz-adv-x="838" d="M787 594 L732 594 L732 710 C732 723 725 730 712 730 L674 730 C661 730 654 723 654 710 L654 594 L184 594 L184 710 C184 723 177 730 164 730 L126 730 C113 730 106 723 106 710 L106 594 L39 594 C26 594 18 586 18 573 L18 561 C18 549 26 541 39 541 L106 541 L106 20 C106 7 113 0 126 0 L164 0 C177 0 184 7 184 20 L184 306 C184 320 192 328 206 328 L632 328 C646 328 654 320 654 306 L654 20 C654 7 661 0 674 0 L712 0 C725 0 732 7 732 20 L732 541 L787 541 C800 541 807 549 807 561 L807 573 C807 586 800 594 787 594 L787 594 Z M654 424 C654 410 646 402 632 402 L206 402 C192 402 184 410 184 424 L184 541 L654 541 L654 424 Z " />
<glyph glyph-name="hbar" unicode="&#x127;" horiz-adv-x="646" d="M385 530 C322 530 260 510 203 477 C170 457 158 467 158 494 L158 603 L307 603 C320 603 327 610 327 623 L327 643 C327 655 320 663 307 663 L158 663 L158 760 C158 773 150 780 138 780 L107 780 C94 780 87 773 87 760 L87 663 L16 663 C3 663 -4 655 -4 643 L-4 623 C-4 610 3 603 16 603 L87 603 L87 20 C87 7 94 0 107 0 L141 0 C154 0 161 7 161 20 L161 356 C161 374 168 386 183 396 C247 437 313 464 370 464 C446 464 491 420 491 336 L491 20 C491 7 498 0 511 0 L545 0 C558 0 565 7 565 20 L565 339 C565 464 498 530 385 530 L385 530 Z " />
<glyph glyph-name="Itilde" unicode="&#x128;" horiz-adv-x="291" d="M293 884 L281 886 C269 889 263 884 256 874 C246 856 231 851 211 851 C171 851 127 898 72 898 C30 898 -3 879 -15 833 C-18 820 -11 811 1 808 L14 805 C25 803 33 807 40 818 C49 833 63 840 84 840 C124 839 157 794 218 794 C264 794 297 817 309 861 C313 873 305 882 293 884 L293 884 Z M164 730 L126 730 C113 730 106 723 106 710 L106 20 C106 7 113 0 126 0 L164 0 C177 0 184 7 184 20 L184 710 C184 723 177 730 164 730 L164 730 Z " />
<glyph glyph-name="itilde" unicode="&#x129;" horiz-adv-x="253" d="M263 694 L252 696 C240 699 235 694 228 684 C218 666 204 661 185 661 C147 661 105 708 52 708 C12 708 -20 689 -31 643 C-34 630 -27 621 -16 618 L-3 615 C7 613 15 617 22 628 C30 643 44 650 64 650 C102 649 133 604 192 604 C235 604 267 627 278 671 C282 683 275 692 263 694 L263 694 Z M144 520 L109 520 C96 520 89 513 89 500 L89 20 C89 7 96 0 109 0 L144 0 C156 0 164 7 164 20 L164 500 C164 513 156 520 144 520 L144 520 Z " />
<glyph glyph-name="Imacron" unicode="&#x12a;" horiz-adv-x="291" d="M3 854 L3 832 C3 819 11 812 23 812 L267 812 C279 812 287 819 287 832 L287 854 C287 867 279 874 267 874 L23 874 C11 874 3 867 3 854 L3 854 Z M164 730 L126 730 C113 730 106 723 106 710 L106 20 C106 7 113 0 126 0 L164 0 C177 0 184 7 184 20 L184 710 C184 723 177 730 164 730 L164 730 Z " />
<glyph glyph-name="imacron" unicode="&#x12b;" horiz-adv-x="253" d="M-1 674 L-1 652 C-1 639 6 632 17 632 L241 632 C252 632 260 639 260 652 L260 674 C260 687 252 694 241 694 L17 694 C6 694 -1 687 -1 674 L-1 674 Z M144 520 L109 520 C96 520 89 513 89 500 L89 20 C89 7 96 0 109 0 L144 0 C156 0 164 7 164 20 L164 500 C164 513 156 520 144 520 L144 520 Z " />
<glyph glyph-name="Iogonek" unicode="&#x12e;" horiz-adv-x="291" d="M184 20 L184 710 C184 723 177 730 164 730 L126 730 C113 730 106 723 106 710 L106 20 C106 13 108 8 112 5 C60 -28 28 -74 28 -126 C28 -187 71 -220 130 -220 C143 -220 157 -219 169 -215 C178 -213 182 -206 182 -197 L182 -183 C182 -172 175 -167 164 -169 C157 -170 148 -171 139 -171 C111 -171 90 -155 90 -123 C90 -75 111 -35 173 1 C180 4 184 10 184 20 L184 20 Z " />
<glyph glyph-name="iogonek" unicode="&#x12f;" horiz-adv-x="253" d="M129 750 C97 750 72 725 72 695 C72 662 97 636 129 636 C160 636 186 662 186 695 C186 725 160 750 129 750 L129 750 Z M144 520 L109 520 C96 520 89 513 89 500 L89 20 C89 14 91 9 94 6 C40 -27 8 -73 8 -126 C8 -187 51 -220 110 -220 C123 -220 137 -219 149 -215 C158 -213 162 -206 162 -197 L162 -183 C162 -172 155 -167 144 -169 C137 -170 128 -171 119 -171 C91 -171 70 -155 70 -123 C70 -75 91 -35 153 1 C160 4 164 10 164 20 L164 500 C164 513 156 520 144 520 L144 520 Z " />
<glyph glyph-name="Idotaccent" unicode="&#x130;" horiz-adv-x="291" d="M145 788 C176 788 202 814 202 847 C202 877 176 902 145 902 C113 902 88 877 88 847 C88 814 113 788 145 788 L145 788 Z M164 730 L126 730 C113 730 106 723 106 710 L106 20 C106 7 113 0 126 0 L164 0 C177 0 184 7 184 20 L184 710 C184 723 177 730 164 730 L164 730 Z " />
<glyph glyph-name="dotlessi" unicode="&#x131;" horiz-adv-x="253" d="M144 520 L109 520 C96 520 89 513 89 500 L89 20 C89 7 96 0 109 0 L144 0 C156 0 164 7 164 20 L164 500 C164 513 156 520 144 520 L144 520 Z " />
<glyph glyph-name="IJ" unicode="&#x132;" horiz-adv-x="966" d="M164 730 L126 730 C113 730 106 723 106 710 L106 20 C106 7 113 0 126 0 L164 0 C177 0 184 7 184 20 L184 710 C184 723 177 730 164 730 L164 730 Z M315 222 C337 86 439 -10 600 -10 C767 -10 869 115 869 267 L870 702 C870 719 859 730 841 730 L514 730 C501 730 494 723 494 710 L494 679 C494 666 501 659 514 659 L770 659 C785 659 793 652 793 637 L792 267 C792 155 720 62 600 62 C484 62 411 125 390 226 C387 238 380 244 368 244 L334 244 C320 244 313 236 315 222 L315 222 Z " />
<glyph glyph-name="ij" unicode="&#x133;" horiz-adv-x="512" d="M129 636 C160 636 186 662 186 695 C186 725 160 750 129 750 C97 750 72 725 72 695 C72 662 97 636 129 636 L129 636 Z M387 636 C418 636 444 662 444 695 C444 725 418 750 387 750 C355 750 330 725 330 695 C330 662 355 636 387 636 L387 636 Z M144 520 L109 520 C96 520 89 513 89 500 L89 20 C89 7 96 0 109 0 L144 0 C156 0 164 7 164 20 L164 500 C164 513 156 520 144 520 L144 520 Z M299 -207 C373 -207 422 -154 422 -70 L422 500 C422 513 415 520 402 520 L368 520 C355 520 348 513 348 500 L348 -65 C348 -117 320 -141 281 -141 C268 -141 257 -139 247 -137 C234 -135 227 -139 225 -153 L222 -177 C221 -190 225 -198 237 -201 C256 -205 277 -207 299 -207 L299 -207 Z " />
<glyph glyph-name="Kcommaaccent" unicode="&#x136;" horiz-adv-x="638" d="M164 730 L126 730 C113 730 106 723 106 710 L106 20 C106 7 113 0 126 0 L164 0 C177 0 184 7 184 20 L184 710 C184 723 177 730 164 730 L164 730 Z M249 330 L529 11 C536 3 544 0 554 0 L605 0 C622 0 628 12 616 25 L320 358 C314 364 314 373 320 380 L596 705 C607 718 602 730 585 730 L539 730 C528 730 520 727 514 719 L249 403 C241 394 239 386 239 375 L239 358 C239 347 242 338 249 330 L249 330 Z M302 -51 L279 -190 C277 -204 283 -212 297 -212 L314 -212 C325 -212 333 -207 336 -195 L375 -55 C379 -41 373 -33 358 -33 L323 -33 C311 -33 303 -39 302 -51 L302 -51 Z " />
<glyph glyph-name="kcommaaccent" unicode="&#x137;" horiz-adv-x="561" d="M107 0 L141 0 C154 0 161 7 161 20 L161 106 C161 122 165 135 177 147 L251 220 C266 236 283 235 297 217 L462 12 C468 4 475 0 486 0 L529 0 C546 0 551 12 541 25 L344 274 C332 291 333 306 347 320 L515 495 C527 508 521 520 504 520 L463 520 C452 520 445 518 438 510 L201 262 C176 235 161 239 161 277 L161 760 C161 773 154 780 141 780 L107 780 C94 780 87 773 87 760 L87 20 C87 7 94 0 107 0 L107 0 Z M275 -51 L252 -190 C250 -204 256 -212 270 -212 L287 -212 C298 -212 306 -207 309 -195 L348 -55 C352 -41 346 -33 331 -33 L296 -33 C284 -33 276 -39 275 -51 L275 -51 Z " />
<glyph glyph-name="kgreenlandic" unicode="&#x138;" horiz-adv-x="561" d="M107 0 L141 0 C154 0 161 7 161 20 L161 106 C161 122 165 134 177 146 L254 224 C270 240 287 240 301 222 L462 13 C468 4 475 0 486 0 L529 0 C546 0 551 12 541 25 L344 274 C331 291 331 305 346 320 L515 495 C527 508 521 520 504 520 L463 520 C452 520 446 517 439 510 L200 255 C177 230 161 235 161 269 L161 500 C161 513 154 520 141 520 L107 520 C94 520 87 513 87 500 L87 20 C87 7 94 0 107 0 L107 0 Z " />
<glyph glyph-name="Lacute" unicode="&#x139;" horiz-adv-x="574" d="M254 906 L75 851 C63 847 59 838 62 826 L63 820 C67 808 76 803 88 805 L271 838 C285 841 290 849 287 862 L279 893 C276 904 267 911 254 906 L254 906 Z M134 0 L540 0 C553 0 560 7 560 20 L560 52 C560 65 553 72 540 72 L199 72 C190 72 184 78 184 87 L184 710 C184 723 177 730 164 730 L126 730 C113 730 106 723 106 710 L106 28 C106 11 117 0 134 0 L134 0 Z " />
<glyph glyph-name="lacute" unicode="&#x13a;" horiz-adv-x="253" d="M200 956 L21 901 C9 897 5 888 8 876 L9 870 C13 858 22 853 34 855 L217 888 C231 891 236 899 233 912 L225 943 C222 954 213 961 200 956 L200 956 Z M144 780 L109 780 C96 780 89 773 89 760 L89 20 C89 7 96 0 109 0 L144 0 C156 0 164 7 164 20 L164 760 C164 773 156 780 144 780 L144 780 Z " />
<glyph glyph-name="Lcommaaccent" unicode="&#x13b;" horiz-adv-x="574" d="M134 0 L540 0 C553 0 560 7 560 20 L560 52 C560 65 553 72 540 72 L199 72 C190 72 184 78 184 87 L184 710 C184 723 177 730 164 730 L126 730 C113 730 106 723 106 710 L106 28 C106 11 117 0 134 0 L134 0 Z M305 -51 L282 -190 C280 -204 286 -212 300 -212 L317 -212 C328 -212 336 -207 339 -195 L378 -55 C382 -41 376 -33 361 -33 L326 -33 C314 -33 306 -39 305 -51 L305 -51 Z " />
<glyph glyph-name="lcommaaccent" unicode="&#x13c;" horiz-adv-x="253" d="M144 780 L109 780 C96 780 89 773 89 760 L89 20 C89 7 96 0 109 0 L144 0 C156 0 164 7 164 20 L164 760 C164 773 156 780 144 780 L144 780 Z M91 -51 L68 -190 C66 -204 72 -212 86 -212 L103 -212 C114 -212 122 -207 125 -195 L164 -55 C168 -41 162 -33 147 -33 L112 -33 C100 -33 92 -39 91 -51 L91 -51 Z " />
<glyph glyph-name="Lcaron" unicode="&#x13d;" horiz-adv-x="574" d="M417 570 L402 570 C389 570 382 577 383 591 L397 766 C398 778 406 785 418 785 L443 785 C457 785 463 777 462 764 L439 588 C437 576 429 570 417 570 L417 570 Z M134 0 L540 0 C553 0 560 7 560 20 L560 52 C560 65 553 72 540 72 L199 72 C190 72 184 78 184 87 L184 710 C184 723 177 730 164 730 L126 730 C113 730 106 723 106 710 L106 28 C106 11 117 0 134 0 L134 0 Z " />
<glyph glyph-name="lcaron" unicode="&#x13e;" horiz-adv-x="253" d="M266 646 L251 646 C238 646 231 653 232 667 L246 842 C247 854 255 861 267 861 L292 861 C306 861 312 853 311 840 L288 664 C286 652 278 646 266 646 L266 646 Z M144 780 L109 780 C96 780 89 773 89 760 L89 20 C89 7 96 0 109 0 L144 0 C156 0 164 7 164 20 L164 760 C164 773 156 780 144 780 L144 780 Z " />
<glyph glyph-name="Ldot" unicode="&#x13f;" horiz-adv-x="585" d="M134 0 L540 0 C553 0 560 7 560 20 L560 52 C560 65 553 72 540 72 L199 72 C190 72 184 78 184 87 L184 710 C184 723 177 730 164 730 L126 730 C113 730 106 723 106 710 L106 28 C106 11 117 0 134 0 L134 0 Z M465 352 C496 352 522 378 522 411 C522 441 496 466 465 466 C433 466 408 441 408 411 C408 378 433 352 465 352 L465 352 Z " />
<glyph glyph-name="ldot" unicode="&#x140;" horiz-adv-x="373" d="M144 780 L109 780 C96 780 89 773 89 760 L89 20 C89 7 96 0 109 0 L144 0 C156 0 164 7 164 20 L164 760 C164 773 156 780 144 780 L144 780 Z M313 297 C342 297 367 322 367 353 C367 381 342 406 313 406 C283 406 259 381 259 353 C259 322 283 297 313 297 L313 297 Z " />
<glyph glyph-name="Lslash" unicode="&#x141;" horiz-adv-x="574" d="M540 72 L199 72 C190 72 184 78 184 87 L184 348 L302 406 C313 411 317 421 312 432 L307 446 C303 458 293 463 281 457 L184 409 L184 710 C184 723 177 730 164 730 L126 730 C113 730 106 723 106 710 L106 371 L7 322 C-4 316 -8 307 -4 296 L0 282 C4 269 14 265 26 271 L106 310 L106 28 C106 11 117 0 134 0 L540 0 C553 0 560 7 560 20 L560 52 C560 65 553 72 540 72 L540 72 Z " />
<glyph glyph-name="lslash" unicode="&#x142;" horiz-adv-x="253" d="M281 471 L275 483 C269 496 257 501 244 495 L164 456 L164 760 C164 773 156 780 144 780 L109 780 C96 780 89 773 89 760 L89 419 L-10 371 C-23 365 -27 353 -22 339 L-17 328 C-11 314 1 309 15 315 L89 351 L89 20 C89 7 96 0 109 0 L144 0 C156 0 164 7 164 20 L164 388 L269 440 C283 446 287 458 281 471 L281 471 Z " />
<glyph glyph-name="Nacute" unicode="&#x143;" horiz-adv-x="828" d="M500 906 L321 851 C309 847 305 838 308 826 L309 820 C313 808 322 803 334 805 L517 838 C531 841 536 849 533 862 L525 893 C522 904 513 911 500 906 L500 906 Z M126 0 L157 0 C170 0 177 7 177 20 L177 568 C177 582 187 585 195 574 L644 16 C653 5 663 0 677 0 L694 0 C711 0 721 10 721 27 L721 710 C721 723 714 730 701 730 L671 730 C658 730 651 723 651 710 L651 144 C651 130 640 126 632 137 L174 714 C165 725 156 730 142 730 L133 730 C116 730 106 720 106 703 L106 20 C106 7 113 0 126 0 L126 0 Z " />
<glyph glyph-name="nacute" unicode="&#x144;" horiz-adv-x="652" d="M406 730 L245 634 C234 627 232 618 238 607 L241 601 C247 590 257 588 268 593 L439 668 C452 674 454 683 448 695 L433 723 C428 734 417 738 406 730 L406 730 Z M107 0 L141 0 C154 0 161 7 161 20 L161 356 C161 374 168 386 183 396 C247 437 314 464 373 464 C452 464 497 420 497 336 L497 20 C497 7 504 0 517 0 L552 0 C564 0 572 7 572 20 L572 339 C572 464 504 530 392 530 C321 530 255 510 188 468 C164 452 150 458 146 484 L144 502 C142 514 134 520 122 520 L107 520 C94 520 87 513 87 500 L87 20 C87 7 94 0 107 0 L107 0 Z " />
<glyph glyph-name="Ncommaaccent" unicode="&#x145;" horiz-adv-x="828" d="M126 0 L157 0 C170 0 177 7 177 20 L177 568 C177 582 187 585 195 574 L644 16 C653 5 663 0 677 0 L694 0 C711 0 721 10 721 27 L721 710 C721 723 714 730 701 730 L671 730 C658 730 651 723 651 710 L651 144 C651 130 640 126 632 137 L174 714 C165 725 156 730 142 730 L133 730 C116 730 106 720 106 703 L106 20 C106 7 113 0 126 0 L126 0 Z M385 -51 L362 -190 C360 -204 366 -212 380 -212 L397 -212 C408 -212 416 -207 419 -195 L458 -55 C462 -41 456 -33 441 -33 L406 -33 C394 -33 386 -39 385 -51 L385 -51 Z " />
<glyph glyph-name="ncommaaccent" unicode="&#x146;" horiz-adv-x="652" d="M107 0 L141 0 C154 0 161 7 161 20 L161 356 C161 374 168 386 183 396 C247 437 314 464 373 464 C452 464 497 420 497 336 L497 20 C497 7 504 0 517 0 L552 0 C564 0 572 7 572 20 L572 339 C572 464 504 530 392 530 C321 530 255 510 188 468 C164 452 150 458 146 484 L144 502 C142 514 134 520 122 520 L107 520 C94 520 87 513 87 500 L87 20 C87 7 94 0 107 0 L107 0 Z M296 -51 L273 -190 C271 -204 277 -212 291 -212 L308 -212 C319 -212 327 -207 330 -195 L369 -55 C373 -41 367 -33 352 -33 L317 -33 C305 -33 297 -39 296 -51 L296 -51 Z " />
<glyph glyph-name="Ncaron" unicode="&#x147;" horiz-adv-x="828" d="M265 883 C262 872 264 864 274 859 L391 806 C409 798 423 798 440 806 L557 859 C567 864 569 873 566 883 L562 897 C559 908 549 911 539 908 L433 871 C421 866 411 866 398 871 L292 908 C282 912 273 908 269 897 L265 883 Z M126 0 L157 0 C170 0 177 7 177 20 L177 568 C177 582 187 585 195 574 L644 16 C653 5 663 0 677 0 L694 0 C711 0 721 10 721 27 L721 710 C721 723 714 730 701 730 L671 730 C658 730 651 723 651 710 L651 144 C651 130 640 126 632 137 L174 714 C165 725 156 730 142 730 L133 730 C116 730 106 720 106 703 L106 20 C106 7 113 0 126 0 L126 0 Z " />
<glyph glyph-name="ncaron" unicode="&#x148;" horiz-adv-x="652" d="M183 694 C180 683 182 675 192 670 L308 617 C325 609 339 609 356 617 L472 670 C482 675 484 684 481 694 L477 707 C474 718 464 721 454 718 L349 682 C337 677 327 677 315 682 L210 718 C200 722 191 718 187 707 L183 694 Z M107 0 L141 0 C154 0 161 7 161 20 L161 356 C161 374 168 386 183 396 C247 437 314 464 373 464 C452 464 497 420 497 336 L497 20 C497 7 504 0 517 0 L552 0 C564 0 572 7 572 20 L572 339 C572 464 504 530 392 530 C321 530 255 510 188 468 C164 452 150 458 146 484 L144 502 C142 514 134 520 122 520 L107 520 C94 520 87 513 87 500 L87 20 C87 7 94 0 107 0 L107 0 Z " />
<glyph glyph-name="napostrophe" unicode="&#x149;" horiz-adv-x="682" d="M1 736 L-15 589 C-16 576 -9 568 4 568 L23 568 C35 568 42 573 45 585 L72 733 C75 747 68 754 54 754 L23 754 C11 754 3 748 1 736 L1 736 Z M107 0 L141 0 C154 0 161 7 161 20 L161 356 C161 374 168 386 183 396 C247 437 314 464 373 464 C452 464 497 420 497 336 L497 20 C497 7 504 0 517 0 L552 0 C564 0 572 7 572 20 L572 339 C572 464 504 530 392 530 C321 530 255 510 188 468 C164 452 150 458 146 484 L144 502 C142 514 134 520 122 520 L107 520 C94 520 87 513 87 500 L87 20 C87 7 94 0 107 0 L107 0 Z " />
<glyph glyph-name="Eng" unicode="&#x14a;" horiz-adv-x="821" d="M126 0 L158 0 C171 0 178 7 178 20 L178 592 C178 606 188 610 197 600 L636 140 C641 135 643 129 643 122 L643 111 C643 -38 571 -124 402 -133 C389 -133 382 -140 382 -153 L382 -172 C382 -184 389 -192 402 -191 C619 -184 715 -65 715 111 L715 710 C715 723 708 730 695 730 L663 730 C650 730 643 723 643 710 L643 253 C643 240 634 236 625 246 L179 715 C170 725 160 730 147 730 L133 730 C116 730 106 720 106 703 L106 20 C106 7 113 0 126 0 L126 0 Z " />
<glyph glyph-name="eng" unicode="&#x14b;" horiz-adv-x="652" d="M107 0 L141 0 C154 0 161 7 161 20 L161 363 C161 376 166 385 176 392 C243 435 312 464 373 464 C452 464 497 420 497 336 L497 -65 C497 -117 469 -141 430 -141 C417 -141 406 -139 396 -137 C383 -135 376 -140 374 -153 L371 -177 C369 -190 374 -198 386 -201 C405 -205 426 -207 448 -207 C521 -207 572 -152 572 -70 L572 339 C572 464 504 530 392 530 C318 530 249 506 178 461 C162 452 150 457 147 474 L144 502 C142 514 134 520 122 520 L107 520 C94 520 87 513 87 500 L87 20 C87 7 94 0 107 0 L107 0 Z " />
<glyph glyph-name="Omacron" unicode="&#x14c;" horiz-adv-x="872" d="M293 854 L293 832 C293 819 301 812 313 812 L557 812 C569 812 577 819 577 832 L577 854 C577 867 569 874 557 874 L313 874 C301 874 293 867 293 854 L293 854 Z M53 366 C53 142 228 -10 435 -10 C644 -10 819 142 819 366 C819 589 644 740 435 740 C228 740 53 589 53 366 L53 366 Z M132 366 C132 550 271 671 435 671 C601 671 739 550 739 366 C739 181 601 59 435 59 C271 59 132 181 132 366 L132 366 Z " />
<glyph glyph-name="omacron" unicode="&#x14d;" horiz-adv-x="641" d="M177 674 L177 652 C177 639 185 632 197 632 L441 632 C453 632 461 639 461 652 L461 674 C461 687 453 694 441 694 L197 694 C185 694 177 687 177 674 L177 674 Z M49 262 C49 111 162 -10 321 -10 C479 -10 592 111 592 262 C592 411 479 530 321 530 C162 530 49 411 49 262 L49 262 Z M123 260 C123 374 205 465 321 465 C436 465 517 374 517 260 C517 147 436 55 321 55 C205 55 123 147 123 260 L123 260 Z " />
<glyph glyph-name="Ohungarumlaut" unicode="&#x150;" horiz-adv-x="872" d="M370 909 L326 808 C320 794 326 785 342 785 L357 785 C368 785 376 790 381 798 L443 899 C451 913 446 923 430 923 L394 924 C382 924 374 919 370 909 L370 909 Z M518 909 L473 808 C468 794 474 785 489 785 L505 785 C515 785 523 790 529 798 L590 899 C598 913 594 923 578 923 L541 924 C530 924 522 919 518 909 L518 909 Z M53 366 C53 142 228 -10 435 -10 C644 -10 819 142 819 366 C819 589 644 740 435 740 C228 740 53 589 53 366 L53 366 Z M132 366 C132 550 271 671 435 671 C601 671 739 550 739 366 C739 181 601 59 435 59 C271 59 132 181 132 366 L132 366 Z " />
<glyph glyph-name="ohungarumlaut" unicode="&#x151;" horiz-adv-x="641" d="M252 719 L208 618 C202 604 208 595 224 595 L239 595 C250 595 258 600 263 608 L325 709 C333 723 328 733 312 733 L276 734 C264 734 256 729 252 719 L252 719 Z M400 719 L355 618 C350 604 356 595 371 595 L387 595 C397 595 405 600 411 608 L472 709 C480 723 476 733 460 733 L423 734 C412 734 404 729 400 719 L400 719 Z M49 262 C49 111 162 -10 321 -10 C479 -10 592 111 592 262 C592 411 479 530 321 530 C162 530 49 411 49 262 L49 262 Z M123 260 C123 374 205 465 321 465 C436 465 517 374 517 260 C517 147 436 55 321 55 C205 55 123 147 123 260 L123 260 Z " />
<glyph glyph-name="OE" unicode="&#x152;" horiz-adv-x="1210" d="M1131 397 L837 397 C824 397 816 404 816 418 L816 641 C816 654 824 662 837 662 L1109 662 C1122 662 1129 669 1129 682 L1129 710 C1129 723 1122 730 1109 730 L762 730 C747 730 739 722 739 707 L739 600 C668 688 557 740 435 740 C228 740 53 589 53 366 C53 142 228 -10 435 -10 C557 -10 668 42 739 130 L739 23 C739 8 747 0 762 0 L1123 0 C1136 0 1143 7 1143 20 L1143 48 C1143 61 1136 68 1123 68 L837 68 C824 68 816 76 816 89 L816 308 C816 321 824 329 837 329 L1131 329 C1144 329 1152 336 1152 349 L1152 377 C1152 389 1144 397 1131 397 L1131 397 Z M435 59 C271 59 132 181 132 366 C132 550 271 671 435 671 C601 671 739 550 739 366 C739 181 601 59 435 59 L435 59 Z " />
<glyph glyph-name="oe" unicode="&#x153;" horiz-adv-x="1043" d="M49 262 C49 111 162 -10 321 -10 C403 -10 473 25 520 82 C536 99 549 98 563 82 C608 24 677 -10 761 -10 C867 -10 953 54 979 138 C983 152 975 160 961 160 L931 160 C919 160 913 155 908 144 C886 88 828 52 761 52 C662 52 593 117 573 206 C568 229 581 242 603 242 L955 242 C981 242 995 256 995 277 C996 412 891 530 760 530 C678 530 609 497 564 442 C549 425 536 425 521 441 C474 496 404 530 321 530 C162 530 49 411 49 262 L49 262 Z M581 339 C606 417 675 468 759 468 C835 468 894 410 913 337 C920 315 906 301 884 301 L609 302 C586 302 573 317 581 339 L581 339 Z M123 260 C123 374 205 465 321 465 C402 465 471 422 500 354 C507 338 507 327 504 311 C501 295 501 280 501 262 C501 245 502 227 505 211 C508 195 507 184 501 169 C472 100 402 55 321 55 C205 55 123 147 123 260 L123 260 Z " />
<glyph glyph-name="Racute" unicode="&#x154;" horiz-adv-x="613" d="M371 906 L192 851 C180 847 176 838 179 826 L180 820 C184 808 193 803 205 805 L388 838 C402 841 407 849 404 862 L396 893 C393 904 384 911 371 906 L371 906 Z M106 20 C106 7 113 0 126 0 L164 0 C177 0 184 7 184 20 L184 234 C184 248 193 253 203 242 L450 10 C458 3 466 0 475 0 L530 -1 C548 -1 553 12 540 24 L298 244 C288 253 291 264 301 265 L312 266 C439 270 561 362 561 492 C561 634 436 730 264 730 L129 730 C114 730 106 722 106 707 L106 20 Z M184 342 L184 647 C184 656 190 662 199 662 L263 662 C395 662 482 594 482 492 C482 392 395 327 264 327 L199 327 C190 327 184 333 184 342 L184 342 Z " />
<glyph glyph-name="racute" unicode="&#x155;" horiz-adv-x="406" d="M288 730 L127 634 C116 627 114 618 120 607 L123 601 C129 590 139 588 150 593 L321 668 C334 674 336 683 330 695 L315 723 C310 734 299 738 288 730 L288 730 Z M107 0 L141 0 C154 0 161 7 161 20 L161 350 C161 367 167 380 181 391 C237 436 283 458 323 458 C337 458 351 457 362 454 C376 451 384 457 386 470 L390 502 C392 515 387 523 375 526 C363 528 351 530 337 530 C292 530 241 510 185 470 C164 455 148 460 144 484 L143 502 C141 513 134 520 122 520 L107 520 C94 520 87 513 87 500 L87 20 C87 7 94 0 107 0 L107 0 Z " />
<glyph glyph-name="Rcommaaccent" unicode="&#x156;" horiz-adv-x="613" d="M106 20 C106 7 113 0 126 0 L164 0 C177 0 184 7 184 20 L184 234 C184 248 193 253 203 242 L450 10 C458 3 466 0 475 0 L530 -1 C548 -1 553 12 540 24 L298 244 C288 253 291 264 301 265 L312 266 C439 270 561 362 561 492 C561 634 436 730 264 730 L129 730 C114 730 106 722 106 707 L106 20 Z M184 342 L184 647 C184 656 190 662 199 662 L263 662 C395 662 482 594 482 492 C482 392 395 327 264 327 L199 327 C190 327 184 333 184 342 L184 342 Z M289 -51 L266 -190 C264 -204 270 -212 284 -212 L301 -212 C312 -212 320 -207 323 -195 L362 -55 C366 -41 360 -33 345 -33 L310 -33 C298 -33 290 -39 289 -51 L289 -51 Z " />
<glyph glyph-name="rcommaaccent" unicode="&#x157;" horiz-adv-x="406" d="M107 0 L141 0 C154 0 161 7 161 20 L161 350 C161 367 167 380 181 391 C237 436 283 458 323 458 C337 458 351 457 362 454 C376 451 384 457 386 470 L390 502 C392 515 387 523 375 526 C363 528 351 530 337 530 C292 530 241 510 185 470 C164 455 148 460 144 484 L143 502 C141 513 134 520 122 520 L107 520 C94 520 87 513 87 500 L87 20 C87 7 94 0 107 0 L107 0 Z M87 -51 L64 -190 C62 -204 68 -212 82 -212 L99 -212 C110 -212 118 -207 121 -195 L160 -55 C164 -41 158 -33 143 -33 L108 -33 C96 -33 88 -39 87 -51 L87 -51 Z " />
<glyph glyph-name="Rcaron" unicode="&#x158;" horiz-adv-x="613" d="M136 883 C133 872 135 864 145 859 L262 806 C280 798 294 798 311 806 L428 859 C438 864 440 873 437 883 L433 897 C430 908 420 911 410 908 L304 871 C292 866 282 866 269 871 L163 908 C153 912 144 908 140 897 L136 883 Z M106 20 C106 7 113 0 126 0 L164 0 C177 0 184 7 184 20 L184 234 C184 248 193 253 203 242 L450 10 C458 3 466 0 475 0 L530 -1 C548 -1 553 12 540 24 L298 244 C288 253 291 264 301 265 L312 266 C439 270 561 362 561 492 C561 634 436 730 264 730 L129 730 C114 730 106 722 106 707 L106 20 Z M184 342 L184 647 C184 656 190 662 199 662 L263 662 C395 662 482 594 482 492 C482 392 395 327 264 327 L199 327 C190 327 184 333 184 342 L184 342 Z " />
<glyph glyph-name="rcaron" unicode="&#x159;" horiz-adv-x="406" d="M65 694 C62 683 64 675 74 670 L190 617 C207 609 221 609 238 617 L354 670 C364 675 366 684 363 694 L359 707 C356 718 346 721 336 718 L231 682 C219 677 209 677 197 682 L92 718 C82 722 73 718 69 707 L65 694 Z M107 0 L141 0 C154 0 161 7 161 20 L161 350 C161 367 167 380 181 391 C237 436 283 458 323 458 C337 458 351 457 362 454 C376 451 384 457 386 470 L390 502 C392 515 387 523 375 526 C363 528 351 530 337 530 C292 530 241 510 185 470 C164 455 148 460 144 484 L143 502 C141 513 134 520 122 520 L107 520 C94 520 87 513 87 500 L87 20 C87 7 94 0 107 0 L107 0 Z " />
<glyph glyph-name="Sacute" unicode="&#x15a;" horiz-adv-x="622" d="M397 906 L218 851 C206 847 202 838 205 826 L206 820 C210 808 219 803 231 805 L414 838 C428 841 433 849 430 862 L422 893 C419 904 410 911 397 906 L397 906 Z M43 182 C83 61 185 -10 320 -10 C456 -10 567 70 567 188 C567 443 155 352 155 554 C155 623 219 670 312 670 C393 670 453 626 482 552 C486 541 493 535 504 535 L540 535 C554 535 562 544 558 558 C526 667 437 740 312 740 C174 740 77 663 77 554 C77 282 488 379 488 186 C488 114 417 60 320 60 C230 60 155 102 120 188 C116 198 108 204 97 204 L60 204 C45 204 38 195 43 182 L43 182 Z " />
<glyph glyph-name="sacute" unicode="&#x15b;" horiz-adv-x="542" d="M342 730 L181 634 C170 627 168 618 174 607 L177 601 C183 590 193 588 204 593 L375 668 C388 674 390 683 384 695 L369 723 C364 734 353 738 342 730 L342 730 Z M66 390 C66 180 420 284 421 139 C422 80 364 51 280 51 C200 51 135 83 114 148 C110 160 102 165 91 165 L60 165 C47 165 39 157 42 143 C67 40 168 -10 278 -10 C401 -10 494 43 494 139 C494 347 139 245 139 390 C139 433 182 469 273 469 C363 469 400 428 412 376 C415 364 421 358 434 358 L463 358 C476 358 484 366 482 379 C467 462 403 530 275 530 C137 530 66 469 66 390 L66 390 Z " />
<glyph glyph-name="Scedilla" unicode="&#x15e;" horiz-adv-x="622" d="M346 -9 C470 0 567 78 567 188 C567 443 155 352 155 554 C155 623 219 670 312 670 C393 670 453 626 482 552 C486 541 493 535 504 535 L540 535 C554 535 562 544 558 558 C526 667 437 740 312 740 C174 740 77 663 77 554 C77 282 488 379 488 186 C488 114 417 60 320 60 C230 60 155 102 120 188 C116 198 108 204 97 204 L60 204 C45 204 38 195 43 182 C80 69 171 0 293 -9 L279 -60 C276 -75 284 -85 299 -85 L309 -85 C344 -85 365 -101 365 -129 C365 -157 342 -173 308 -173 C287 -173 268 -168 251 -159 C240 -155 231 -155 226 -166 L224 -172 C219 -181 219 -191 229 -197 C251 -211 278 -220 312 -220 C378 -220 427 -185 427 -128 C427 -81 395 -54 353 -46 C342 -44 338 -40 341 -29 L346 -9 Z " />
<glyph glyph-name="scedilla" unicode="&#x15f;" horiz-adv-x="542" d="M292 -10 C408 -6 494 47 494 139 C494 347 139 245 139 390 C139 433 182 469 273 469 C363 469 400 428 412 376 C415 364 421 358 434 358 L463 358 C476 358 484 366 482 379 C467 462 403 530 275 530 C137 530 66 469 66 390 C66 180 420 284 421 139 C422 80 364 51 280 51 C200 51 135 83 114 148 C110 160 102 165 91 165 L60 165 C47 165 39 157 42 143 C64 52 145 3 239 -8 L225 -60 C222 -75 230 -85 245 -85 L255 -85 C290 -85 311 -101 311 -129 C311 -157 288 -173 254 -173 C233 -173 214 -168 197 -159 C186 -155 177 -155 172 -166 L170 -172 C165 -181 165 -191 175 -197 C197 -211 224 -220 258 -220 C324 -220 373 -185 373 -128 C373 -81 341 -54 299 -46 C288 -44 284 -40 287 -29 L292 -10 Z " />
<glyph glyph-name="Scaron" unicode="&#x160;" horiz-adv-x="622" d="M162 883 C159 872 161 864 171 859 L288 806 C306 798 320 798 337 806 L454 859 C464 864 466 873 463 883 L459 897 C456 908 446 911 436 908 L330 871 C318 866 308 866 295 871 L189 908 C179 912 170 908 166 897 L162 883 Z M43 182 C83 61 185 -10 320 -10 C456 -10 567 70 567 188 C567 443 155 352 155 554 C155 623 219 670 312 670 C393 670 453 626 482 552 C486 541 493 535 504 535 L540 535 C554 535 562 544 558 558 C526 667 437 740 312 740 C174 740 77 663 77 554 C77 282 488 379 488 186 C488 114 417 60 320 60 C230 60 155 102 120 188 C116 198 108 204 97 204 L60 204 C45 204 38 195 43 182 L43 182 Z " />
<glyph glyph-name="scaron" unicode="&#x161;" horiz-adv-x="542" d="M119 694 C116 683 118 675 128 670 L244 617 C261 609 275 609 292 617 L408 670 C418 675 420 684 417 694 L413 707 C410 718 400 721 390 718 L285 682 C273 677 263 677 251 682 L146 718 C136 722 127 718 123 707 L119 694 Z M66 390 C66 180 420 284 421 139 C422 80 364 51 280 51 C200 51 135 83 114 148 C110 160 102 165 91 165 L60 165 C47 165 39 157 42 143 C67 40 168 -10 278 -10 C401 -10 494 43 494 139 C494 347 139 245 139 390 C139 433 182 469 273 469 C363 469 400 428 412 376 C415 364 421 358 434 358 L463 358 C476 358 484 366 482 379 C467 462 403 530 275 530 C137 530 66 469 66 390 L66 390 Z " />
<glyph glyph-name="uni0162" unicode="&#x162;" horiz-adv-x="592" d="M558 730 L34 730 C21 730 14 723 14 710 L14 678 C14 665 21 658 34 658 L234 658 C247 658 254 650 254 638 L254 20 C254 10 258 4 265 1 L248 -61 C245 -76 253 -86 268 -86 L278 -86 C313 -86 334 -102 334 -130 C334 -158 311 -174 277 -174 C256 -174 237 -169 220 -160 C209 -156 200 -156 195 -167 L193 -173 C188 -182 188 -192 198 -198 C220 -212 247 -221 281 -221 C347 -221 396 -186 396 -129 C396 -82 364 -55 322 -47 C311 -45 307 -41 310 -30 L318 0 C329 1 335 8 335 20 L335 638 C335 650 342 658 355 658 L558 658 C571 658 578 665 578 678 L578 710 C578 723 571 730 558 730 L558 730 Z " />
<glyph glyph-name="uni0163" unicode="&#x163;" horiz-adv-x="410" d="M390 37 L387 61 C385 74 377 80 363 75 C332 64 297 56 259 56 C210 56 180 82 180 144 L180 447 C180 453 184 456 190 456 L369 456 C382 456 389 463 389 476 L389 500 C389 513 382 520 369 520 L190 520 C184 520 180 524 180 529 L180 645 C180 658 172 666 158 662 L125 653 C114 650 108 643 108 631 L108 529 C108 524 104 520 99 520 L45 520 C33 520 25 513 25 500 L25 476 C25 463 33 456 45 456 L96 456 C102 456 106 453 106 447 L106 143 C106 48 150 4 212 -7 L198 -60 C195 -75 203 -85 218 -85 L228 -85 C263 -85 284 -101 284 -129 C284 -157 261 -173 227 -173 C206 -173 187 -168 170 -159 C159 -155 150 -155 145 -166 L143 -172 C138 -181 138 -191 148 -197 C170 -211 197 -220 231 -220 C297 -220 346 -185 346 -128 C346 -81 314 -54 272 -46 C261 -44 257 -40 260 -29 L265 -10 C305 -8 343 1 376 13 C387 17 392 26 390 37 L390 37 Z " />
<glyph glyph-name="Tcaron" unicode="&#x164;" horiz-adv-x="592" d="M142 883 C139 872 141 864 151 859 L268 806 C286 798 300 798 317 806 L434 859 C444 864 446 873 443 883 L439 897 C436 908 426 911 416 908 L310 871 C298 866 288 866 275 871 L169 908 C159 912 150 908 146 897 L142 883 Z M34 658 L234 658 C247 658 254 650 254 638 L254 20 C254 7 261 0 274 0 L315 0 C328 0 335 7 335 20 L335 638 C335 650 342 658 355 658 L558 658 C571 658 578 665 578 678 L578 710 C578 723 571 730 558 730 L34 730 C21 730 14 723 14 710 L14 678 C14 665 21 658 34 658 L34 658 Z " />
<glyph glyph-name="tcaron" unicode="&#x165;" horiz-adv-x="410" d="M294 606 L279 606 C266 606 259 613 260 627 L274 802 C275 814 283 821 295 821 L320 821 C334 821 340 813 339 800 L316 624 C314 612 306 606 294 606 L294 606 Z M45 456 L96 456 C102 456 106 453 106 447 L106 143 C106 31 168 -10 248 -10 C294 -10 338 -1 376 13 C387 17 392 26 390 37 L387 61 C385 74 377 80 363 75 C332 64 297 56 259 56 C210 56 180 82 180 144 L180 447 C180 453 184 456 190 456 L369 456 C382 456 389 463 389 476 L389 500 C389 513 382 520 369 520 L190 520 C184 520 180 524 180 529 L180 645 C180 658 172 666 158 662 L125 653 C114 650 108 643 108 631 L108 529 C108 524 104 520 99 520 L45 520 C33 520 25 513 25 500 L25 476 C25 463 33 456 45 456 L45 456 Z " />
<glyph glyph-name="Tbar" unicode="&#x166;" horiz-adv-x="592" d="M558 730 L34 730 C21 730 14 723 14 710 L14 678 C14 665 21 658 34 658 L234 658 C247 658 254 650 254 638 L254 398 L144 398 C131 398 123 390 123 378 L123 358 C123 345 131 338 144 338 L254 338 L254 20 C254 7 261 0 274 0 L315 0 C328 0 335 7 335 20 L335 338 L445 338 C458 338 465 345 465 358 L465 378 C465 390 458 398 445 398 L335 398 L335 638 C335 650 342 658 355 658 L558 658 C571 658 578 665 578 678 L578 710 C578 723 571 730 558 730 L558 730 Z " />
<glyph glyph-name="tbar" unicode="&#x167;" horiz-adv-x="410" d="M390 37 L387 61 C385 74 377 80 363 75 C332 64 297 56 259 56 C210 56 180 82 180 144 L180 266 L335 266 C348 266 355 273 355 286 L355 306 C355 318 348 326 335 326 L180 326 L180 447 C180 453 184 456 190 456 L369 456 C382 456 389 463 389 476 L389 500 C389 513 382 520 369 520 L190 520 C184 520 180 524 180 529 L180 645 C180 658 172 666 158 662 L125 653 C114 650 108 643 108 631 L108 529 C108 524 104 520 99 520 L45 520 C33 520 25 513 25 500 L25 476 C25 463 33 456 45 456 L96 456 C102 456 106 453 106 447 L106 326 L44 326 C31 326 24 318 24 306 L24 286 C24 273 31 266 44 266 L106 266 L106 143 C106 31 168 -10 248 -10 C294 -10 338 -1 376 13 C387 17 392 26 390 37 L390 37 Z " />
<glyph glyph-name="Utilde" unicode="&#x168;" horiz-adv-x="793" d="M543 884 L531 886 C519 889 513 884 506 874 C496 856 481 851 461 851 C421 851 377 898 322 898 C280 898 247 879 235 833 C232 820 239 811 251 808 L264 805 C275 803 283 807 290 818 C299 833 313 840 334 840 C374 839 407 794 468 794 C514 794 547 817 559 861 C563 873 555 882 543 884 L543 884 Z M94 306 C94 116 219 -10 396 -10 C581 -10 698 124 698 306 L698 710 C698 723 691 730 678 730 L639 730 C626 730 619 723 619 710 L619 302 C619 156 526 62 396 62 C260 62 174 163 174 302 L174 710 C174 723 167 730 154 730 L114 730 C102 730 94 723 94 710 L94 306 Z " />
<glyph glyph-name="utilde" unicode="&#x169;" horiz-adv-x="632" d="M456 694 L444 696 C432 699 426 694 419 684 C409 666 394 661 374 661 C334 661 290 708 235 708 C193 708 160 689 148 643 C145 630 152 621 164 618 L177 615 C188 613 196 617 203 628 C212 643 226 650 247 650 C287 649 320 604 381 604 C427 604 460 627 472 671 C476 683 468 692 456 694 L456 694 Z M81 181 C81 56 148 -10 258 -10 C323 -10 383 10 447 47 C470 61 484 57 489 29 L489 18 C492 7 499 0 511 0 L526 0 C538 0 546 7 546 20 L546 500 C546 513 538 520 526 520 L491 520 C478 520 471 513 471 500 L471 155 C471 137 465 125 449 116 C388 79 328 56 277 56 C199 56 156 100 156 184 L156 500 C156 513 149 520 136 520 L101 520 C88 520 81 513 81 500 L81 181 Z " />
<glyph glyph-name="Umacron" unicode="&#x16a;" horiz-adv-x="793" d="M253 854 L253 832 C253 819 261 812 273 812 L517 812 C529 812 537 819 537 832 L537 854 C537 867 529 874 517 874 L273 874 C261 874 253 867 253 854 L253 854 Z M94 306 C94 116 219 -10 396 -10 C581 -10 698 124 698 306 L698 710 C698 723 691 730 678 730 L639 730 C626 730 619 723 619 710 L619 302 C619 156 526 62 396 62 C260 62 174 163 174 302 L174 710 C174 723 167 730 154 730 L114 730 C102 730 94 723 94 710 L94 306 Z " />
<glyph glyph-name="umacron" unicode="&#x16b;" horiz-adv-x="632" d="M173 674 L173 652 C173 639 181 632 193 632 L437 632 C449 632 457 639 457 652 L457 674 C457 687 449 694 437 694 L193 694 C181 694 173 687 173 674 L173 674 Z M81 181 C81 56 148 -10 258 -10 C323 -10 383 10 447 47 C470 61 484 57 489 29 L489 18 C492 7 499 0 511 0 L526 0 C538 0 546 7 546 20 L546 500 C546 513 538 520 526 520 L491 520 C478 520 471 513 471 500 L471 155 C471 137 465 125 449 116 C388 79 328 56 277 56 C199 56 156 100 156 184 L156 500 C156 513 149 520 136 520 L101 520 C88 520 81 513 81 500 L81 181 Z " />
<glyph glyph-name="Uring" unicode="&#x16e;" horiz-adv-x="793" d="M394 769 C460 769 504 814 504 871 C504 926 460 972 394 972 C330 972 285 926 285 871 C285 814 330 769 394 769 L394 769 Z M394 819 C364 819 342 842 342 871 C342 900 364 924 394 924 C425 924 448 900 448 871 C448 842 425 819 394 819 L394 819 Z M94 306 C94 116 219 -10 396 -10 C581 -10 698 124 698 306 L698 710 C698 723 691 730 678 730 L639 730 C626 730 619 723 619 710 L619 302 C619 156 526 62 396 62 C260 62 174 163 174 302 L174 710 C174 723 167 730 154 730 L114 730 C102 730 94 723 94 710 L94 306 Z " />
<glyph glyph-name="uring" unicode="&#x16f;" horiz-adv-x="632" d="M314 586 C380 586 424 631 424 688 C424 743 380 789 314 789 C250 789 205 743 205 688 C205 631 250 586 314 586 L314 586 Z M314 636 C284 636 262 659 262 688 C262 717 284 741 314 741 C345 741 368 717 368 688 C368 659 345 636 314 636 L314 636 Z M81 181 C81 56 148 -10 258 -10 C323 -10 383 10 447 47 C470 61 484 57 489 29 L489 18 C492 7 499 0 511 0 L526 0 C538 0 546 7 546 20 L546 500 C546 513 538 520 526 520 L491 520 C478 520 471 513 471 500 L471 155 C471 137 465 125 449 116 C388 79 328 56 277 56 C199 56 156 100 156 184 L156 500 C156 513 149 520 136 520 L101 520 C88 520 81 513 81 500 L81 181 Z " />
<glyph glyph-name="Uhungarumlaut" unicode="&#x170;" horiz-adv-x="793" d="M330 909 L286 808 C280 794 286 785 302 785 L317 785 C328 785 336 790 341 798 L403 899 C411 913 406 923 390 923 L354 924 C342 924 334 919 330 909 L330 909 Z M478 909 L433 808 C428 794 434 785 449 785 L465 785 C475 785 483 790 489 798 L550 899 C558 913 554 923 538 923 L501 924 C490 924 482 919 478 909 L478 909 Z M94 306 C94 116 219 -10 396 -10 C581 -10 698 124 698 306 L698 710 C698 723 691 730 678 730 L639 730 C626 730 619 723 619 710 L619 302 C619 156 526 62 396 62 C260 62 174 163 174 302 L174 710 C174 723 167 730 154 730 L114 730 C102 730 94 723 94 710 L94 306 Z " />
<glyph glyph-name="uhungarumlaut" unicode="&#x171;" horiz-adv-x="632" d="M248 719 L204 618 C198 604 204 595 220 595 L235 595 C246 595 254 600 259 608 L321 709 C329 723 324 733 308 733 L272 734 C260 734 252 729 248 719 L248 719 Z M396 719 L351 618 C346 604 352 595 367 595 L383 595 C393 595 401 600 407 608 L468 709 C476 723 472 733 456 733 L419 734 C408 734 400 729 396 719 L396 719 Z M81 181 C81 56 148 -10 258 -10 C323 -10 383 10 447 47 C470 61 484 57 489 29 L489 18 C492 7 499 0 511 0 L526 0 C538 0 546 7 546 20 L546 500 C546 513 538 520 526 520 L491 520 C478 520 471 513 471 500 L471 155 C471 137 465 125 449 116 C388 79 328 56 277 56 C199 56 156 100 156 184 L156 500 C156 513 149 520 136 520 L101 520 C88 520 81 513 81 500 L81 181 Z " />
<glyph glyph-name="Uogonek" unicode="&#x172;" horiz-adv-x="793" d="M678 730 L639 730 C626 730 619 723 619 710 L619 302 C619 156 526 62 396 62 C260 62 174 163 174 302 L174 710 C174 723 167 730 154 730 L114 730 C102 730 94 723 94 710 L94 306 C94 117 217 -8 392 -10 C351 -41 327 -82 327 -128 C327 -189 370 -222 429 -222 C442 -222 456 -221 468 -217 C477 -215 481 -208 481 -199 L481 -185 C481 -174 474 -169 463 -171 C456 -172 447 -173 438 -173 C410 -173 389 -157 389 -125 C389 -78 409 -38 470 -2 C612 29 698 150 698 306 L698 710 C698 723 691 730 678 730 L678 730 Z " />
<glyph glyph-name="uogonek" unicode="&#x173;" horiz-adv-x="632" d="M546 20 L546 500 C546 513 538 520 526 520 L491 520 C478 520 471 513 471 500 L471 155 C471 137 465 125 449 116 C388 79 328 56 277 56 C199 56 156 100 156 184 L156 500 C156 513 149 520 136 520 L101 520 C88 520 81 513 81 500 L81 181 C81 56 148 -10 258 -10 C323 -10 383 10 447 47 C470 61 484 57 489 29 L489 18 C489 17 490 16 490 14 C429 -18 391 -68 391 -125 C391 -186 434 -219 493 -219 C506 -219 520 -218 532 -214 C541 -212 545 -205 545 -196 L545 -182 C545 -171 538 -166 527 -168 C520 -169 511 -170 502 -170 C474 -170 453 -154 453 -122 C453 -74 474 -34 536 2 C542 5 546 11 546 20 L546 20 Z " />
<glyph glyph-name="Wcircumflex" unicode="&#x174;" horiz-adv-x="990" d="M346 827 L352 813 C356 804 364 802 373 805 L482 847 C496 852 508 852 522 847 L634 805 C643 801 651 804 655 813 L661 827 C666 836 663 844 654 849 L522 917 C508 924 496 924 482 917 L352 849 C343 844 342 836 346 827 L346 827 Z M28 708 L224 19 C228 6 236 0 249 0 L284 0 C298 0 306 5 310 19 L490 585 C495 602 508 602 513 585 L683 19 C686 7 695 0 709 0 L746 0 C759 0 768 7 771 19 L957 708 C961 722 955 730 940 730 L905 730 C893 730 886 723 883 712 L738 149 C734 130 720 130 715 148 L543 711 C540 723 531 730 518 730 L484 730 C471 730 462 725 458 711 L280 152 C275 135 261 135 257 153 L109 713 C106 725 98 730 86 730 L45 730 C31 730 25 722 28 708 L28 708 Z " />
<glyph glyph-name="wcircumflex" unicode="&#x175;" horiz-adv-x="808" d="M251 639 L257 625 C261 616 269 614 278 617 L385 658 C399 663 411 663 425 658 L535 617 C544 613 552 616 556 625 L562 639 C566 648 564 655 555 660 L425 727 C411 734 399 734 385 727 L257 660 C248 655 247 648 251 639 L251 639 Z M30 498 L176 21 C180 7 190 0 204 0 L237 0 C251 0 261 7 265 21 L395 398 C400 413 412 413 417 398 L540 21 C544 7 555 0 569 0 L604 0 C618 0 628 7 632 21 L779 498 C783 512 777 520 763 520 L730 520 C718 520 711 515 708 503 L598 115 C593 99 581 99 576 114 L448 501 C443 514 433 521 420 521 L391 521 C378 521 368 515 363 501 L234 118 C229 102 216 102 211 118 L102 503 C99 515 91 520 80 520 L47 520 C32 520 25 512 30 498 L30 498 Z " />
<glyph glyph-name="Ycircumflex" unicode="&#x176;" horiz-adv-x="637" d="M166 827 L172 813 C176 804 184 802 193 805 L302 847 C316 852 328 852 342 847 L454 805 C463 801 471 804 475 813 L481 827 C486 836 483 844 474 849 L342 917 C328 924 316 924 302 917 L172 849 C163 844 162 836 166 827 L166 827 Z M24 706 L275 290 C279 282 281 274 281 266 L281 23 C281 9 290 0 304 0 L336 0 C350 0 359 9 359 23 L359 266 C359 274 361 282 365 290 L606 706 C614 720 608 730 592 730 L557 730 C547 730 539 726 533 716 L334 370 C327 357 316 357 308 370 L107 716 C102 726 94 730 84 730 L37 730 C21 730 16 720 24 706 L24 706 Z " />
<glyph glyph-name="ycircumflex" unicode="&#x177;" horiz-adv-x="553" d="M124 639 L130 625 C134 616 142 614 151 617 L258 658 C272 663 284 663 298 658 L408 617 C417 613 425 616 429 625 L435 639 C439 648 437 655 428 660 L298 727 C284 734 272 734 258 727 L130 660 C121 655 120 648 124 639 L124 639 Z M28 497 L229 14 C232 5 239 0 248 0 L256 0 L237 -44 C209 -111 180 -151 116 -151 C95 -151 73 -148 54 -143 C41 -140 33 -145 30 -158 L27 -177 C24 -189 30 -198 42 -201 C65 -208 91 -211 112 -211 C213 -211 258 -153 298 -58 L526 497 C532 511 525 520 511 520 L474 520 C462 520 455 515 451 504 L294 95 C288 78 275 79 269 95 L109 504 C104 515 97 520 86 520 L43 520 C29 520 22 511 28 497 L28 497 Z " />
<glyph glyph-name="Ydieresis" unicode="&#x178;" horiz-adv-x="637" d="M225 796 C253 796 278 819 278 849 C278 877 253 900 225 900 C196 900 173 877 173 849 C173 819 196 796 225 796 L225 796 Z M409 796 C438 796 462 819 462 849 C462 877 438 900 409 900 C380 900 356 877 356 849 C356 819 380 796 409 796 L409 796 Z M24 706 L275 290 C279 282 281 274 281 266 L281 23 C281 9 290 0 304 0 L336 0 C350 0 359 9 359 23 L359 266 C359 274 361 282 365 290 L606 706 C614 720 608 730 592 730 L557 730 C547 730 539 726 533 716 L334 370 C327 357 316 357 308 370 L107 716 C102 726 94 730 84 730 L37 730 C21 730 16 720 24 706 L24 706 Z " />
<glyph glyph-name="Zacute" unicode="&#x179;" horiz-adv-x="659" d="M416 906 L237 851 C225 847 221 838 224 826 L225 820 C229 808 238 803 250 805 L433 838 C447 841 452 849 449 862 L441 893 C438 904 429 911 416 906 L416 906 Z M43 0 L616 0 C629 0 636 7 636 20 L636 48 C636 61 629 68 616 68 L167 68 C149 68 142 80 153 95 L606 680 C613 688 615 695 615 706 L615 711 C615 723 607 730 594 730 L63 730 C50 730 43 723 43 710 L43 681 C43 669 50 661 63 661 L471 661 C489 661 496 649 484 634 L31 49 C24 41 22 34 22 24 L22 19 C22 7 30 0 43 0 L43 0 Z " />
<glyph glyph-name="zacute" unicode="&#x17a;" horiz-adv-x="524" d="M338 730 L177 634 C166 627 164 618 170 607 L173 601 C179 590 189 588 200 593 L371 668 C384 674 386 683 380 695 L365 723 C360 734 349 738 338 730 L338 730 Z M30 23 L30 19 C31 7 39 0 51 0 L472 0 C485 0 492 7 492 20 L492 42 C492 55 485 62 472 62 L165 62 C150 62 146 72 155 83 L469 458 C475 465 478 472 478 482 L478 501 C478 513 471 520 459 520 L61 520 C48 520 41 513 41 500 L41 478 C41 465 48 458 61 458 L361 458 C375 458 379 448 370 437 L39 48 C33 40 30 34 30 23 L30 23 Z " />
<glyph glyph-name="Zdotaccent" unicode="&#x17b;" horiz-adv-x="659" d="M332 788 C363 788 389 814 389 847 C389 877 363 902 332 902 C300 902 275 877 275 847 C275 814 300 788 332 788 L332 788 Z M43 0 L616 0 C629 0 636 7 636 20 L636 48 C636 61 629 68 616 68 L167 68 C149 68 142 80 153 95 L606 680 C613 688 615 695 615 706 L615 711 C615 723 607 730 594 730 L63 730 C50 730 43 723 43 710 L43 681 C43 669 50 661 63 661 L471 661 C489 661 496 649 484 634 L31 49 C24 41 22 34 22 24 L22 19 C22 7 30 0 43 0 L43 0 Z " />
<glyph glyph-name="zdotaccent" unicode="&#x17c;" horiz-adv-x="524" d="M264 636 C295 636 321 662 321 695 C321 725 295 750 264 750 C232 750 207 725 207 695 C207 662 232 636 264 636 L264 636 Z M30 23 L30 19 C31 7 39 0 51 0 L472 0 C485 0 492 7 492 20 L492 42 C492 55 485 62 472 62 L165 62 C150 62 146 72 155 83 L469 458 C475 465 478 472 478 482 L478 501 C478 513 471 520 459 520 L61 520 C48 520 41 513 41 500 L41 478 C41 465 48 458 61 458 L361 458 C375 458 379 448 370 437 L39 48 C33 40 30 34 30 23 L30 23 Z " />
<glyph glyph-name="Zcaron" unicode="&#x17d;" horiz-adv-x="659" d="M181 883 C178 872 180 864 190 859 L307 806 C325 798 339 798 356 806 L473 859 C483 864 485 873 482 883 L478 897 C475 908 465 911 455 908 L349 871 C337 866 327 866 314 871 L208 908 C198 912 189 908 185 897 L181 883 Z M43 0 L616 0 C629 0 636 7 636 20 L636 48 C636 61 629 68 616 68 L167 68 C149 68 142 80 153 95 L606 680 C613 688 615 695 615 706 L615 711 C615 723 607 730 594 730 L63 730 C50 730 43 723 43 710 L43 681 C43 669 50 661 63 661 L471 661 C489 661 496 649 484 634 L31 49 C24 41 22 34 22 24 L22 19 C22 7 30 0 43 0 L43 0 Z " />
<glyph glyph-name="zcaron" unicode="&#x17e;" horiz-adv-x="524" d="M115 694 C112 683 114 675 124 670 L240 617 C257 609 271 609 288 617 L404 670 C414 675 416 684 413 694 L409 707 C406 718 396 721 386 718 L281 682 C269 677 259 677 247 682 L142 718 C132 722 123 718 119 707 L115 694 Z M30 23 L30 19 C31 7 39 0 51 0 L472 0 C485 0 492 7 492 20 L492 42 C492 55 485 62 472 62 L165 62 C150 62 146 72 155 83 L469 458 C475 465 478 472 478 482 L478 501 C478 513 471 520 459 520 L61 520 C48 520 41 513 41 500 L41 478 C41 465 48 458 61 458 L361 458 C375 458 379 448 370 437 L39 48 C33 40 30 34 30 23 L30 23 Z " />
<glyph glyph-name="uni01EA" unicode="&#x1ea;" horiz-adv-x="872" d="M504 -4 C681 25 819 167 819 366 C819 589 644 740 435 740 C228 740 53 589 53 366 C53 144 225 -7 430 -10 C388 -41 363 -83 363 -129 C363 -190 406 -223 465 -223 C478 -223 492 -222 504 -218 C513 -216 517 -209 517 -200 L517 -186 C517 -175 510 -170 499 -172 C492 -173 483 -174 474 -174 C446 -174 425 -158 425 -126 C425 -79 445 -40 504 -4 L504 -4 Z M132 366 C132 550 271 671 435 671 C601 671 739 550 739 366 C739 181 601 59 435 59 C271 59 132 181 132 366 L132 366 Z " />
<glyph glyph-name="uni01EB" unicode="&#x1eb;" horiz-adv-x="641" d="M381 -4 C507 23 592 131 592 262 C592 411 479 530 321 530 C162 530 49 411 49 262 C49 116 155 -3 307 -10 C265 -41 241 -82 241 -128 C241 -189 284 -222 343 -222 C356 -222 370 -221 382 -217 C391 -215 395 -208 395 -199 L395 -185 C395 -174 388 -169 377 -171 C370 -172 361 -173 352 -173 C324 -173 303 -157 303 -125 C303 -78 323 -39 381 -4 L381 -4 Z M123 260 C123 374 205 465 321 465 C436 465 517 374 517 260 C517 147 436 55 321 55 C205 55 123 147 123 260 L123 260 Z " />
<glyph glyph-name="AEacute" unicode="&#x1fc;" horiz-adv-x="963" d="M702 906 L523 851 C511 847 507 838 510 826 L511 820 C515 808 524 803 536 805 L719 838 C733 841 738 849 735 862 L727 893 C724 904 715 911 702 906 L702 906 Z M9 0 L47 0 C58 0 66 5 72 14 L173 172 C177 179 183 182 191 182 L478 182 C487 182 493 176 493 166 L493 21 C493 8 501 0 514 0 L876 0 C889 0 896 7 896 20 L896 48 C896 61 889 68 876 68 L586 68 C576 68 570 74 570 83 L570 316 C570 325 576 331 586 331 L885 331 C898 331 905 338 905 351 L905 378 C905 391 898 398 885 398 L586 398 C576 398 570 404 570 413 L570 648 C570 657 576 663 586 663 L862 663 C875 663 882 670 882 683 L882 710 C882 723 875 730 862 730 L465 730 C453 730 445 726 438 715 L-5 24 C-13 10 -7 0 9 0 L9 0 Z M236 273 L475 646 C482 659 493 655 493 640 L493 270 C493 260 487 255 478 255 L246 255 C234 255 230 263 236 273 L236 273 Z " />
<glyph glyph-name="aeacute" unicode="&#x1fd;" horiz-adv-x="958" d="M543 730 L382 634 C371 627 369 618 375 607 L378 601 C384 590 394 588 405 593 L576 668 C589 674 591 683 585 695 L570 723 C565 734 554 738 543 730 L543 730 Z M44 132 C44 52 119 -10 223 -10 C312 -10 387 28 445 78 C458 90 469 89 481 76 C527 22 594 -10 673 -10 C784 -10 868 54 893 138 C898 152 889 160 876 160 L846 160 C835 160 827 155 823 144 C802 89 745 54 673 54 C579 54 507 120 490 214 C487 232 497 242 514 242 L877 241 C900 241 909 250 910 275 C914 407 811 530 670 530 C591 530 522 494 476 437 C466 426 457 427 449 438 C417 498 358 530 280 530 C175 530 84 469 67 376 C65 363 73 356 86 356 L116 356 C128 356 135 362 138 373 C150 425 207 464 277 464 C358 464 413 417 413 316 L413 304 C413 292 403 288 387 288 L263 289 C128 289 44 229 44 132 L44 132 Z M497 329 C521 412 592 466 670 466 C757 466 818 402 831 327 C836 309 829 300 814 300 L520 301 C501 301 491 312 497 329 L497 329 Z M118 140 C118 201 169 227 264 227 L391 227 C407 227 414 222 416 210 C419 194 424 178 428 167 C432 153 430 146 418 136 C367 91 304 58 232 58 C172 58 118 87 118 140 L118 140 Z " />
<glyph glyph-name="Oslashacute" unicode="&#x1fe;" horiz-adv-x="872" d="M329 820 C333 808 342 803 354 805 L537 838 C551 841 556 849 553 862 L545 893 C542 904 533 911 520 906 L341 851 C329 847 325 838 328 826 L329 820 Z M721 621 L761 661 C770 671 769 682 760 691 L747 704 C739 713 727 714 718 704 L676 662 C609 712 525 740 435 740 C228 740 53 589 53 366 C53 271 85 188 137 125 L76 64 C67 54 68 44 76 35 L88 23 C97 14 109 13 117 23 L178 83 C246 24 337 -10 435 -10 C644 -10 819 142 819 366 C819 469 782 557 721 621 L721 621 Z M132 366 C132 550 271 671 435 671 C506 671 571 649 623 610 L191 179 C154 229 132 292 132 366 L132 366 Z M435 59 C357 59 285 87 230 135 L667 568 C712 517 739 447 739 366 C739 181 601 59 435 59 L435 59 Z " />
<glyph glyph-name="oslashacute" unicode="&#x1ff;" horiz-adv-x="641" d="M233 601 C239 590 249 588 260 593 L431 668 C444 674 446 683 440 695 L425 723 C420 734 409 738 398 730 L237 634 C226 627 224 618 230 607 L233 601 Z M534 432 L570 467 C581 477 581 490 570 501 L562 508 C551 518 539 518 529 508 L493 473 C447 509 388 530 321 530 C162 530 49 411 49 262 C49 198 69 140 105 93 L59 49 C48 39 47 26 59 15 L66 9 C77 -2 89 -1 99 9 L144 52 C190 13 251 -10 321 -10 C479 -10 592 111 592 262 C592 327 571 386 534 432 L534 432 Z M123 260 C123 374 205 465 321 465 C368 465 410 450 442 423 L156 144 C135 177 123 217 123 260 L123 260 Z M321 55 C271 55 227 72 193 101 L481 381 C504 347 517 305 517 260 C517 147 436 55 321 55 L321 55 Z " />
<glyph glyph-name="Scommaaccent" unicode="&#x218;" horiz-adv-x="622" d="M43 182 C83 61 185 -10 320 -10 C456 -10 567 70 567 188 C567 443 155 352 155 554 C155 623 219 670 312 670 C393 670 453 626 482 552 C486 541 493 535 504 535 L540 535 C554 535 562 544 558 558 C526 667 437 740 312 740 C174 740 77 663 77 554 C77 282 488 379 488 186 C488 114 417 60 320 60 C230 60 155 102 120 188 C116 198 108 204 97 204 L60 204 C45 204 38 195 43 182 L43 182 Z M291 -51 L268 -190 C266 -204 272 -212 286 -212 L303 -212 C314 -212 322 -207 325 -195 L364 -55 C368 -41 362 -33 347 -33 L312 -33 C300 -33 292 -39 291 -51 L291 -51 Z " />
<glyph glyph-name="scommaaccent" unicode="&#x219;" horiz-adv-x="542" d="M66 390 C66 180 420 284 421 139 C422 80 364 51 280 51 C200 51 135 83 114 148 C110 160 102 165 91 165 L60 165 C47 165 39 157 42 143 C67 40 168 -10 278 -10 C401 -10 494 43 494 139 C494 347 139 245 139 390 C139 433 182 469 273 469 C363 469 400 428 412 376 C415 364 421 358 434 358 L463 358 C476 358 484 366 482 379 C467 462 403 530 275 530 C137 530 66 469 66 390 L66 390 Z M237 -51 L214 -190 C212 -204 218 -212 232 -212 L249 -212 C260 -212 268 -207 271 -195 L310 -55 C314 -41 308 -33 293 -33 L258 -33 C246 -33 238 -39 237 -51 L237 -51 Z " />
<glyph glyph-name="uni021A" unicode="&#x21a;" horiz-adv-x="592" d="M34 658 L234 658 C247 658 254 650 254 638 L254 20 C254 7 261 0 274 0 L315 0 C328 0 335 7 335 20 L335 638 C335 650 342 658 355 658 L558 658 C571 658 578 665 578 678 L578 710 C578 723 571 730 558 730 L34 730 C21 730 14 723 14 710 L14 678 C14 665 21 658 34 658 L34 658 Z M260 -52 L237 -191 C235 -205 241 -213 255 -213 L272 -213 C283 -213 291 -208 294 -196 L333 -56 C337 -42 331 -34 316 -34 L281 -34 C269 -34 261 -40 260 -52 L260 -52 Z " />
<glyph glyph-name="uni021B" unicode="&#x21b;" horiz-adv-x="410" d="M45 456 L96 456 C102 456 106 453 106 447 L106 143 C106 31 168 -10 248 -10 C294 -10 338 -1 376 13 C387 17 392 26 390 37 L387 61 C385 74 377 80 363 75 C332 64 297 56 259 56 C210 56 180 82 180 144 L180 447 C180 453 184 456 190 456 L369 456 C382 456 389 463 389 476 L389 500 C389 513 382 520 369 520 L190 520 C184 520 180 524 180 529 L180 645 C180 658 172 666 158 662 L125 653 C114 650 108 643 108 631 L108 529 C108 524 104 520 99 520 L45 520 C33 520 25 513 25 500 L25 476 C25 463 33 456 45 456 L45 456 Z M210 -51 L187 -190 C185 -204 191 -212 205 -212 L222 -212 C233 -212 241 -207 244 -195 L283 -55 C287 -41 281 -33 266 -33 L231 -33 C219 -33 211 -39 210 -51 L210 -51 Z " />
<glyph glyph-name="uni0237" unicode="&#x237;" horiz-adv-x="259" d="M46 -207 C120 -207 169 -154 169 -70 L169 500 C169 513 162 520 149 520 L115 520 C102 520 95 513 95 500 L95 -65 C95 -117 67 -141 28 -141 C15 -141 4 -139 -6 -137 C-19 -135 -26 -139 -28 -153 L-31 -177 C-32 -190 -28 -198 -16 -201 C3 -205 24 -207 46 -207 L46 -207 Z " />
<glyph glyph-name="circumflex" unicode="&#x2c6;" horiz-adv-x="600" d="M198 639 L204 625 C208 616 216 614 225 617 L332 658 C346 663 358 663 372 658 L482 617 C491 613 499 616 503 625 L509 639 C513 648 511 655 502 660 L372 727 C358 734 346 734 332 727 L204 660 C195 655 194 648 198 639 L198 639 Z " />
<glyph glyph-name="caron" unicode="&#x2c7;" horiz-adv-x="600" d="M95 694 C92 683 94 675 104 670 L220 617 C237 609 251 609 268 617 L384 670 C394 675 396 684 393 694 L389 707 C386 718 376 721 366 718 L261 682 C249 677 239 677 227 682 L122 718 C112 722 103 718 99 707 L95 694 Z " />
<glyph glyph-name="breve" unicode="&#x2d8;" horiz-adv-x="600" d="M182 721 L157 720 C144 719 136 711 140 698 C159 632 229 595 298 595 C374 595 437 635 456 698 C460 711 452 719 438 720 L416 721 C405 721 398 716 393 705 C377 671 336 653 298 653 C257 653 218 673 205 705 C200 716 194 721 182 721 L182 721 Z " />
<glyph glyph-name="dotaccent" unicode="&#x2d9;" horiz-adv-x="302" d="M150 678 C179 678 202 701 202 730 C202 757 179 781 150 781 C121 781 99 757 99 730 C99 701 121 678 150 678 L150 678 Z " />
<glyph glyph-name="ring" unicode="&#x2da;" horiz-adv-x="600" d="M158 586 C224 586 268 631 268 688 C268 743 224 789 158 789 C94 789 49 743 49 688 C49 631 94 586 158 586 L158 586 Z M158 636 C128 636 106 659 106 688 C106 717 128 741 158 741 C189 741 212 717 212 688 C212 659 189 636 158 636 L158 636 Z " />
<glyph glyph-name="ogonek" unicode="&#x2db;" horiz-adv-x="600" d="M358 -197 L358 -183 C358 -172 351 -167 340 -169 C333 -170 324 -171 315 -171 C287 -171 266 -155 266 -123 C266 -75 287 -35 349 1 L323 23 C250 -9 204 -63 204 -126 C204 -187 247 -220 306 -220 C319 -220 333 -219 345 -215 C354 -213 358 -206 358 -197 L358 -197 Z " />
<glyph glyph-name="tilde" unicode="&#x2dc;" horiz-adv-x="600" d="M419 694 L407 696 C395 699 389 694 382 684 C372 666 357 661 337 661 C297 661 253 708 198 708 C156 708 123 689 111 643 C108 630 115 621 127 618 L140 615 C151 613 159 617 166 628 C175 643 189 650 210 650 C250 649 283 604 344 604 C390 604 423 627 435 671 C439 683 431 692 419 694 L419 694 Z " />
<glyph glyph-name="hungarumlaut" unicode="&#x2dd;" horiz-adv-x="600" d="M246 719 L202 618 C196 604 202 595 218 595 L233 595 C244 595 252 600 257 608 L319 709 C327 723 322 733 306 733 L270 734 C258 734 250 729 246 719 L246 719 Z M394 719 L349 618 C344 604 350 595 365 595 L381 595 C391 595 399 600 405 608 L466 709 C474 723 470 733 454 733 L417 734 C406 734 398 729 394 719 L394 719 Z " />
<glyph glyph-name="gravecomb" unicode="&#x300;" d="M-376 732 L-390 704 C-396 692 -393 683 -381 677 L-205 597 C-194 592 -184 595 -179 606 L-175 613 C-170 624 -173 634 -183 640 L-349 740 C-360 747 -371 744 -376 732 L-376 732 Z " />
<glyph glyph-name="acutecomb" unicode="&#x301;" d="M-224 730 L-385 634 C-396 627 -398 618 -392 607 L-389 601 C-383 590 -373 588 -362 593 L-191 668 C-178 674 -176 683 -182 695 L-197 723 C-202 734 -213 738 -224 730 L-224 730 Z " />
<glyph glyph-name="uni0302" unicode="&#x302;" d="M-398 639 L-392 625 C-388 616 -380 614 -371 617 L-264 658 C-250 663 -238 663 -224 658 L-114 617 C-105 613 -97 616 -93 625 L-87 639 C-83 648 -85 655 -94 660 L-224 727 C-238 734 -250 734 -264 727 L-392 660 C-401 655 -402 648 -398 639 L-398 639 Z " />
<glyph glyph-name="tildecomb" unicode="&#x303;" d="M-136 694 L-148 696 C-160 699 -166 694 -173 684 C-183 666 -198 661 -218 661 C-258 661 -302 708 -357 708 C-399 708 -432 689 -444 643 C-447 630 -440 621 -428 618 L-415 615 C-404 613 -396 617 -389 628 C-380 643 -366 650 -345 650 C-305 649 -272 604 -211 604 C-165 604 -132 627 -120 671 C-116 683 -124 692 -136 694 L-136 694 Z " />
<glyph glyph-name="uni0304" unicode="&#x304;" d="M-429 674 L-429 652 C-429 639 -421 632 -409 632 L-165 632 C-153 632 -145 639 -145 652 L-145 674 C-145 687 -153 694 -165 694 L-409 694 C-421 694 -429 687 -429 674 L-429 674 Z " />
<glyph glyph-name="uni0306" unicode="&#x306;" d="M-426 721 L-451 720 C-464 719 -472 711 -468 698 C-449 632 -379 595 -310 595 C-234 595 -171 635 -152 698 C-148 711 -156 719 -170 720 L-192 721 C-203 721 -210 716 -215 705 C-231 671 -272 653 -310 653 C-351 653 -390 673 -403 705 C-408 716 -414 721 -426 721 L-426 721 Z " />
<glyph glyph-name="uni0307" unicode="&#x307;" d="M-139 636 C-108 636 -82 662 -82 695 C-82 725 -108 750 -139 750 C-171 750 -196 725 -196 695 C-196 662 -171 636 -139 636 L-139 636 Z " />
<glyph glyph-name="uni0308" unicode="&#x308;" d="M-283 630 C-256 630 -232 653 -232 682 C-232 709 -256 731 -283 731 C-311 731 -333 709 -333 682 C-333 653 -311 630 -283 630 L-283 630 Z M-105 630 C-77 630 -54 653 -54 682 C-54 709 -77 731 -105 731 C-133 731 -156 709 -156 682 C-156 653 -133 630 -105 630 L-105 630 Z " />
<glyph glyph-name="uni030A" unicode="&#x30a;" d="M-159 586 C-93 586 -49 631 -49 688 C-49 743 -93 789 -159 789 C-223 789 -268 743 -268 688 C-268 631 -223 586 -159 586 L-159 586 Z M-159 636 C-189 636 -211 659 -211 688 C-211 717 -189 741 -159 741 C-128 741 -105 717 -105 688 C-105 659 -128 636 -159 636 L-159 636 Z " />
<glyph glyph-name="uni030B" unicode="&#x30b;" d="M-354 719 L-398 618 C-404 604 -398 595 -382 595 L-367 595 C-356 595 -348 600 -343 608 L-281 709 C-273 723 -278 733 -294 733 L-330 734 C-342 734 -350 729 -354 719 L-354 719 Z M-206 719 L-251 618 C-256 604 -250 595 -235 595 L-219 595 C-209 595 -201 600 -195 608 L-134 709 C-126 723 -130 733 -146 733 L-183 734 C-194 734 -202 729 -206 719 L-206 719 Z " />
<glyph glyph-name="uni030C" unicode="&#x30c;" d="M-393 694 C-396 683 -394 675 -384 670 L-268 617 C-251 609 -237 609 -220 617 L-104 670 C-94 675 -92 684 -95 694 L-99 707 C-102 718 -112 721 -122 718 L-227 682 C-239 677 -249 677 -261 682 L-366 718 C-376 722 -385 718 -389 707 L-393 694 Z " />
<glyph glyph-name="uni0312" unicode="&#x312;" d="" />
<glyph glyph-name="uni0326" unicode="&#x326;" d="M-136 -51 L-159 -190 C-161 -204 -155 -212 -141 -212 L-124 -212 C-113 -212 -105 -207 -102 -195 L-63 -55 C-59 -41 -65 -33 -80 -33 L-115 -33 C-127 -33 -135 -39 -136 -51 L-136 -51 Z " />
<glyph glyph-name="uni0327" unicode="&#x327;" d="M-338 -85 L-328 -85 C-293 -85 -272 -101 -272 -129 C-272 -157 -295 -173 -329 -173 C-350 -173 -369 -168 -386 -159 C-397 -155 -406 -155 -411 -166 L-413 -172 C-418 -181 -418 -191 -408 -197 C-386 -211 -359 -220 -325 -220 C-259 -220 -210 -185 -210 -128 C-210 -81 -242 -54 -284 -46 C-295 -44 -299 -40 -296 -29 L-288 3 L-341 3 L-358 -60 C-361 -75 -353 -85 -338 -85 L-338 -85 Z " />
<glyph glyph-name="uni0328" unicode="&#x328;" d="M-242 -197 L-242 -183 C-242 -172 -249 -167 -260 -169 C-267 -170 -276 -171 -285 -171 C-313 -171 -334 -155 -334 -123 C-334 -75 -313 -35 -251 1 L-277 23 C-350 -9 -396 -63 -396 -126 C-396 -187 -353 -220 -294 -220 C-281 -220 -267 -219 -255 -215 C-246 -213 -242 -206 -242 -197 L-242 -197 Z " />
<glyph glyph-name="uni0335" unicode="&#x335;" d="M-369 415 L-369 395 C-369 382 -362 375 -349 375 L-58 375 C-45 375 -38 382 -38 395 L-38 415 C-38 427 -45 435 -58 435 L-349 435 C-362 435 -369 427 -369 415 L-369 415 Z " />
<glyph glyph-name="uni0336" unicode="&#x336;" d="M-806 409 L-806 397 C-806 385 -798 377 -785 377 L-37 377 C-24 377 -17 385 -17 397 L-17 409 C-17 422 -24 430 -37 430 L-785 430 C-798 430 -806 422 -806 409 L-806 409 Z " />
<glyph glyph-name="uni0337" unicode="&#x337;" d="M-89 475 L-343 351 C-356 345 -360 333 -355 319 L-350 308 C-344 294 -332 289 -318 295 L-64 420 C-50 426 -46 438 -52 451 L-58 463 C-64 476 -76 481 -89 475 L-89 475 Z " />
<glyph glyph-name="uni0338" unicode="&#x338;" d="M-78 514 L-548 55 C-559 45 -560 32 -548 21 L-541 15 C-530 4 -518 5 -508 15 L-37 473 C-26 483 -26 496 -37 507 L-45 514 C-56 524 -68 524 -78 514 L-78 514 Z " />
<glyph glyph-name="Wgrave" unicode="&#x1e80;" horiz-adv-x="990" d="M375 894 L367 864 C364 851 369 843 382 839 L570 798 C582 795 591 800 594 812 L596 820 C599 832 594 841 583 844 L400 908 C388 912 378 907 375 894 L375 894 Z M28 708 L224 19 C228 6 236 0 249 0 L284 0 C298 0 306 5 310 19 L490 585 C495 602 508 602 513 585 L683 19 C686 7 695 0 709 0 L746 0 C759 0 768 7 771 19 L957 708 C961 722 955 730 940 730 L905 730 C893 730 886 723 883 712 L738 149 C734 130 720 130 715 148 L543 711 C540 723 531 730 518 730 L484 730 C471 730 462 725 458 711 L280 152 C275 135 261 135 257 153 L109 713 C106 725 98 730 86 730 L45 730 C31 730 25 722 28 708 L28 708 Z " />
<glyph glyph-name="wgrave" unicode="&#x1e81;" horiz-adv-x="808" d="M302 732 L288 704 C282 692 285 683 297 677 L473 597 C484 592 494 595 499 606 L503 613 C508 624 505 634 495 640 L329 740 C318 747 307 744 302 732 L302 732 Z M30 498 L176 21 C180 7 190 0 204 0 L237 0 C251 0 261 7 265 21 L395 398 C400 413 412 413 417 398 L540 21 C544 7 555 0 569 0 L604 0 C618 0 628 7 632 21 L779 498 C783 512 777 520 763 520 L730 520 C718 520 711 515 708 503 L598 115 C593 99 581 99 576 114 L448 501 C443 514 433 521 420 521 L391 521 C378 521 368 515 363 501 L234 118 C229 102 216 102 211 118 L102 503 C99 515 91 520 80 520 L47 520 C32 520 25 512 30 498 L30 498 Z " />
<glyph glyph-name="Wacute" unicode="&#x1e82;" horiz-adv-x="990" d="M586 906 L407 851 C395 847 391 838 394 826 L395 820 C399 808 408 803 420 805 L603 838 C617 841 622 849 619 862 L611 893 C608 904 599 911 586 906 L586 906 Z M28 708 L224 19 C228 6 236 0 249 0 L284 0 C298 0 306 5 310 19 L490 585 C495 602 508 602 513 585 L683 19 C686 7 695 0 709 0 L746 0 C759 0 768 7 771 19 L957 708 C961 722 955 730 940 730 L905 730 C893 730 886 723 883 712 L738 149 C734 130 720 130 715 148 L543 711 C540 723 531 730 518 730 L484 730 C471 730 462 725 458 711 L280 152 C275 135 261 135 257 153 L109 713 C106 725 98 730 86 730 L45 730 C31 730 25 722 28 708 L28 708 Z " />
<glyph glyph-name="wacute" unicode="&#x1e83;" horiz-adv-x="808" d="M479 730 L318 634 C307 627 305 618 311 607 L314 601 C320 590 330 588 341 593 L512 668 C525 674 527 683 521 695 L506 723 C501 734 490 738 479 730 L479 730 Z M30 498 L176 21 C180 7 190 0 204 0 L237 0 C251 0 261 7 265 21 L395 398 C400 413 412 413 417 398 L540 21 C544 7 555 0 569 0 L604 0 C618 0 628 7 632 21 L779 498 C783 512 777 520 763 520 L730 520 C718 520 711 515 708 503 L598 115 C593 99 581 99 576 114 L448 501 C443 514 433 521 420 521 L391 521 C378 521 368 515 363 501 L234 118 C229 102 216 102 211 118 L102 503 C99 515 91 520 80 520 L47 520 C32 520 25 512 30 498 L30 498 Z " />
<glyph glyph-name="Wdieresis" unicode="&#x1e84;" horiz-adv-x="990" d="M405 796 C433 796 458 819 458 849 C458 877 433 900 405 900 C376 900 353 877 353 849 C353 819 376 796 405 796 L405 796 Z M589 796 C618 796 642 819 642 849 C642 877 618 900 589 900 C560 900 536 877 536 849 C536 819 560 796 589 796 L589 796 Z M28 708 L224 19 C228 6 236 0 249 0 L284 0 C298 0 306 5 310 19 L490 585 C495 602 508 602 513 585 L683 19 C686 7 695 0 709 0 L746 0 C759 0 768 7 771 19 L957 708 C961 722 955 730 940 730 L905 730 C893 730 886 723 883 712 L738 149 C734 130 720 130 715 148 L543 711 C540 723 531 730 518 730 L484 730 C471 730 462 725 458 711 L280 152 C275 135 261 135 257 153 L109 713 C106 725 98 730 86 730 L45 730 C31 730 25 722 28 708 L28 708 Z " />
<glyph glyph-name="wdieresis" unicode="&#x1e85;" horiz-adv-x="808" d="M316 630 C343 630 367 653 367 682 C367 709 343 731 316 731 C288 731 266 709 266 682 C266 653 288 630 316 630 L316 630 Z M494 630 C522 630 545 653 545 682 C545 709 522 731 494 731 C466 731 443 709 443 682 C443 653 466 630 494 630 L494 630 Z M30 498 L176 21 C180 7 190 0 204 0 L237 0 C251 0 261 7 265 21 L395 398 C400 413 412 413 417 398 L540 21 C544 7 555 0 569 0 L604 0 C618 0 628 7 632 21 L779 498 C783 512 777 520 763 520 L730 520 C718 520 711 515 708 503 L598 115 C593 99 581 99 576 114 L448 501 C443 514 433 521 420 521 L391 521 C378 521 368 515 363 501 L234 118 C229 102 216 102 211 118 L102 503 C99 515 91 520 80 520 L47 520 C32 520 25 512 30 498 L30 498 Z " />
<glyph glyph-name="uni1E9E" unicode="&#x1e9e;" horiz-adv-x="776" d="M119 0 L158 0 C171 0 179 7 179 20 L179 428 C179 570 264 668 397 668 C465 668 516 646 554 608 C563 600 563 590 556 580 L427 398 C419 387 416 377 416 364 L416 356 C416 339 426 329 443 329 L493 329 C588 329 663 273 663 191 C663 117 609 58 511 58 C433 58 369 97 343 158 C338 168 331 174 320 174 L280 174 C266 174 258 165 263 151 C297 54 395 -10 511 -10 C645 -10 743 70 742 191 C741 305 648 390 502 390 L643 577 C653 592 655 605 645 620 C599 687 512 740 397 740 C224 740 99 616 99 424 L99 20 C99 7 106 0 119 0 L119 0 Z " />
<glyph glyph-name="Ygrave" unicode="&#x1ef2;" horiz-adv-x="637" d="M195 894 L187 864 C184 851 189 843 202 839 L390 798 C402 795 411 800 414 812 L416 820 C419 832 414 841 403 844 L220 908 C208 912 198 907 195 894 L195 894 Z M24 706 L275 290 C279 282 281 274 281 266 L281 23 C281 9 290 0 304 0 L336 0 C350 0 359 9 359 23 L359 266 C359 274 361 282 365 290 L606 706 C614 720 608 730 592 730 L557 730 C547 730 539 726 533 716 L334 370 C327 357 316 357 308 370 L107 716 C102 726 94 730 84 730 L37 730 C21 730 16 720 24 706 L24 706 Z " />
<glyph glyph-name="ygrave" unicode="&#x1ef3;" horiz-adv-x="553" d="M175 732 L161 704 C155 692 158 683 170 677 L346 597 C357 592 367 595 372 606 L376 613 C381 624 378 634 368 640 L202 740 C191 747 180 744 175 732 L175 732 Z M28 497 L229 14 C232 5 239 0 248 0 L256 0 L237 -44 C209 -111 180 -151 116 -151 C95 -151 73 -148 54 -143 C41 -140 33 -145 30 -158 L27 -177 C24 -189 30 -198 42 -201 C65 -208 91 -211 112 -211 C213 -211 258 -153 298 -58 L526 497 C532 511 525 520 511 520 L474 520 C462 520 455 515 451 504 L294 95 C288 78 275 79 269 95 L109 504 C104 515 97 520 86 520 L43 520 C29 520 22 511 28 497 L28 497 Z " />
<glyph glyph-name="uni1EF8" unicode="&#x1ef8;" horiz-adv-x="637" d="M470 884 L458 886 C446 889 440 884 433 874 C423 856 408 851 388 851 C348 851 304 898 249 898 C207 898 174 879 162 833 C159 820 166 811 178 808 L191 805 C202 803 210 807 217 818 C226 833 240 840 261 840 C301 839 334 794 395 794 C441 794 474 817 486 861 C490 873 482 882 470 884 L470 884 Z M24 706 L275 290 C279 282 281 274 281 266 L281 23 C281 9 290 0 304 0 L336 0 C350 0 359 9 359 23 L359 266 C359 274 361 282 365 290 L606 706 C614 720 608 730 592 730 L557 730 C547 730 539 726 533 716 L334 370 C327 357 316 357 308 370 L107 716 C102 726 94 730 84 730 L37 730 C21 730 16 720 24 706 L24 706 Z " />
<glyph glyph-name="uni1EF9" unicode="&#x1ef9;" horiz-adv-x="553" d="M419 694 L407 696 C395 699 389 694 382 684 C372 666 357 661 337 661 C297 661 253 708 198 708 C156 708 123 689 111 643 C108 630 115 621 127 618 L140 615 C151 613 159 617 166 628 C175 643 189 650 210 650 C250 649 283 604 344 604 C390 604 423 627 435 671 C439 683 431 692 419 694 L419 694 Z M28 497 L229 14 C232 5 239 0 248 0 L256 0 L237 -44 C209 -111 180 -151 116 -151 C95 -151 73 -148 54 -143 C41 -140 33 -145 30 -158 L27 -177 C24 -189 30 -198 42 -201 C65 -208 91 -211 112 -211 C213 -211 258 -153 298 -58 L526 497 C532 511 525 520 511 520 L474 520 C462 520 455 515 451 504 L294 95 C288 78 275 79 269 95 L109 504 C104 515 97 520 86 520 L43 520 C29 520 22 511 28 497 L28 497 Z " />
<glyph glyph-name="endash" unicode="&#x2013;" horiz-adv-x="617" d="M516 297 L100 297 C83 297 73 286 73 269 L73 263 C73 246 83 236 100 236 L516 236 C533 236 544 246 544 263 L544 269 C544 286 533 297 516 297 L516 297 Z " />
<glyph glyph-name="emdash" unicode="&#x2014;" horiz-adv-x="747" d="M646 297 L100 297 C83 297 73 286 73 269 L73 263 C73 246 83 236 100 236 L646 236 C663 236 673 246 673 263 L673 269 C673 286 663 297 646 297 L646 297 Z " />
<glyph glyph-name="quoteleft" unicode="&#x2018;" horiz-adv-x="213" d="M136 545 L152 692 C153 705 146 713 133 713 L114 713 C102 713 95 708 92 696 L65 548 C62 534 69 527 83 527 L114 527 C126 527 134 533 136 545 L136 545 Z " />
<glyph glyph-name="quoteright" unicode="&#x2019;" horiz-adv-x="205" d="M80 722 L64 575 C63 562 70 554 83 554 L102 554 C114 554 121 559 124 571 L151 719 C154 733 147 740 133 740 L102 740 C90 740 82 734 80 722 L80 722 Z " />
<glyph glyph-name="quotesinglbase" unicode="&#x201a;" horiz-adv-x="212" d="M73 78 L57 -69 C56 -82 63 -90 76 -90 L95 -90 C107 -90 114 -85 117 -73 L144 75 C147 89 140 96 126 96 L95 96 C83 96 75 90 73 78 L73 78 Z " />
<glyph glyph-name="quotedblleft" unicode="&#x201c;" horiz-adv-x="366" d="M136 545 L152 692 C153 705 146 713 133 713 L114 713 C102 713 95 708 92 696 L65 548 C62 534 69 527 83 527 L114 527 C126 527 134 533 136 545 L136 545 Z M288 545 L304 692 C305 705 298 713 285 713 L266 713 C254 713 247 708 244 696 L217 548 C214 534 221 527 235 527 L266 527 C278 527 286 533 288 545 L288 545 Z " />
<glyph glyph-name="quotedblright" unicode="&#x201d;" horiz-adv-x="358" d="M80 722 L64 575 C63 562 70 554 83 554 L102 554 C114 554 121 559 124 571 L151 719 C154 733 147 740 133 740 L102 740 C90 740 82 734 80 722 L80 722 Z M232 722 L216 575 C215 562 222 554 235 554 L254 554 C266 554 273 559 276 571 L303 719 C306 733 299 740 285 740 L254 740 C242 740 234 734 232 722 L232 722 Z " />
<glyph glyph-name="quotedblbase" unicode="&#x201e;" horiz-adv-x="365" d="M73 78 L57 -69 C56 -82 63 -90 76 -90 L95 -90 C107 -90 114 -85 117 -73 L144 75 C147 89 140 96 126 96 L95 96 C83 96 75 90 73 78 L73 78 Z M225 78 L209 -69 C208 -82 215 -90 228 -90 L247 -90 C259 -90 266 -85 269 -73 L296 75 C299 89 292 96 278 96 L247 96 C235 96 227 90 225 78 L225 78 Z " />
<glyph glyph-name="dagger" unicode="&#x2020;" horiz-adv-x="555" d="M41 477 C41 464 48 456 61 456 L222 456 C236 456 245 449 245 434 L248 -40 C248 -54 256 -60 268 -60 L287 -60 C300 -60 307 -54 307 -40 L311 434 C311 449 319 456 333 456 L495 456 C507 456 515 464 515 477 L515 502 C515 515 507 522 495 522 L334 522 C320 522 312 530 312 544 L314 760 C314 774 306 780 294 780 L262 780 C249 780 242 774 242 760 L244 544 C244 530 236 522 222 522 L61 522 C48 522 41 515 41 502 L41 477 Z " />
<glyph glyph-name="daggerdbl" unicode="&#x2021;" horiz-adv-x="555" d="M41 312 C41 299 48 291 61 291 L223 291 C237 291 246 284 246 269 L248 -40 C248 -54 256 -60 268 -60 L287 -60 C300 -60 307 -54 307 -40 L310 269 C310 284 318 291 332 291 L495 291 C507 291 515 299 515 312 L515 335 C515 348 507 355 495 355 L333 355 C319 355 311 363 311 377 L311 465 C311 480 319 487 333 487 L495 487 C507 487 515 494 515 507 L515 530 C515 543 507 550 495 550 L334 550 C320 550 312 559 312 573 L314 760 C314 774 306 780 294 780 L262 780 C249 780 242 774 242 760 L244 573 C244 559 236 550 222 550 L61 550 C48 550 41 543 41 530 L41 507 C41 494 48 487 61 487 L222 487 C236 487 245 479 245 465 L245 377 C245 363 237 355 223 355 L61 355 C48 355 41 348 41 335 L41 312 Z " />
<glyph glyph-name="bullet" unicode="&#x2022;" horiz-adv-x="416" d="M208 173 C274 173 330 229 330 299 C330 361 274 417 208 417 C142 417 86 361 86 299 C86 229 142 173 208 173 L208 173 Z " />
<glyph glyph-name="ellipsis" unicode="&#x2026;" horiz-adv-x="686" d="M124 -10 C156 -10 183 17 183 50 C183 81 156 107 124 107 C92 107 65 81 65 50 C65 17 92 -10 124 -10 L124 -10 Z M344 -10 C376 -10 403 17 403 50 C403 81 376 107 344 107 C312 107 285 81 285 50 C285 17 312 -10 344 -10 L344 -10 Z M571 -10 C603 -10 630 17 630 50 C630 81 603 107 571 107 C539 107 512 81 512 50 C512 17 539 -10 571 -10 L571 -10 Z " />
<glyph glyph-name="perthousand" unicode="&#x2030;" horiz-adv-x="1304" d="M370 549 C370 664 301 740 203 740 C105 740 36 664 36 549 C36 435 105 359 203 359 C301 359 370 435 370 549 L370 549 Z M640 718 L619 727 C607 732 598 728 592 717 L276 51 C270 39 273 29 286 24 L310 14 C321 9 330 11 336 23 L651 692 C656 703 653 712 640 718 L640 718 Z M203 417 C140 417 97 466 97 549 C97 633 140 682 203 682 C266 682 308 633 308 549 C308 466 266 417 203 417 L203 417 Z M713 371 C616 371 546 294 546 181 C546 67 616 -10 713 -10 C811 -10 881 67 881 181 C881 294 811 371 713 371 L713 371 Z M1100 371 C1003 371 934 294 934 181 C934 66 1003 -10 1100 -10 C1198 -10 1268 66 1268 181 C1268 294 1198 371 1100 371 L1100 371 Z M713 48 C650 48 609 98 609 181 C609 264 650 313 713 313 C777 313 818 264 818 181 C818 98 777 48 713 48 L713 48 Z M1100 48 C1037 48 995 97 995 181 C995 264 1037 313 1100 313 C1164 313 1205 264 1205 181 C1205 97 1164 48 1100 48 L1100 48 Z " />
<glyph glyph-name="guilsinglleft" unicode="&#x2039;" horiz-adv-x="317" d="M123 289 L229 377 C241 387 245 396 245 410 L245 427 C245 450 229 457 212 442 L64 318 C53 308 49 298 49 284 L49 259 C49 245 53 236 64 226 L212 105 C229 90 245 97 245 120 L245 139 C245 153 241 162 229 171 L123 257 C111 268 111 278 123 289 L123 289 Z " />
<glyph glyph-name="guilsinglright" unicode="&#x203a;" horiz-adv-x="317" d="M106 104 L254 226 C265 236 270 245 270 259 L270 284 C270 298 265 308 254 318 L106 442 C88 457 72 450 72 427 L72 410 C72 396 77 386 88 377 L195 289 C208 279 208 267 195 257 L88 172 C77 163 72 153 72 139 L72 116 C72 95 88 89 106 104 L106 104 Z " />
<glyph glyph-name="fraction" unicode="&#x2044;" horiz-adv-x="340" d="M27 -10 L43 -10 C56 -10 65 -4 70 9 L333 705 C340 722 332 733 314 733 L299 733 C285 733 276 727 271 714 L8 18 C2 1 10 -10 27 -10 L27 -10 Z " />
<glyph glyph-name="Euro" unicode="&#x20ac;" horiz-adv-x="783" d="M38 257 C35 243 42 235 55 235 L118 235 C126 235 130 231 132 224 C167 77 287 -10 439 -10 C577 -10 684 67 718 170 C723 183 715 192 701 192 L667 192 C655 192 648 187 643 176 C613 105 535 59 439 59 C325 59 245 120 214 220 C211 229 216 235 225 235 L466 235 C478 235 486 241 488 253 L490 264 C492 278 485 285 471 285 L213 285 C206 285 200 290 199 298 C199 305 199 312 199 319 L199 336 C200 344 206 348 213 348 L491 348 C503 348 510 354 513 366 L515 376 C517 390 510 398 496 398 L225 398 C216 398 211 404 214 413 C245 514 332 578 446 578 C536 578 611 527 642 456 C646 445 653 440 664 440 L701 440 C715 440 723 449 718 462 C682 569 572 647 446 647 C284 647 166 555 131 409 C129 401 125 398 117 398 L84 398 C72 398 64 391 62 379 L60 370 C58 356 65 348 79 348 L109 348 C117 348 121 343 120 335 L120 318 C120 311 121 305 121 298 C122 290 117 285 109 285 L61 285 C49 285 42 280 39 267 L38 257 Z " />
<glyph glyph-name="trademark" unicode="&#x2122;" horiz-adv-x="774" d="M36 699 C36 686 43 679 56 679 L122 679 C140 679 150 670 150 655 L149 425 C149 411 156 405 169 405 L189 405 C202 405 209 412 209 425 L209 655 C209 669 219 679 237 679 L304 679 C317 679 324 686 324 699 L324 711 C324 723 317 731 304 731 L56 731 C43 731 36 723 36 711 L36 699 Z M353 425 C353 412 360 405 373 405 L386 405 C399 405 406 412 406 425 L406 631 L493 505 C500 496 507 493 518 493 L525 493 C536 493 543 496 550 505 L634 628 L634 425 C634 412 641 405 654 405 L667 405 C680 405 687 412 687 425 L687 711 C687 723 680 731 667 731 L655 731 C645 731 637 727 631 718 L535 575 C526 563 514 562 506 575 L410 718 C404 727 396 731 386 731 L373 731 C360 731 353 723 353 711 L353 425 Z " />
<glyph glyph-name="minus" unicode="&#x2212;" horiz-adv-x="552" d="M457 291 L96 291 C83 291 76 284 76 271 L76 248 C76 235 83 228 96 228 L457 228 C469 228 477 235 477 248 L477 271 C477 284 469 291 457 291 L457 291 Z " />
<glyph glyph-name="approxequal" unicode="&#x2248;" horiz-adv-x="554" d="M462 414 L447 419 C435 422 428 417 421 407 C408 384 383 373 353 374 C297 375 248 424 179 425 C124 426 85 393 77 343 C75 331 82 323 93 320 L109 316 C121 312 128 317 134 328 C146 350 169 362 199 362 C251 361 292 314 366 313 C424 312 465 343 477 390 C480 402 474 411 462 414 L462 414 Z M462 194 L447 199 C435 202 428 197 421 187 C408 164 383 153 353 154 C297 155 248 204 179 205 C124 206 85 173 77 123 C75 111 82 103 93 100 L109 96 C121 92 128 97 134 108 C146 130 169 142 199 142 C251 141 292 94 366 93 C424 92 465 123 477 170 C480 182 474 191 462 194 L462 194 Z " />
<glyph glyph-name="notequal" unicode="&#x2260;" horiz-adv-x="529" d="M77 155 C77 143 84 135 97 135 L182 135 C195 135 202 128 199 114 L176 35 C173 21 179 13 193 13 L211 13 C222 13 231 18 234 30 L259 120 C262 130 268 135 279 135 L432 135 C445 135 452 143 452 155 L452 178 C452 191 445 198 432 198 L302 198 C289 198 283 205 286 219 L308 297 C311 308 317 313 328 313 L432 313 C445 313 452 320 452 333 L452 355 C452 368 445 375 432 375 L352 375 C339 375 332 383 335 396 L356 468 C359 482 353 491 339 491 L321 491 C310 491 302 486 299 474 L276 391 C273 381 266 375 255 375 L97 375 C84 375 77 368 77 355 L77 333 C77 320 84 313 97 313 L232 313 C245 313 252 305 248 292 L227 214 C224 204 216 198 205 198 L97 198 C84 198 77 191 77 178 L77 155 Z " />
<glyph glyph-name="uniF8FF" unicode="&#xf8ff;" horiz-adv-x="1170" d="M300 573 C300 559 291 551 278 551 L170 551 L170 697 C170 711 179 722 195 722 C210 722 220 711 220 697 L220 595 L278 595 C291 595 300 586 300 573 L300 573 Z M316 636 C316 685 356 722 409 722 C462 722 501 687 501 636 C501 585 462 548 409 548 C356 548 316 586 316 636 L316 636 Z M617 600 C617 624 535 606 535 668 C535 700 559 722 605 722 C635 722 665 712 665 688 C665 677 657 669 645 669 C630 669 619 680 600 680 C588 680 584 676 584 670 C584 650 666 667 666 602 C666 569 638 548 595 548 C555 548 529 561 529 583 C529 595 537 603 551 603 C567 603 573 591 597 591 C611 591 617 594 617 600 L617 600 Z M449 636 C449 660 433 677 409 677 C384 677 367 660 367 636 C367 613 384 594 409 594 C433 594 449 611 449 636 L449 636 Z M505 285 L424 370 L424 307 C424 293 413 281 398 281 C383 281 373 293 373 307 L373 453 L405 453 L486 368 L486 431 C486 445 496 456 511 456 C526 456 537 445 537 431 L537 285 L505 285 Z M1038 334 C1038 357 956 339 956 402 C956 435 980 456 1027 456 C1058 456 1087 445 1087 421 C1087 410 1079 402 1067 402 C1052 402 1040 413 1022 413 C1010 413 1006 409 1006 404 C1006 383 1088 400 1088 335 C1088 302 1060 281 1016 281 C978 281 951 294 951 316 C951 328 958 337 973 337 C988 337 994 324 1018 324 C1032 324 1038 327 1038 334 L1038 334 Z M312 281 C300 281 291 286 287 296 L282 309 L212 309 L207 296 C203 286 194 281 182 281 C164 281 152 298 161 317 L227 453 L267 453 L332 317 C340 298 330 281 312 281 L312 281 Z M751 369 C751 318 715 285 660 285 L585 285 L585 453 L660 453 C715 453 751 420 751 369 L751 369 Z M912 369 C912 357 904 349 890 349 L842 349 L842 326 L900 326 C913 326 921 318 921 305 C921 293 913 285 900 285 L791 285 L791 453 L900 453 C913 453 921 444 921 432 C921 420 913 410 900 410 L842 410 L842 390 L890 390 C904 390 912 380 912 369 L912 369 Z M700 368 C700 392 685 408 659 408 L636 408 L636 328 L659 328 C685 328 700 345 700 368 L700 368 Z M268 343 L247 394 L226 343 L268 343 Z M209 22 L209 126 L173 126 C159 126 151 137 151 148 C151 160 159 170 173 170 L295 170 C309 170 319 161 319 148 C319 136 309 126 295 126 L260 126 L260 22 C260 7 248 -3 234 -3 C220 -3 209 7 209 22 L209 22 Z M506 169 L443 69 L443 22 C443 7 432 -3 418 -3 C404 -3 392 7 392 22 L392 69 L330 169 L388 169 L419 110 L449 169 L506 169 Z M606 42 L583 42 L583 22 C583 7 573 -3 559 -3 C544 -3 532 7 532 22 L532 169 L606 169 C650 169 675 141 675 106 C675 70 650 42 606 42 L606 42 Z M831 85 C831 73 823 65 809 65 L761 65 L761 43 L819 43 C833 43 841 34 841 21 C841 9 833 0 819 0 L710 0 L710 169 L819 169 C833 169 841 160 841 148 C841 136 833 126 819 126 L761 126 L761 106 L809 106 C823 106 831 96 831 85 L831 85 Z M602 84 C619 84 627 92 627 106 C627 118 619 128 602 128 L583 128 L583 84 L602 84 Z " />
<glyph glyph-name="fi" unicode="&#xfb01;" horiz-adv-x="642" d="M40 456 L124 456 C129 456 133 453 133 447 L133 14 C133 1 140 -6 153 -6 L188 -6 C200 -6 208 1 208 14 L208 447 C208 453 211 456 217 456 L356 456 C369 456 376 463 376 476 L376 500 C376 513 369 520 356 520 L217 520 C211 520 208 524 208 529 L208 627 C208 693 236 717 292 717 C317 717 337 713 357 708 C370 704 379 708 380 722 L384 747 C385 759 381 767 370 770 C342 779 312 784 281 784 C185 784 133 734 133 627 L133 529 C133 524 129 520 124 520 L40 520 C28 520 20 513 20 500 L20 476 C20 463 28 456 40 456 L40 456 Z M518 636 C549 636 575 662 575 695 C575 725 549 750 518 750 C486 750 461 725 461 695 C461 662 486 636 518 636 L518 636 Z M533 520 L498 520 C485 520 478 513 478 500 L478 20 C478 7 485 0 498 0 L533 0 C545 0 553 7 553 20 L553 500 C553 513 545 520 533 520 L533 520 Z " />
<glyph glyph-name="fl" unicode="&#xfb02;" horiz-adv-x="642" d="M40 456 L124 456 C129 456 133 453 133 447 L133 14 C133 1 140 -6 153 -6 L188 -6 C200 -6 208 1 208 14 L208 447 C208 453 211 456 217 456 L356 456 C369 456 376 463 376 476 L376 500 C376 513 369 520 356 520 L217 520 C211 520 208 524 208 529 L208 627 C208 693 236 717 292 717 C317 717 337 713 357 708 C370 704 379 708 380 722 L384 747 C385 759 381 767 370 770 C342 779 312 784 281 784 C185 784 133 734 133 627 L133 529 C133 524 129 520 124 520 L40 520 C28 520 20 513 20 500 L20 476 C20 463 28 456 40 456 L40 456 Z M533 780 L498 780 C485 780 478 773 478 760 L478 20 C478 7 485 0 498 0 L533 0 C545 0 553 7 553 20 L553 760 C553 773 545 780 533 780 L533 780 Z " />
</font>
</svg>
